<?xml version="1.0" standalone="no"?>
<!DOCTYPE svg PUBLIC "-//W3C//DTD SVG 1.1//EN" "http://www.w3.org/Graphics/SVG/1.1/DTD/svg11.dtd" >
<svg xmlns="http://www.w3.org/2000/svg" xmlns:xlink="http://www.w3.org/1999/xlink" version="1.1">
<metadata>
Created by FontForge 20200306 at Fri Apr  5 11:56:20 2019
 By convertio
Copyright \(c\) 2018 by Alfredo Marco Pradil. All rights reserved.
</metadata>
<defs>
<font id="HKGrotesk-SemiBold" horiz-adv-x="0" >
  <font-face 
    font-family="HK Grotesk SemiBold"
    font-weight="600"
    font-stretch="normal"
    units-per-em="1000"
    panose-1="0 0 7 0 0 0 0 0 0 0"
    ascent="800"
    descent="-200"
    x-height="493"
    cap-height="697"
    bbox="-720 -257 1302 1126"
    underline-thickness="52"
    underline-position="-121"
    stemh="61"
    stemv="102"
    unicode-range="U+0020-FB02"
  />
<missing-glyph horiz-adv-x="560" 
d="M78 0v472h405v-472h-405zM121 44h318v384h-318v-384z" />
    <glyph glyph-name="f_f" unicode="ff" horiz-adv-x="604" 
d="M91 0v412h-82v81h82v39c0 109 93 174 201 174c44 0 89 -10 127 -33c29 22 64 33 104 33c31 0 60 -7 85 -19l-33 -84c-13 7 -28 12 -42 12c-38 0 -62 -18 -62 -63v-59h131v-81h-131v-412h-102v412h-176v-412h-102zM193 493h177v70c0 16 3 30 7 42c-21 12 -49 19 -80 19
c-69 0 -104 -38 -104 -94v-37z" />
    <glyph glyph-name="f_f_i" unicode="ffi" horiz-adv-x="822" 
d="M91 0v412h-82v81h82v39c0 109 93 174 201 174c49 0 99 -12 141 -41c35 27 82 41 133 41c76 0 128 -17 177 -49l-48 -72c-34 25 -75 39 -124 39c-68 0 -100 -35 -100 -96v-35h278v-493h-102v412h-176v-412h-102v412h-176v-412h-102zM193 493h176v37c0 28 6 52 15 71
c-23 14 -52 23 -87 23c-69 0 -104 -38 -104 -94v-37z" />
    <glyph glyph-name="f_f_l" unicode="ffl" horiz-adv-x="851" 
d="M749 -9c-61 0 -102 31 -102 106v512c-23 9 -48 15 -76 15c-68 0 -100 -35 -100 -96v-35h100v-81h-100v-412h-102v412h-176v-412h-102v412h-82v81h82v39c0 109 93 174 201 174c48 0 100 -12 140 -40c36 26 83 40 134 40c76 0 128 -17 183 -52v-530c0 -28 14 -40 38 -40
c12 0 26 2 42 7v-86c-29 -9 -57 -14 -80 -14zM193 493h176v37c0 29 6 52 15 71c-22 14 -53 23 -87 23c-69 0 -104 -38 -104 -94v-37z" />
    <glyph glyph-name="fi" unicode="fi" horiz-adv-x="539" 
d="M464 493v-493h-102v412h-169v-412h-102v412h-82v81h82v37c0 114 91 176 197 176c76 0 128 -17 177 -49l-48 -72c-34 25 -74 39 -124 39c-67 0 -100 -35 -100 -96v-35h271z" />
    <glyph glyph-name="fl" unicode="fl" horiz-adv-x="583" 
d="M481 -9c-60 0 -101 31 -101 106v506c-26 14 -56 21 -90 21c-66 0 -98 -35 -98 -96v-35h103l-1 -81h-102v-412h-102v412h-81v81h81v37c0 114 90 176 195 176c75 0 117 -9 197 -50v-532c0 -28 14 -40 38 -40c12 0 26 2 42 7v-86c-29 -9 -57 -14 -81 -14z" />
    <glyph glyph-name="h_d_c_o.liga" unicode="hdco" horiz-adv-x="860" 
d="M430 -30c-211 0 -382 170 -382 382c0 211 171 381 382 381s382 -170 382 -381c0 -212 -171 -382 -382 -382zM430 5c192 0 347 155 347 347c0 191 -155 346 -347 346s-346 -155 -346 -346c0 -192 154 -347 346 -347zM231 202c-9 0 -17 7 -17 17v265c0 10 8 18 17 18
c10 0 18 -8 18 -18v-265c0 -10 -8 -17 -18 -17zM430 202c-10 0 -17 7 -17 17v265c0 10 7 18 17 18s17 -8 17 -18v-265c0 -10 -7 -17 -17 -17zM628 202c-4 0 -8 1 -11 5l-133 132c-3 4 -4 8 -4 13s1 9 4 12l133 131c3 5 8 7 12 7c9 0 17 -9 17 -18c0 -4 -1 -8 -5 -12
l-120 -120l120 -121c4 -4 5 -8 5 -12c0 -9 -9 -17 -18 -17zM298 334c-10 0 -17 7 -17 18c0 10 7 17 17 17h66c10 0 18 -7 18 -17c0 -11 -8 -18 -18 -18h-66z" />
    <glyph glyph-name="hyphen_greater.liga" unicode="&#x2d;&#x3e;" horiz-adv-x="1091" 
d="M543 10l-34 68l328 184l-837 -1v77l837 -1l-328 184l34 68l520 -289z" />
    <glyph glyph-name="less_hyphen.liga" unicode="&#x3c;&#x2d;" horiz-adv-x="1092" 
d="M548 10l-520 290l520 289l34 -68l-328 -184l837 1v-77l-837 1l328 -184z" />
    <glyph glyph-name=".notdef" horiz-adv-x="560" 
d="M78 0v472h405v-472h-405zM121 44h318v384h-318v-384z" />
    <glyph glyph-name="space" unicode=" " horiz-adv-x="248" 
 />
    <glyph glyph-name="A" unicode="A" horiz-adv-x="652" 
d="M13 0l273 697h81l272 -697h-116l-57 161h-278l-59 -161h-116zM221 252h211l-106 291z" />
    <glyph glyph-name="Aacute" unicode="&#xc1;" horiz-adv-x="652" 
d="M288 760l110 141h110l-144 -141h-76zM13 0l273 697h81l272 -697h-116l-57 161h-278l-59 -161h-116zM221 252h211l-106 291z" />
    <glyph glyph-name="Abreve" unicode="&#x102;" horiz-adv-x="652" 
d="M327 769c-106 0 -154 47 -154 132h72c0 -49 35 -72 82 -72c49 0 81 25 81 72h73c0 -89 -53 -132 -154 -132zM13 0l273 697h81l272 -697h-116l-57 161h-278l-59 -161h-116zM221 252h211l-106 291z" />
    <glyph glyph-name="uni1EAE" unicode="&#x1eae;" horiz-adv-x="652" 
d="M288 964l110 141h110l-144 -141h-76zM327 769c-106 0 -154 47 -154 132h72c0 -49 35 -72 82 -72c49 0 81 25 81 72h73c0 -89 -53 -132 -154 -132zM13 0l273 697h81l272 -697h-116l-57 161h-278l-59 -161h-116zM221 252h211l-106 291z" />
    <glyph glyph-name="uni1EB6" unicode="&#x1eb6;" horiz-adv-x="652" 
d="M327 769c-106 0 -154 47 -154 132h72c0 -49 35 -72 82 -72c49 0 81 25 81 72h73c0 -89 -53 -132 -154 -132zM13 0l273 697h81l272 -697h-116l-57 161h-278l-59 -161h-116zM221 252h211l-106 291zM273 -173v107h107v-107h-107z" />
    <glyph glyph-name="uni1EB0" unicode="&#x1eb0;" horiz-adv-x="652" 
d="M288 964l-136 141h109l104 -141h-77zM327 769c-106 0 -154 47 -154 132h72c0 -49 35 -72 82 -72c49 0 81 25 81 72h73c0 -89 -53 -132 -154 -132zM13 0l273 697h81l272 -697h-116l-57 161h-278l-59 -161h-116zM221 252h211l-106 291z" />
    <glyph glyph-name="uni1EB2" unicode="&#x1eb2;" horiz-adv-x="652" 
d="M317 940l-12 43c32 5 67 9 67 45c0 37 -41 41 -80 41h-15v57h15c85 0 146 -34 146 -97c0 -69 -70 -80 -121 -89zM327 769c-106 0 -154 47 -154 132h72c0 -49 35 -72 82 -72c49 0 81 25 81 72h73c0 -89 -53 -132 -154 -132zM13 0l273 697h81l272 -697h-116l-57 161h-278
l-59 -161h-116zM221 252h211l-106 291z" />
    <glyph glyph-name="uni1EB4" unicode="&#x1eb4;" horiz-adv-x="652" 
d="M391 969c-79 0 -89 76 -132 76c-24 0 -38 -26 -38 -71h-59c0 86 39 135 101 134c72 1 87 -75 129 -75c20 0 36 26 36 72h61c0 -87 -38 -136 -98 -136zM327 769c-106 0 -154 47 -154 132h72c0 -49 35 -72 82 -72c49 0 81 25 81 72h73c0 -89 -53 -132 -154 -132zM13 0
l273 697h81l272 -697h-116l-57 161h-278l-59 -161h-116zM221 252h211l-106 291z" />
    <glyph glyph-name="uni01CD" unicode="&#x1cd;" horiz-adv-x="652" 
d="M326 741l-153 160h80l73 -77l74 77h80zM13 0l273 697h81l272 -697h-116l-57 161h-278l-59 -161h-116zM221 252h211l-106 291z" />
    <glyph glyph-name="Acircumflex" unicode="&#xc2;" horiz-adv-x="652" 
d="M172 748l154 168l153 -168h-80l-73 81l-73 -81h-81zM13 0l273 697h81l272 -697h-116l-57 161h-278l-59 -161h-116zM221 252h211l-106 291z" />
    <glyph glyph-name="uni1EA4" unicode="&#x1ea4;" horiz-adv-x="652" 
d="M288 948l110 141h110l-144 -141h-76zM172 748l154 168l153 -168h-80l-73 81l-73 -81h-81zM13 0l273 697h81l272 -697h-116l-57 161h-278l-59 -161h-116zM221 252h211l-106 291z" />
    <glyph glyph-name="uni1EAC" unicode="&#x1eac;" horiz-adv-x="652" 
d="M172 748l154 168l153 -168h-80l-73 81l-73 -81h-81zM13 0l273 697h81l272 -697h-116l-57 161h-278l-59 -161h-116zM221 252h211l-106 291zM273 -173v107h107v-107h-107z" />
    <glyph glyph-name="uni1EA6" unicode="&#x1ea6;" horiz-adv-x="652" 
d="M288 948l-136 141h109l104 -141h-77zM172 748l154 168l153 -168h-80l-73 81l-73 -81h-81zM13 0l273 697h81l272 -697h-116l-57 161h-278l-59 -161h-116zM221 252h211l-106 291z" />
    <glyph glyph-name="uni1EA8" unicode="&#x1ea8;" horiz-adv-x="652" 
d="M317 924l-12 43c32 5 67 9 67 45c0 37 -41 41 -80 41h-15v57h15c85 0 146 -34 146 -97c0 -69 -70 -80 -121 -89zM172 748l154 168l153 -168h-80l-73 81l-73 -81h-81zM13 0l273 697h81l272 -697h-116l-57 161h-278l-59 -161h-116zM221 252h211l-106 291z" />
    <glyph glyph-name="uni1EAA" unicode="&#x1eaa;" horiz-adv-x="652" 
d="M391 953c-79 0 -89 76 -132 76c-24 0 -38 -26 -38 -71h-59c0 86 39 135 101 134c72 1 87 -75 129 -75c20 0 36 26 36 72h61c0 -87 -38 -136 -98 -136zM172 748l154 168l153 -168h-80l-73 81l-73 -81h-81zM13 0l273 697h81l272 -697h-116l-57 161h-278l-59 -161h-116z
M221 252h211l-106 291z" />
    <glyph glyph-name="Adieresis" unicode="&#xc4;" horiz-adv-x="652" 
d="M188 793v108h86v-108h-86zM378 793v108h86v-108h-86zM13 0l273 697h81l272 -697h-116l-57 161h-278l-59 -161h-116zM221 252h211l-106 291z" />
    <glyph glyph-name="uni1EA0" unicode="&#x1ea0;" horiz-adv-x="652" 
d="M13 0l273 697h81l272 -697h-116l-57 161h-278l-59 -161h-116zM221 252h211l-106 291zM273 -173v107h107v-107h-107z" />
    <glyph glyph-name="Agrave" unicode="&#xc0;" horiz-adv-x="652" 
d="M288 760l-136 141h109l104 -141h-77zM13 0l273 697h81l272 -697h-116l-57 161h-278l-59 -161h-116zM221 252h211l-106 291z" />
    <glyph glyph-name="uni1EA2" unicode="&#x1ea2;" horiz-adv-x="652" 
d="M317 736l-12 43c32 5 67 9 67 45c0 37 -41 41 -80 41h-15v57h15c85 0 146 -34 146 -97c0 -69 -70 -80 -121 -89zM13 0l273 697h81l272 -697h-116l-57 161h-278l-59 -161h-116zM221 252h211l-106 291z" />
    <glyph glyph-name="Amacron" unicode="&#x100;" horiz-adv-x="652" 
d="M189 782v60h273v-60h-273zM13 0l273 697h81l272 -697h-116l-57 161h-278l-59 -161h-116zM221 252h211l-106 291z" />
    <glyph glyph-name="Aogonek" unicode="&#x104;" horiz-adv-x="652" 
d="M631 -128l51 -36c-24 -33 -57 -55 -102 -55c-60 0 -105 37 -105 95c0 60 47 103 82 124h-34l-57 161h-278l-59 -161h-116l273 697h81l272 -697c-19 -10 -102 -47 -102 -114c0 -31 18 -42 40 -42c21 0 39 10 54 28zM221 252h211l-106 291z" />
    <glyph glyph-name="Aring" unicode="&#xc5;" horiz-adv-x="652" 
d="M371 687l268 -687h-116l-57 161h-278l-59 -161h-116l269 688c-37 17 -63 55 -63 98c0 60 48 108 108 108c58 0 108 -47 108 -108c0 -43 -27 -82 -64 -99zM327 838c-32 0 -52 -21 -52 -51s22 -53 52 -53s52 23 52 53s-20 51 -52 51zM221 252h211l-106 291z" />
    <glyph glyph-name="Atilde" unicode="&#xc3;" horiz-adv-x="652" 
d="M391 765c-79 0 -89 76 -132 76c-24 0 -38 -26 -38 -71h-59c0 86 39 135 101 134c72 1 87 -75 129 -75c20 0 36 26 36 72h61c0 -87 -38 -136 -98 -136zM13 0l273 697h81l272 -697h-116l-57 161h-278l-59 -161h-116zM221 252h211l-106 291z" />
    <glyph glyph-name="AE" unicode="&#xc6;" horiz-adv-x="957" 
d="M13 0l272 697h621v-93h-357v-210h312v-90h-312v-208h357v-96h-464v158h-257l-56 -158h-116zM218 239h224v369h-92z" />
    <glyph glyph-name="B" unicode="B" horiz-adv-x="628" 
d="M95 0v697h233c137 0 216 -64 216 -175c0 -74 -37 -124 -83 -148c89 -28 119 -97 119 -173c0 -127 -82 -201 -225 -201h-260zM201 408h132c67 0 105 34 105 94c0 64 -40 98 -110 98h-127v-192zM201 98h146c81 0 128 39 128 113c0 95 -80 105 -121 105h-153v-218z" />
    <glyph glyph-name="C" unicode="C" horiz-adv-x="712" 
d="M377 -9c-223 0 -331 162 -331 358s107 358 333 358c157 0 255 -79 301 -195l-98 -38c-30 81 -95 132 -203 132c-157 0 -227 -108 -227 -256c0 -144 67 -258 225 -258c108 0 174 52 205 135l100 -37c-47 -118 -146 -199 -305 -199z" />
    <glyph glyph-name="Cacute" unicode="&#x106;" horiz-adv-x="712" 
d="M345 760l110 141h110l-144 -141h-76zM377 -9c-223 0 -331 162 -331 358s107 358 333 358c157 0 255 -79 301 -195l-98 -38c-30 81 -95 132 -203 132c-157 0 -227 -108 -227 -256c0 -144 67 -258 225 -258c108 0 174 52 205 135l100 -37c-47 -118 -146 -199 -305 -199z
" />
    <glyph glyph-name="Ccaron" unicode="&#x10c;" horiz-adv-x="712" 
d="M383 741l-153 160h80l73 -77l74 77h80zM377 -9c-223 0 -331 162 -331 358s107 358 333 358c157 0 255 -79 301 -195l-98 -38c-30 81 -95 132 -203 132c-157 0 -227 -108 -227 -256c0 -144 67 -258 225 -258c108 0 174 52 205 135l100 -37c-47 -118 -146 -199 -305 -199z
" />
    <glyph glyph-name="Ccedilla" unicode="&#xc7;" horiz-adv-x="712" 
d="M682 190c-44 -110 -133 -188 -275 -198l-33 -47c21 -3 39 -9 55 -17c30 -16 47 -43 47 -78c0 -61 -45 -107 -109 -107c-27 0 -61 10 -87 37l33 49c19 -20 40 -27 56 -27c29 0 47 18 47 46c0 30 -25 46 -54 52c-20 3 -44 5 -68 5l53 87c-203 14 -301 170 -301 357
c0 196 107 358 333 358c157 0 255 -79 301 -195l-98 -38c-30 81 -95 132 -203 132c-157 0 -227 -108 -227 -256c0 -144 67 -258 225 -258c108 0 174 52 205 135z" />
    <glyph glyph-name="Cdotaccent" unicode="&#x10a;" horiz-adv-x="712" 
d="M329 793v108h107v-108h-107zM377 -9c-223 0 -331 162 -331 358s107 358 333 358c157 0 255 -79 301 -195l-98 -38c-30 81 -95 132 -203 132c-157 0 -227 -108 -227 -256c0 -144 67 -258 225 -258c108 0 174 52 205 135l100 -37c-47 -118 -146 -199 -305 -199z" />
    <glyph glyph-name="D" unicode="D" horiz-adv-x="699" 
d="M95 0v697h197c235 0 361 -127 361 -354c0 -217 -130 -343 -362 -343h-196zM201 98h80c164 0 265 70 265 249c0 176 -76 253 -255 253h-90v-502z" />
    <glyph glyph-name="Eth" unicode="&#xd0;" horiz-adv-x="699" 
d="M292 697c235 0 361 -127 361 -354c0 -217 -130 -343 -362 -343h-196v315h-77v69h77v313h197zM281 98c164 0 265 70 265 249c0 176 -76 253 -255 253h-90v-216h121v-69h-121v-217h80z" />
    <glyph glyph-name="Dcaron" unicode="&#x10e;" horiz-adv-x="699" 
d="M350 741l-153 160h80l73 -77l74 77h80zM95 0v697h197c235 0 361 -127 361 -354c0 -217 -130 -343 -362 -343h-196zM201 98h80c164 0 265 70 265 249c0 176 -76 253 -255 253h-90v-502z" />
    <glyph glyph-name="Dcroat" unicode="&#x110;" horiz-adv-x="699" 
d="M292 697c235 0 361 -127 361 -354c0 -217 -130 -343 -362 -343h-196v315h-77v69h77v313h197zM281 98c164 0 265 70 265 249c0 176 -76 253 -255 253h-90v-216h121v-69h-121v-217h80z" />
    <glyph glyph-name="E" unicode="E" horiz-adv-x="615" 
d="M95 0v697h461v-97h-355v-194h326v-97h-326v-211h355v-98h-461z" />
    <glyph glyph-name="Eacute" unicode="&#xc9;" horiz-adv-x="615" 
d="M288 760l110 141h110l-144 -141h-76zM95 0v697h461v-97h-355v-194h326v-97h-326v-211h355v-98h-461z" />
    <glyph glyph-name="Ecaron" unicode="&#x11a;" horiz-adv-x="615" 
d="M325 741l-153 160h80l73 -77l74 77h80zM95 0v697h461v-97h-355v-194h326v-97h-326v-211h355v-98h-461z" />
    <glyph glyph-name="Ecircumflex" unicode="&#xca;" horiz-adv-x="615" 
d="M172 748l154 168l153 -168h-80l-73 81l-73 -81h-81zM95 0v697h461v-97h-355v-194h326v-97h-326v-211h355v-98h-461z" />
    <glyph glyph-name="uni1EBE" unicode="&#x1ebe;" horiz-adv-x="615" 
d="M288 948l110 141h110l-144 -141h-76zM172 748l154 168l153 -168h-80l-73 81l-73 -81h-81zM95 0v697h461v-97h-355v-194h326v-97h-326v-211h355v-98h-461z" />
    <glyph glyph-name="uni1EC6" unicode="&#x1ec6;" horiz-adv-x="615" 
d="M172 748l154 168l153 -168h-80l-73 81l-73 -81h-81zM95 0v697h461v-97h-355v-194h326v-97h-326v-211h355v-98h-461zM272 -173v107h107v-107h-107z" />
    <glyph glyph-name="uni1EC0" unicode="&#x1ec0;" horiz-adv-x="615" 
d="M287 948l-136 141h109l104 -141h-77zM172 748l154 168l153 -168h-80l-73 81l-73 -81h-81zM95 0v697h461v-97h-355v-194h326v-97h-326v-211h355v-98h-461z" />
    <glyph glyph-name="uni1EC2" unicode="&#x1ec2;" horiz-adv-x="615" 
d="M316 924l-12 43c32 5 67 9 67 45c0 37 -41 41 -80 41h-15v57h15c85 0 146 -34 146 -97c0 -69 -70 -80 -121 -89zM172 748l154 168l153 -168h-80l-73 81l-73 -81h-81zM95 0v697h461v-97h-355v-194h326v-97h-326v-211h355v-98h-461z" />
    <glyph glyph-name="uni1EC4" unicode="&#x1ec4;" horiz-adv-x="615" 
d="M391 953c-79 0 -89 76 -132 76c-24 0 -38 -26 -38 -71h-59c0 86 39 135 101 134c72 1 87 -75 129 -75c20 0 36 26 36 72h61c0 -87 -38 -136 -98 -136zM172 748l154 168l153 -168h-80l-73 81l-73 -81h-81zM95 0v697h461v-97h-355v-194h326v-97h-326v-211h355v-98h-461z
" />
    <glyph glyph-name="Edieresis" unicode="&#xcb;" horiz-adv-x="615" 
d="M187 793v108h86v-108h-86zM377 793v108h86v-108h-86zM95 0v697h461v-97h-355v-194h326v-97h-326v-211h355v-98h-461z" />
    <glyph glyph-name="Edotaccent" unicode="&#x116;" horiz-adv-x="615" 
d="M272 793v108h107v-108h-107zM95 0v697h461v-97h-355v-194h326v-97h-326v-211h355v-98h-461z" />
    <glyph glyph-name="uni1EB8" unicode="&#x1eb8;" horiz-adv-x="615" 
d="M95 0v697h461v-97h-355v-194h326v-97h-326v-211h355v-98h-461zM272 -173v107h107v-107h-107z" />
    <glyph glyph-name="Egrave" unicode="&#xc8;" horiz-adv-x="615" 
d="M287 760l-136 141h109l104 -141h-77zM95 0v697h461v-97h-355v-194h326v-97h-326v-211h355v-98h-461z" />
    <glyph glyph-name="uni1EBA" unicode="&#x1eba;" horiz-adv-x="615" 
d="M316 736l-12 43c32 5 67 9 67 45c0 37 -41 41 -80 41h-15v57h15c85 0 146 -34 146 -97c0 -69 -70 -80 -121 -89zM95 0v697h461v-97h-355v-194h326v-97h-326v-211h355v-98h-461z" />
    <glyph glyph-name="Emacron" unicode="&#x112;" horiz-adv-x="615" 
d="M189 782v60h273v-60h-273zM95 0v697h461v-97h-355v-194h326v-97h-326v-211h355v-98h-461z" />
    <glyph glyph-name="Eogonek" unicode="&#x118;" horiz-adv-x="615" 
d="M548 -128l51 -36c-24 -33 -57 -55 -102 -55c-60 0 -105 37 -105 95c0 60 47 103 82 124h-379v697h461v-97h-355v-194h326v-97h-326v-211h355v-98c-19 -10 -102 -47 -102 -114c0 -31 18 -42 40 -42c21 0 39 10 54 28z" />
    <glyph glyph-name="uni1EBC" unicode="&#x1ebc;" horiz-adv-x="615" 
d="M391 765c-79 0 -89 76 -132 76c-24 0 -38 -26 -38 -71h-59c0 86 39 135 101 134c72 1 87 -75 129 -75c20 0 36 26 36 72h61c0 -87 -38 -136 -98 -136zM95 0v697h461v-97h-355v-194h326v-97h-326v-211h355v-98h-461z" />
    <glyph glyph-name="F" unicode="F" horiz-adv-x="609" 
d="M95 0v697h486v-97h-380v-194h334v-97h-334v-309h-106z" />
    <glyph glyph-name="G" unicode="G" horiz-adv-x="755" 
d="M377 -9c-223 0 -331 162 -331 358s108 358 333 358c157 0 255 -79 301 -195l-98 -38c-30 81 -95 132 -203 132c-157 0 -227 -109 -227 -252c0 -149 67 -262 225 -262c115 0 202 59 202 188l3 5h-162v86h266v-371h-84l-9 113c-36 -77 -118 -122 -216 -122z" />
    <glyph glyph-name="Gbreve" unicode="&#x11e;" horiz-adv-x="755" 
d="M377 769c-106 0 -154 47 -154 132h72c0 -49 35 -72 82 -72c49 0 81 25 81 72h73c0 -89 -53 -132 -154 -132zM377 -9c-223 0 -331 162 -331 358s108 358 333 358c157 0 255 -79 301 -195l-98 -38c-30 81 -95 132 -203 132c-157 0 -227 -109 -227 -252
c0 -149 67 -262 225 -262c115 0 202 59 202 188l3 5h-162v86h266v-371h-84l-9 113c-36 -77 -118 -122 -216 -122z" />
    <glyph glyph-name="uni0122" unicode="&#x122;" horiz-adv-x="755" 
d="M377 -9c-223 0 -331 162 -331 358s108 358 333 358c157 0 255 -79 301 -195l-98 -38c-30 81 -95 132 -203 132c-157 0 -227 -109 -227 -252c0 -149 67 -262 225 -262c115 0 202 59 202 188l3 5h-162v86h266v-371h-84l-9 113c-36 -77 -118 -122 -216 -122zM249 -224
l74 170h107l-121 -170h-60z" />
    <glyph glyph-name="Gdotaccent" unicode="&#x120;" horiz-adv-x="755" 
d="M323 793v108h107v-108h-107zM377 -9c-223 0 -331 162 -331 358s108 358 333 358c157 0 255 -79 301 -195l-98 -38c-30 81 -95 132 -203 132c-157 0 -227 -109 -227 -252c0 -149 67 -262 225 -262c115 0 202 59 202 188l3 5h-162v86h266v-371h-84l-9 113
c-36 -77 -118 -122 -216 -122z" />
    <glyph glyph-name="H" unicode="H" horiz-adv-x="727" 
d="M95 0v697h106v-291h325v291h106v-697h-106v309h-325v-309h-106z" />
    <glyph glyph-name="Hbar" unicode="&#x126;" horiz-adv-x="727" 
d="M689 590v-61h-57v-529h-106v309h-325v-309h-106v529h-55v61h55v107h106v-107h325v107h106v-107h57zM526 406v123h-325v-123h325z" />
    <glyph glyph-name="I" unicode="I" horiz-adv-x="296" 
d="M95 0v697h106v-697h-106z" />
    <glyph glyph-name="Iacute" unicode="&#xcd;" horiz-adv-x="296" 
d="M110 760l110 141h110l-144 -141h-76zM95 0v697h106v-697h-106z" />
    <glyph glyph-name="uni01CF" unicode="&#x1cf;" horiz-adv-x="296" 
d="M148 741l-153 160h80l73 -77l74 77h80zM95 0v697h106v-697h-106z" />
    <glyph glyph-name="Icircumflex" unicode="&#xce;" horiz-adv-x="296" 
d="M-6 748l154 168l153 -168h-80l-73 81l-73 -81h-81zM95 0v697h106v-697h-106z" />
    <glyph glyph-name="Idieresis" unicode="&#xcf;" horiz-adv-x="296" 
d="M10 793v108h86v-108h-86zM200 793v108h86v-108h-86zM95 0v697h106v-697h-106z" />
    <glyph glyph-name="Idotaccent" unicode="&#x130;" horiz-adv-x="296" 
d="M95 793v108h107v-108h-107zM95 0v697h106v-697h-106z" />
    <glyph glyph-name="uni1ECA" unicode="&#x1eca;" horiz-adv-x="296" 
d="M95 0v697h106v-697h-106zM95 -173v107h107v-107h-107z" />
    <glyph glyph-name="Igrave" unicode="&#xcc;" horiz-adv-x="296" 
d="M110 760l-136 141h109l104 -141h-77zM95 0v697h106v-697h-106z" />
    <glyph glyph-name="uni1EC8" unicode="&#x1ec8;" horiz-adv-x="296" 
d="M139 736l-12 43c32 5 67 9 67 45c0 37 -41 41 -80 41h-15v57h15c85 0 146 -34 146 -97c0 -69 -70 -80 -121 -89zM95 0v697h106v-697h-106z" />
    <glyph glyph-name="Imacron" unicode="&#x12a;" horiz-adv-x="296" 
d="M11 782v60h273v-60h-273zM95 0v697h106v-697h-106z" />
    <glyph glyph-name="Iogonek" unicode="&#x12e;" horiz-adv-x="296" 
d="M192 -128l51 -36c-24 -33 -57 -55 -102 -55c-60 0 -105 37 -105 95c0 60 47 103 82 124h-23v697h106v-697h-1c-19 -10 -102 -47 -102 -114c0 -31 18 -42 40 -42c21 0 39 10 54 28z" />
    <glyph glyph-name="Itilde" unicode="&#x128;" horiz-adv-x="296" 
d="M213 765c-79 0 -89 76 -132 76c-24 0 -38 -26 -38 -71h-59c0 86 39 135 101 134c72 1 87 -75 129 -75c20 0 36 26 36 72h61c0 -87 -38 -136 -98 -136zM95 0v697h106v-697h-106z" />
    <glyph glyph-name="J" unicode="J" horiz-adv-x="564" 
d="M252 -9c-139 0 -222 99 -231 222l104 11c6 -75 46 -135 127 -135c97 0 124 58 124 161v350h-270v97h376v-452c0 -145 -66 -254 -230 -254z" />
    <glyph glyph-name="K" unicode="K" horiz-adv-x="702" 
d="M687 0h-123l-214 364l-149 -152v-212h-106v697h106v-352l337 352h139l-256 -260z" />
    <glyph glyph-name="uni0136" unicode="&#x136;" horiz-adv-x="702" 
d="M421 437l266 -437h-123l-214 364l-149 -152v-212h-106v697h106v-352l337 352h139zM223 -224l74 170h107l-121 -170h-60z" />
    <glyph glyph-name="L" unicode="L" horiz-adv-x="522" 
d="M95 0v697h106v-599h305v-98h-411z" />
    <glyph glyph-name="Lacute" unicode="&#x139;" horiz-adv-x="522" 
d="M110 760l110 141h110l-144 -141h-76zM95 0v697h106v-599h305v-98h-411z" />
    <glyph glyph-name="Lcaron" unicode="&#x13d;" horiz-adv-x="522" 
d="M95 0v697h106v-599h305v-98h-411zM345 479l57 218h107l-104 -218h-60z" />
    <glyph glyph-name="uni013B" unicode="&#x13b;" horiz-adv-x="522" 
d="M95 0v697h106v-599h305v-98h-411zM166 -224l74 170h107l-121 -170h-60z" />
    <glyph glyph-name="Lslash" unicode="&#x141;" horiz-adv-x="522" 
d="M201 98h305v-98h-411v226l-64 -51v105l64 51v366h106v-283l124 98v-104l-124 -98v-212z" />
    <glyph glyph-name="M" unicode="M" horiz-adv-x="888" 
d="M641 697h152v-697h-106v550l-192 -490h-102l-192 490v-550h-106v697h152l197 -514z" />
    <glyph glyph-name="N" unicode="N" horiz-adv-x="717" 
d="M517 697h105v-697h-111l-310 509v-509h-106v697h110l312 -508v508z" />
    <glyph glyph-name="Nacute" unicode="&#x143;" horiz-adv-x="717" 
d="M541 901l-144 -141h-76l110 141h110zM517 697h105v-697h-111l-310 509v-509h-106v697h110l312 -508v508z" />
    <glyph glyph-name="Ncaron" unicode="&#x147;" horiz-adv-x="717" 
d="M513 901l-154 -160l-153 160h80l73 -77l74 77h80zM517 697h105v-697h-111l-310 509v-509h-106v697h110l312 -508v508z" />
    <glyph glyph-name="uni0145" unicode="&#x145;" horiz-adv-x="717" 
d="M517 697h105v-697h-111l-310 509v-509h-106v697h110l312 -508v508zM231 -224l74 170h107l-121 -170h-60z" />
    <glyph glyph-name="Eng" unicode="&#x14a;" horiz-adv-x="718" 
d="M517 697h105v-702c0 -91 -43 -173 -162 -173c-20 0 -45 2 -70 8v67c15 -3 31 -5 43 -5c62 0 89 33 89 70c0 13 -5 26 -11 38l-310 511v-511h-106v697h110l312 -511v511z" />
    <glyph glyph-name="Ntilde" unicode="&#xd1;" horiz-adv-x="717" 
d="M292 841c-24 0 -38 -26 -38 -71h-59c0 86 39 135 101 134c72 1 87 -75 129 -75c20 0 36 26 36 72h61c0 -87 -38 -136 -98 -136c-79 0 -89 76 -132 76zM517 697h105v-697h-111l-310 509v-509h-106v697h110l312 -508v508z" />
    <glyph glyph-name="O" unicode="O" horiz-adv-x="748" 
d="M374 -9c-218 0 -328 168 -328 357c0 190 110 358 328 358s328 -168 328 -358c0 -189 -110 -357 -328 -357zM374 92c149 0 222 116 222 256c0 141 -73 257 -222 257c-150 0 -222 -116 -222 -257c0 -140 72 -256 222 -256z" />
    <glyph glyph-name="Oacute" unicode="&#xd3;" horiz-adv-x="748" 
d="M336 760l110 141h110l-144 -141h-76zM374 -9c-218 0 -328 168 -328 357c0 190 110 358 328 358s328 -168 328 -358c0 -189 -110 -357 -328 -357zM374 92c149 0 222 116 222 256c0 141 -73 257 -222 257c-150 0 -222 -116 -222 -257c0 -140 72 -256 222 -256z" />
    <glyph glyph-name="uni01D1" unicode="&#x1d1;" horiz-adv-x="748" 
d="M374 741l-153 160h80l73 -77l74 77h80zM374 -9c-218 0 -328 168 -328 357c0 190 110 358 328 358s328 -168 328 -358c0 -189 -110 -357 -328 -357zM374 92c149 0 222 116 222 256c0 141 -73 257 -222 257c-150 0 -222 -116 -222 -257c0 -140 72 -256 222 -256z" />
    <glyph glyph-name="Ocircumflex" unicode="&#xd4;" horiz-adv-x="748" 
d="M220 748l154 168l153 -168h-80l-73 81l-73 -81h-81zM374 -9c-218 0 -328 168 -328 357c0 190 110 358 328 358s328 -168 328 -358c0 -189 -110 -357 -328 -357zM374 92c149 0 222 116 222 256c0 141 -73 257 -222 257c-150 0 -222 -116 -222 -257
c0 -140 72 -256 222 -256z" />
    <glyph glyph-name="uni1ED0" unicode="&#x1ed0;" horiz-adv-x="748" 
d="M336 948l110 141h110l-144 -141h-76zM220 748l154 168l153 -168h-80l-73 81l-73 -81h-81zM374 -9c-218 0 -328 168 -328 357c0 190 110 358 328 358s328 -168 328 -358c0 -189 -110 -357 -328 -357zM374 92c149 0 222 116 222 256c0 141 -73 257 -222 257
c-150 0 -222 -116 -222 -257c0 -140 72 -256 222 -256z" />
    <glyph glyph-name="uni1ED8" unicode="&#x1ed8;" horiz-adv-x="748" 
d="M220 748l154 168l153 -168h-80l-73 81l-73 -81h-81zM374 -9c-218 0 -328 168 -328 357c0 190 110 358 328 358s328 -168 328 -358c0 -189 -110 -357 -328 -357zM374 92c149 0 222 116 222 256c0 141 -73 257 -222 257c-150 0 -222 -116 -222 -257
c0 -140 72 -256 222 -256zM320 -173v107h107v-107h-107z" />
    <glyph glyph-name="uni1ED2" unicode="&#x1ed2;" horiz-adv-x="748" 
d="M336 948l-136 141h109l104 -141h-77zM220 748l154 168l153 -168h-80l-73 81l-73 -81h-81zM374 -9c-218 0 -328 168 -328 357c0 190 110 358 328 358s328 -168 328 -358c0 -189 -110 -357 -328 -357zM374 92c149 0 222 116 222 256c0 141 -73 257 -222 257
c-150 0 -222 -116 -222 -257c0 -140 72 -256 222 -256z" />
    <glyph glyph-name="uni1ED4" unicode="&#x1ed4;" horiz-adv-x="748" 
d="M365 924l-12 43c32 5 67 9 67 45c0 37 -41 41 -80 41h-15v57h15c85 0 146 -34 146 -97c0 -69 -70 -80 -121 -89zM220 748l154 168l153 -168h-80l-73 81l-73 -81h-81zM374 -9c-218 0 -328 168 -328 357c0 190 110 358 328 358s328 -168 328 -358
c0 -189 -110 -357 -328 -357zM374 92c149 0 222 116 222 256c0 141 -73 257 -222 257c-150 0 -222 -116 -222 -257c0 -140 72 -256 222 -256z" />
    <glyph glyph-name="uni1ED6" unicode="&#x1ed6;" horiz-adv-x="748" 
d="M439 953c-79 0 -89 76 -132 76c-24 0 -38 -26 -38 -71h-59c0 86 39 135 101 134c72 1 87 -75 129 -75c20 0 36 26 36 72h61c0 -87 -38 -136 -98 -136zM220 748l154 168l153 -168h-80l-73 81l-73 -81h-81zM374 -9c-218 0 -328 168 -328 357c0 190 110 358 328 358
s328 -168 328 -358c0 -189 -110 -357 -328 -357zM374 92c149 0 222 116 222 256c0 141 -73 257 -222 257c-150 0 -222 -116 -222 -257c0 -140 72 -256 222 -256z" />
    <glyph glyph-name="Odieresis" unicode="&#xd6;" horiz-adv-x="748" 
d="M236 793v108h86v-108h-86zM426 793v108h86v-108h-86zM374 -9c-218 0 -328 168 -328 357c0 190 110 358 328 358s328 -168 328 -358c0 -189 -110 -357 -328 -357zM374 92c149 0 222 116 222 256c0 141 -73 257 -222 257c-150 0 -222 -116 -222 -257
c0 -140 72 -256 222 -256z" />
    <glyph glyph-name="uni1ECC" unicode="&#x1ecc;" horiz-adv-x="748" 
d="M374 -9c-218 0 -328 168 -328 357c0 190 110 358 328 358s328 -168 328 -358c0 -189 -110 -357 -328 -357zM374 92c149 0 222 116 222 256c0 141 -73 257 -222 257c-150 0 -222 -116 -222 -257c0 -140 72 -256 222 -256zM320 -173v107h107v-107h-107z" />
    <glyph glyph-name="Ograve" unicode="&#xd2;" horiz-adv-x="748" 
d="M336 760l-136 141h109l104 -141h-77zM374 -9c-218 0 -328 168 -328 357c0 190 110 358 328 358s328 -168 328 -358c0 -189 -110 -357 -328 -357zM374 92c149 0 222 116 222 256c0 141 -73 257 -222 257c-150 0 -222 -116 -222 -257c0 -140 72 -256 222 -256z" />
    <glyph glyph-name="uni1ECE" unicode="&#x1ece;" horiz-adv-x="748" 
d="M365 736l-12 43c32 5 67 9 67 45c0 37 -41 41 -80 41h-15v57h15c85 0 146 -34 146 -97c0 -69 -70 -80 -121 -89zM374 -9c-218 0 -328 168 -328 357c0 190 110 358 328 358s328 -168 328 -358c0 -189 -110 -357 -328 -357zM374 92c149 0 222 116 222 256
c0 141 -73 257 -222 257c-150 0 -222 -116 -222 -257c0 -140 72 -256 222 -256z" />
    <glyph glyph-name="Ohorn" unicode="&#x1a0;" horiz-adv-x="748" 
d="M689 697h77v-42c0 -72 -27 -131 -91 -152c18 -48 27 -101 27 -155c0 -189 -110 -357 -328 -357s-328 168 -328 357c0 190 110 358 328 358c126 0 216 -56 269 -140c36 11 46 47 46 81v50zM374 92c149 0 222 116 222 256c0 141 -73 257 -222 257
c-150 0 -222 -116 -222 -257c0 -140 72 -256 222 -256z" />
    <glyph glyph-name="uni1EDA" unicode="&#x1eda;" horiz-adv-x="748" 
d="M556 901l-144 -141h-76l110 141h110zM689 697h77v-42c0 -72 -27 -131 -91 -152c18 -48 27 -101 27 -155c0 -189 -110 -357 -328 -357s-328 168 -328 357c0 190 110 358 328 358c126 0 216 -56 269 -140c36 11 46 47 46 81v50zM374 92c149 0 222 116 222 256
c0 141 -73 257 -222 257c-150 0 -222 -116 -222 -257c0 -140 72 -256 222 -256z" />
    <glyph glyph-name="uni1EE2" unicode="&#x1ee2;" horiz-adv-x="748" 
d="M689 697h77v-42c0 -72 -27 -131 -91 -152c18 -48 27 -101 27 -155c0 -189 -110 -357 -328 -357s-328 168 -328 357c0 190 110 358 328 358c126 0 216 -56 269 -140c36 11 46 47 46 81v50zM374 92c149 0 222 116 222 256c0 141 -73 257 -222 257
c-150 0 -222 -116 -222 -257c0 -140 72 -256 222 -256zM320 -173v107h107v-107h-107z" />
    <glyph glyph-name="uni1EDC" unicode="&#x1edc;" horiz-adv-x="748" 
d="M413 760h-77l-136 141h109zM689 697h77v-42c0 -72 -27 -131 -91 -152c18 -48 27 -101 27 -155c0 -189 -110 -357 -328 -357s-328 168 -328 357c0 190 110 358 328 358c126 0 216 -56 269 -140c36 11 46 47 46 81v50zM374 92c149 0 222 116 222 256
c0 141 -73 257 -222 257c-150 0 -222 -116 -222 -257c0 -140 72 -256 222 -256z" />
    <glyph glyph-name="uni1EDE" unicode="&#x1ede;" horiz-adv-x="748" 
d="M420 824c0 37 -41 41 -80 41h-15v57h15c85 0 146 -34 146 -97c0 -69 -70 -80 -121 -89l-12 43c32 5 67 9 67 45zM689 697h77v-42c0 -72 -27 -131 -91 -152c18 -48 27 -101 27 -155c0 -189 -110 -357 -328 -357s-328 168 -328 357c0 190 110 358 328 358
c126 0 216 -56 269 -140c36 11 46 47 46 81v50zM374 92c149 0 222 116 222 256c0 141 -73 257 -222 257c-150 0 -222 -116 -222 -257c0 -140 72 -256 222 -256z" />
    <glyph glyph-name="uni1EE0" unicode="&#x1ee0;" horiz-adv-x="748" 
d="M307 841c-24 0 -38 -26 -38 -71h-59c0 86 39 135 101 134c72 1 87 -75 129 -75c20 0 36 26 36 72h61c0 -87 -38 -136 -98 -136c-79 0 -89 76 -132 76zM689 697h77v-42c0 -72 -27 -131 -91 -152c18 -48 27 -101 27 -155c0 -189 -110 -357 -328 -357s-328 168 -328 357
c0 190 110 358 328 358c126 0 216 -56 269 -140c36 11 46 47 46 81v50zM374 92c149 0 222 116 222 256c0 141 -73 257 -222 257c-150 0 -222 -116 -222 -257c0 -140 72 -256 222 -256z" />
    <glyph glyph-name="Ohungarumlaut" unicode="&#x150;" horiz-adv-x="748" 
d="M244 742l110 159h92l-126 -159h-76zM429 742l109 159h109l-143 -159h-75zM374 -9c-218 0 -328 168 -328 357c0 190 110 358 328 358s328 -168 328 -358c0 -189 -110 -357 -328 -357zM374 92c149 0 222 116 222 256c0 141 -73 257 -222 257c-150 0 -222 -116 -222 -257
c0 -140 72 -256 222 -256z" />
    <glyph glyph-name="Omacron" unicode="&#x14c;" horiz-adv-x="748" 
d="M237 782v60h273v-60h-273zM374 -9c-218 0 -328 168 -328 357c0 190 110 358 328 358s328 -168 328 -358c0 -189 -110 -357 -328 -357zM374 92c149 0 222 116 222 256c0 141 -73 257 -222 257c-150 0 -222 -116 -222 -257c0 -140 72 -256 222 -256z" />
    <glyph glyph-name="Oslash" unicode="&#xd8;" horiz-adv-x="748" 
d="M586 632c77 -66 116 -171 116 -284c0 -189 -110 -357 -328 -357c-61 0 -113 13 -157 36l-17 -27h-77l39 64c-77 67 -116 172 -116 284c0 190 110 358 328 358c61 0 114 -13 158 -37l17 28h77zM152 348c0 -77 22 -146 66 -193l260 426c-29 16 -64 24 -104 24
c-150 0 -222 -116 -222 -257zM374 92c149 0 222 116 222 256c0 77 -22 146 -65 193l-261 -426c29 -15 64 -23 104 -23z" />
    <glyph glyph-name="Otilde" unicode="&#xd5;" horiz-adv-x="748" 
d="M439 765c-79 0 -89 76 -132 76c-24 0 -38 -26 -38 -71h-59c0 86 39 135 101 134c72 1 87 -75 129 -75c20 0 36 26 36 72h61c0 -87 -38 -136 -98 -136zM374 -9c-218 0 -328 168 -328 357c0 190 110 358 328 358s328 -168 328 -358c0 -189 -110 -357 -328 -357zM374 92
c149 0 222 116 222 256c0 141 -73 257 -222 257c-150 0 -222 -116 -222 -257c0 -140 72 -256 222 -256z" />
    <glyph glyph-name="OE" unicode="&#x152;" horiz-adv-x="1118" 
d="M1059 600h-355v-194h326v-97h-326v-211h355v-98h-461v75c-54 -52 -129 -84 -224 -84c-218 0 -328 168 -328 357c0 190 110 358 328 358c95 0 170 -32 224 -84v75h461v-97zM374 92c149 0 222 116 222 256c0 141 -73 257 -222 257c-150 0 -222 -116 -222 -257
c0 -140 72 -256 222 -256z" />
    <glyph glyph-name="P" unicode="P" horiz-adv-x="576" 
d="M95 0v697h217c162 0 235 -75 235 -199c0 -133 -84 -204 -235 -204h-112v-294h-105zM200 392h102c90 0 139 29 139 104c0 76 -50 104 -139 104h-102v-208z" />
    <glyph glyph-name="Thorn" unicode="&#xde;" horiz-adv-x="567" 
d="M95 0v697h97v-97h130c142 0 216 -77 216 -196c0 -137 -98 -205 -238 -205h-108v-199h-97zM192 288h108c95 0 141 39 141 113c0 73 -46 115 -141 115h-108v-228z" />
    <glyph glyph-name="Q" unicode="Q" horiz-adv-x="775" 
d="M667 -54l-100 100c-51 -35 -114 -55 -190 -55c-226 0 -331 168 -331 357c0 190 105 358 331 358s331 -169 331 -359c0 -91 -25 -178 -73 -240l100 -96zM377 91c47 0 85 11 115 29l-103 95l69 63l101 -94c30 46 43 102 43 164c0 141 -67 258 -225 258s-224 -117 -224 -258
c0 -140 66 -257 224 -257z" />
    <glyph glyph-name="R" unicode="R" horiz-adv-x="621" 
d="M602 0h-123l-171 296h-44h-64v-296h-105v697h217c162 0 235 -74 235 -198c0 -101 -47 -164 -135 -190zM200 394h102c90 0 139 28 139 103c0 76 -50 103 -139 103h-102v-206z" />
    <glyph glyph-name="Racute" unicode="&#x154;" horiz-adv-x="621" 
d="M493 901l-144 -141h-76l110 141h110zM602 0h-123l-171 296h-44h-64v-296h-105v697h217c162 0 235 -74 235 -198c0 -101 -47 -164 -135 -190zM200 394h102c90 0 139 28 139 103c0 76 -50 103 -139 103h-102v-206z" />
    <glyph glyph-name="Rcaron" unicode="&#x158;" horiz-adv-x="621" 
d="M464 901l-154 -160l-153 160h80l73 -77l74 77h80zM602 0h-123l-171 296h-44h-64v-296h-105v697h217c162 0 235 -74 235 -198c0 -101 -47 -164 -135 -190zM200 394h102c90 0 139 28 139 103c0 76 -50 103 -139 103h-102v-206z" />
    <glyph glyph-name="uni0156" unicode="&#x156;" horiz-adv-x="621" 
d="M412 309l190 -309h-123l-171 296h-44h-64v-296h-105v697h217c162 0 235 -74 235 -198c0 -101 -47 -164 -135 -190zM200 394h102c90 0 139 28 139 103c0 76 -50 103 -139 103h-102v-206zM183 -224l74 170h107l-121 -170h-60z" />
    <glyph glyph-name="S" unicode="S" horiz-adv-x="559" 
d="M288 -8c-122 0 -237 69 -259 201l105 26c11 -90 75 -132 156 -132s128 45 128 103c0 72 -71 100 -149 130c-92 36 -195 76 -195 199c0 118 96 187 211 187c85 0 161 -36 207 -118l-88 -55c-27 52 -71 79 -123 79c-57 0 -101 -36 -101 -88c0 -64 69 -89 145 -118
c94 -37 199 -79 199 -207c0 -127 -105 -207 -236 -207z" />
    <glyph glyph-name="Sacute" unicode="&#x15a;" horiz-adv-x="559" 
d="M242 760l110 141h110l-144 -141h-76zM288 -8c-122 0 -237 69 -259 201l105 26c11 -90 75 -132 156 -132s128 45 128 103c0 72 -71 100 -149 130c-92 36 -195 76 -195 199c0 118 96 187 211 187c85 0 161 -36 207 -118l-88 -55c-27 52 -71 79 -123 79
c-57 0 -101 -36 -101 -88c0 -64 69 -89 145 -118c94 -37 199 -79 199 -207c0 -127 -105 -207 -236 -207z" />
    <glyph glyph-name="Scaron" unicode="&#x160;" horiz-adv-x="559" 
d="M280 741l-153 160h80l73 -77l74 77h80zM288 -8c-122 0 -237 69 -259 201l105 26c11 -90 75 -132 156 -132s128 45 128 103c0 72 -71 100 -149 130c-92 36 -195 76 -195 199c0 118 96 187 211 187c85 0 161 -36 207 -118l-88 -55c-27 52 -71 79 -123 79
c-57 0 -101 -36 -101 -88c0 -64 69 -89 145 -118c94 -37 199 -79 199 -207c0 -127 -105 -207 -236 -207z" />
    <glyph glyph-name="Scedilla" unicode="&#x15e;" horiz-adv-x="559" 
d="M524 199c0 -122 -96 -200 -219 -207l-34 -47c21 -3 39 -9 55 -17c30 -16 47 -43 47 -78c0 -61 -45 -107 -109 -107c-27 0 -61 10 -87 37l33 49c19 -20 40 -27 56 -27c29 0 47 18 47 46c0 30 -25 46 -54 52c-20 3 -44 5 -68 5l55 90c-106 14 -198 81 -217 198l105 26
c11 -90 75 -132 156 -132s128 45 128 103c0 72 -71 100 -149 130c-92 36 -195 76 -195 199c0 118 96 187 211 187c85 0 161 -36 207 -118l-88 -55c-27 52 -71 79 -123 79c-57 0 -101 -36 -101 -88c0 -64 69 -89 145 -118c94 -37 199 -79 199 -207z" />
    <glyph glyph-name="uni0218" unicode="&#x218;" horiz-adv-x="559" 
d="M288 -8c-122 0 -237 69 -259 201l105 26c11 -90 75 -132 156 -132s128 45 128 103c0 72 -71 100 -149 130c-92 36 -195 76 -195 199c0 118 96 187 211 187c85 0 161 -36 207 -118l-88 -55c-27 52 -71 79 -123 79c-57 0 -101 -36 -101 -88c0 -64 69 -89 145 -118
c94 -37 199 -79 199 -207c0 -127 -105 -207 -236 -207zM152 -224l74 170h107l-121 -170h-60z" />
    <glyph glyph-name="uni1E9E" unicode="&#x1e9e;" horiz-adv-x="684" 
d="M460 -9c-102 0 -189 60 -213 135l90 47c20 -45 57 -84 126 -84c45 0 73 21 73 56c0 100 -251 35 -251 209c0 47 30 85 58 120l104 121h-115c-113 0 -146 -59 -146 -163v-432h-106v432c0 116 26 265 252 265h277v-59l-193 -226c-11 -14 -24 -31 -24 -50
c0 -84 260 -29 260 -212c0 -109 -98 -159 -192 -159z" />
    <glyph glyph-name="T" unicode="T" horiz-adv-x="589" 
d="M241 0v600h-226v97h559v-97h-226v-600h-107z" />
    <glyph glyph-name="Tbar" unicode="&#x166;" horiz-adv-x="589" 
d="M574 600h-226v-216h99v-69h-99v-315h-107v315h-98v69h98v216h-226v97h559v-97z" />
    <glyph glyph-name="Tcaron" unicode="&#x164;" horiz-adv-x="589" 
d="M294 741l-153 160h80l73 -77l74 77h80zM241 0v600h-226v97h559v-97h-226v-600h-107z" />
    <glyph glyph-name="uni0162" unicode="&#x162;" horiz-adv-x="589" 
d="M348 0h-23l-39 -55c21 -3 39 -9 55 -17c30 -16 47 -43 47 -78c0 -61 -45 -107 -109 -107c-27 0 -61 10 -87 37l33 49c19 -20 40 -27 56 -27c29 0 47 18 47 46c0 30 -25 46 -54 52c-20 3 -44 5 -68 5l58 95h-23v600h-226v97h559v-97h-226v-600z" />
    <glyph glyph-name="uni021A" unicode="&#x21a;" horiz-adv-x="589" 
d="M241 0v600h-226v97h559v-97h-226v-600h-107zM167 -224l74 170h107l-121 -170h-60z" />
    <glyph glyph-name="U" unicode="U" horiz-adv-x="682" 
d="M340 -9c-171 0 -260 91 -260 261v445h106v-433c0 -112 37 -171 154 -171c119 0 156 60 156 172v432h106v-440c0 -175 -89 -266 -262 -266z" />
    <glyph glyph-name="Uacute" unicode="&#xda;" horiz-adv-x="682" 
d="M303 760l110 141h110l-144 -141h-76zM340 -9c-171 0 -260 91 -260 261v445h106v-433c0 -112 37 -171 154 -171c119 0 156 60 156 172v432h106v-440c0 -175 -89 -266 -262 -266z" />
    <glyph glyph-name="uni01D3" unicode="&#x1d3;" horiz-adv-x="682" 
d="M341 741l-153 160h80l73 -77l74 77h80zM340 -9c-171 0 -260 91 -260 261v445h106v-433c0 -112 37 -171 154 -171c119 0 156 60 156 172v432h106v-440c0 -175 -89 -266 -262 -266z" />
    <glyph glyph-name="Ucircumflex" unicode="&#xdb;" horiz-adv-x="682" 
d="M188 748l154 168l153 -168h-80l-73 81l-73 -81h-81zM340 -9c-171 0 -260 91 -260 261v445h106v-433c0 -112 37 -171 154 -171c119 0 156 60 156 172v432h106v-440c0 -175 -89 -266 -262 -266z" />
    <glyph glyph-name="Udieresis" unicode="&#xdc;" horiz-adv-x="682" 
d="M203 793v108h86v-108h-86zM393 793v108h86v-108h-86zM340 -9c-171 0 -260 91 -260 261v445h106v-433c0 -112 37 -171 154 -171c119 0 156 60 156 172v432h106v-440c0 -175 -89 -266 -262 -266z" />
    <glyph glyph-name="uni01D7" unicode="&#x1d7;" horiz-adv-x="682" 
d="M303 964l110 141h110l-144 -141h-76zM203 793v108h86v-108h-86zM393 793v108h86v-108h-86zM340 -9c-171 0 -260 91 -260 261v445h106v-433c0 -112 37 -171 154 -171c119 0 156 60 156 172v432h106v-440c0 -175 -89 -266 -262 -266z" />
    <glyph glyph-name="uni01D9" unicode="&#x1d9;" horiz-adv-x="682" 
d="M341 945l-153 160h80l73 -77l74 77h80zM203 793v108h86v-108h-86zM393 793v108h86v-108h-86zM340 -9c-171 0 -260 91 -260 261v445h106v-433c0 -112 37 -171 154 -171c119 0 156 60 156 172v432h106v-440c0 -175 -89 -266 -262 -266z" />
    <glyph glyph-name="uni01DB" unicode="&#x1db;" horiz-adv-x="682" 
d="M303 964l-136 141h109l104 -141h-77zM203 793v108h86v-108h-86zM393 793v108h86v-108h-86zM340 -9c-171 0 -260 91 -260 261v445h106v-433c0 -112 37 -171 154 -171c119 0 156 60 156 172v432h106v-440c0 -175 -89 -266 -262 -266z" />
    <glyph glyph-name="uni01D5" unicode="&#x1d5;" horiz-adv-x="682" 
d="M204 986v60h273v-60h-273zM203 793v108h86v-108h-86zM393 793v108h86v-108h-86zM340 -9c-171 0 -260 91 -260 261v445h106v-433c0 -112 37 -171 154 -171c119 0 156 60 156 172v432h106v-440c0 -175 -89 -266 -262 -266z" />
    <glyph glyph-name="uni1EE4" unicode="&#x1ee4;" horiz-adv-x="682" 
d="M340 -9c-171 0 -260 91 -260 261v445h106v-433c0 -112 37 -171 154 -171c119 0 156 60 156 172v432h106v-440c0 -175 -89 -266 -262 -266zM288 -173v107h107v-107h-107z" />
    <glyph glyph-name="Ugrave" unicode="&#xd9;" horiz-adv-x="682" 
d="M303 760l-136 141h109l104 -141h-77zM340 -9c-171 0 -260 91 -260 261v445h106v-433c0 -112 37 -171 154 -171c119 0 156 60 156 172v432h106v-440c0 -175 -89 -266 -262 -266z" />
    <glyph glyph-name="uni1EE6" unicode="&#x1ee6;" horiz-adv-x="682" 
d="M332 736l-12 43c32 5 67 9 67 45c0 37 -41 41 -80 41h-15v57h15c85 0 146 -34 146 -97c0 -69 -70 -80 -121 -89zM340 -9c-171 0 -260 91 -260 261v445h106v-433c0 -112 37 -171 154 -171c119 0 156 60 156 172v432h106v-440c0 -175 -89 -266 -262 -266z" />
    <glyph glyph-name="Uhorn" unicode="&#x1af;" horiz-adv-x="682" 
d="M666 697h77v-42c0 -89 -41 -157 -141 -161v-237c0 -175 -89 -266 -262 -266c-171 0 -260 91 -260 261v445h106v-433c0 -112 37 -171 154 -171c119 0 156 60 156 172v432h106v-135c50 4 64 46 64 85v50z" />
    <glyph glyph-name="uni1EE8" unicode="&#x1ee8;" horiz-adv-x="682" 
d="M523 901l-144 -141h-76l110 141h110zM666 697h77v-42c0 -89 -41 -157 -141 -161v-237c0 -175 -89 -266 -262 -266c-171 0 -260 91 -260 261v445h106v-433c0 -112 37 -171 154 -171c119 0 156 60 156 172v432h106v-135c50 4 64 46 64 85v50z" />
    <glyph glyph-name="uni1EF0" unicode="&#x1ef0;" horiz-adv-x="682" 
d="M666 697h77v-42c0 -89 -41 -157 -141 -161v-237c0 -175 -89 -266 -262 -266c-171 0 -260 91 -260 261v445h106v-433c0 -112 37 -171 154 -171c119 0 156 60 156 172v432h106v-135c50 4 64 46 64 85v50zM288 -173v107h107v-107h-107z" />
    <glyph glyph-name="uni1EEA" unicode="&#x1eea;" horiz-adv-x="682" 
d="M380 760h-77l-136 141h109zM666 697h77v-42c0 -89 -41 -157 -141 -161v-237c0 -175 -89 -266 -262 -266c-171 0 -260 91 -260 261v445h106v-433c0 -112 37 -171 154 -171c119 0 156 60 156 172v432h106v-135c50 4 64 46 64 85v50z" />
    <glyph glyph-name="uni1EEC" unicode="&#x1eec;" horiz-adv-x="682" 
d="M387 824c0 37 -41 41 -80 41h-15v57h15c85 0 146 -34 146 -97c0 -69 -70 -80 -121 -89l-12 43c32 5 67 9 67 45zM666 697h77v-42c0 -89 -41 -157 -141 -161v-237c0 -175 -89 -266 -262 -266c-171 0 -260 91 -260 261v445h106v-433c0 -112 37 -171 154 -171
c119 0 156 60 156 172v432h106v-135c50 4 64 46 64 85v50z" />
    <glyph glyph-name="uni1EEE" unicode="&#x1eee;" horiz-adv-x="682" 
d="M274 841c-24 0 -38 -26 -38 -71h-59c0 86 39 135 101 134c72 1 87 -75 129 -75c20 0 36 26 36 72h61c0 -87 -38 -136 -98 -136c-79 0 -89 76 -132 76zM666 697h77v-42c0 -89 -41 -157 -141 -161v-237c0 -175 -89 -266 -262 -266c-171 0 -260 91 -260 261v445h106v-433
c0 -112 37 -171 154 -171c119 0 156 60 156 172v432h106v-135c50 4 64 46 64 85v50z" />
    <glyph glyph-name="Uhungarumlaut" unicode="&#x170;" horiz-adv-x="682" 
d="M211 742l110 159h92l-126 -159h-76zM396 742l109 159h109l-143 -159h-75zM340 -9c-171 0 -260 91 -260 261v445h106v-433c0 -112 37 -171 154 -171c119 0 156 60 156 172v432h106v-440c0 -175 -89 -266 -262 -266z" />
    <glyph glyph-name="Umacron" unicode="&#x16a;" horiz-adv-x="682" 
d="M204 782v60h273v-60h-273zM340 -9c-171 0 -260 91 -260 261v445h106v-433c0 -112 37 -171 154 -171c119 0 156 60 156 172v432h106v-440c0 -175 -89 -266 -262 -266z" />
    <glyph glyph-name="Uogonek" unicode="&#x172;" horiz-adv-x="682" 
d="M496 697h106v-440c0 -146 -62 -234 -183 -259c-23 -11 -99 -48 -99 -112c0 -31 18 -42 40 -42c21 0 39 10 54 28l51 -36c-24 -33 -57 -55 -102 -55c-60 0 -105 37 -105 95c0 53 36 92 69 115c-163 5 -247 95 -247 261v445h106v-433c0 -112 37 -171 154 -171
c119 0 156 60 156 172v432z" />
    <glyph glyph-name="Uring" unicode="&#x16e;" horiz-adv-x="682" 
d="M342 678c-61 0 -108 50 -108 108c0 60 48 108 108 108c58 0 108 -47 108 -108c0 -59 -49 -108 -108 -108zM342 734c30 0 52 23 52 53s-20 51 -52 51s-52 -21 -52 -51s22 -53 52 -53zM340 -9c-171 0 -260 91 -260 261v445h106v-433c0 -112 37 -171 154 -171
c119 0 156 60 156 172v432h106v-440c0 -175 -89 -266 -262 -266z" />
    <glyph glyph-name="Utilde" unicode="&#x168;" horiz-adv-x="682" 
d="M406 765c-79 0 -89 76 -132 76c-24 0 -38 -26 -38 -71h-59c0 86 39 135 101 134c72 1 87 -75 129 -75c20 0 36 26 36 72h61c0 -87 -38 -136 -98 -136zM340 -9c-171 0 -260 91 -260 261v445h106v-433c0 -112 37 -171 154 -171c119 0 156 60 156 172v432h106v-440
c0 -175 -89 -266 -262 -266z" />
    <glyph glyph-name="V" unicode="V" horiz-adv-x="662" 
d="M532 697h117l-277 -697h-81l-278 697h117l202 -526z" />
    <glyph glyph-name="W" unicode="W" horiz-adv-x="982" 
d="M226 0l-206 697h110l154 -536l161 497h91l162 -497l153 536h111l-206 -697h-105l-160 490l-161 -490h-104z" />
    <glyph glyph-name="Wacute" unicode="&#x1e82;" horiz-adv-x="982" 
d="M453 760l110 141h110l-144 -141h-76zM226 0l-206 697h110l154 -536l161 497h91l162 -497l153 536h111l-206 -697h-105l-160 490l-161 -490h-104z" />
    <glyph glyph-name="Wcircumflex" unicode="&#x174;" horiz-adv-x="982" 
d="M337 748l154 168l153 -168h-80l-73 81l-73 -81h-81zM226 0l-206 697h110l154 -536l161 497h91l162 -497l153 536h111l-206 -697h-105l-160 490l-161 -490h-104z" />
    <glyph glyph-name="Wdieresis" unicode="&#x1e84;" horiz-adv-x="982" 
d="M353 793v108h86v-108h-86zM543 793v108h86v-108h-86zM226 0l-206 697h110l154 -536l161 497h91l162 -497l153 536h111l-206 -697h-105l-160 490l-161 -490h-104z" />
    <glyph glyph-name="Wgrave" unicode="&#x1e80;" horiz-adv-x="982" 
d="M453 760l-136 141h109l104 -141h-77zM226 0l-206 697h110l154 -536l161 497h91l162 -497l153 536h111l-206 -697h-105l-160 490l-161 -490h-104z" />
    <glyph glyph-name="X" unicode="X" horiz-adv-x="656" 
d="M19 0l236 349l-234 348h127l180 -274l181 274h126l-234 -348l237 -349h-127l-184 273l-181 -273h-127z" />
    <glyph glyph-name="Y" unicode="Y" horiz-adv-x="648" 
d="M272 0v270l-266 427h125l192 -325l194 325h125l-264 -427v-270h-106z" />
    <glyph glyph-name="Yacute" unicode="&#xdd;" horiz-adv-x="648" 
d="M287 760l110 141h110l-144 -141h-76zM272 0v270l-266 427h125l192 -325l194 325h125l-264 -427v-270h-106z" />
    <glyph glyph-name="Ycircumflex" unicode="&#x176;" horiz-adv-x="648" 
d="M171 748l154 168l153 -168h-80l-73 81l-73 -81h-81zM272 0v270l-266 427h125l192 -325l194 325h125l-264 -427v-270h-106z" />
    <glyph glyph-name="Ydieresis" unicode="&#x178;" horiz-adv-x="648" 
d="M186 793v108h86v-108h-86zM376 793v108h86v-108h-86zM272 0v270l-266 427h125l192 -325l194 325h125l-264 -427v-270h-106z" />
    <glyph glyph-name="uni1EF4" unicode="&#x1ef4;" horiz-adv-x="648" 
d="M272 0v270l-266 427h125l192 -325l194 325h125l-264 -427v-270h-106zM271 -173v107h107v-107h-107z" />
    <glyph glyph-name="Ygrave" unicode="&#x1ef2;" horiz-adv-x="648" 
d="M286 760l-136 141h109l104 -141h-77zM272 0v270l-266 427h125l192 -325l194 325h125l-264 -427v-270h-106z" />
    <glyph glyph-name="uni1EF6" unicode="&#x1ef6;" horiz-adv-x="648" 
d="M315 736l-12 43c32 5 67 9 67 45c0 37 -41 41 -80 41h-15v57h15c85 0 146 -34 146 -97c0 -69 -70 -80 -121 -89zM272 0v270l-266 427h125l192 -325l194 325h125l-264 -427v-270h-106z" />
    <glyph glyph-name="uni1EF8" unicode="&#x1ef8;" horiz-adv-x="648" 
d="M390 765c-79 0 -89 76 -132 76c-24 0 -38 -26 -38 -71h-59c0 86 39 135 101 134c72 1 87 -75 129 -75c20 0 36 26 36 72h61c0 -87 -38 -136 -98 -136zM272 0v270l-266 427h125l192 -325l194 325h125l-264 -427v-270h-106z" />
    <glyph glyph-name="Z" unicode="Z" horiz-adv-x="629" 
d="M590 697v-78l-414 -521h413v-98h-557v75l418 525h-395v97h535z" />
    <glyph glyph-name="Zacute" unicode="&#x179;" horiz-adv-x="629" 
d="M497 901l-144 -141h-76l110 141h110zM590 697v-78l-414 -521h413v-98h-557v75l418 525h-395v97h535z" />
    <glyph glyph-name="Zcaron" unicode="&#x17d;" horiz-adv-x="629" 
d="M468 901l-154 -160l-153 160h80l73 -77l74 77h80zM590 697v-78l-414 -521h413v-98h-557v75l418 525h-395v97h535z" />
    <glyph glyph-name="Zdotaccent" unicode="&#x17b;" horiz-adv-x="629" 
d="M368 901v-108h-107v108h107zM590 697v-78l-414 -521h413v-98h-557v75l418 525h-395v97h535z" />
    <glyph glyph-name="a" unicode="a" horiz-adv-x="528" 
d="M260 502c119 0 206 -63 206 -192v-310h-94l-8 75c-34 -58 -98 -84 -159 -84c-91 0 -175 55 -175 157c0 63 27 100 71 122c36 16 82 23 136 23h127v17c0 66 -40 103 -106 103c-55 0 -102 -27 -139 -77l-74 62c54 67 124 104 215 104zM221 78c83 0 133 56 143 123v16h-114
c-36 0 -71 -4 -93 -20c-16 -10 -26 -26 -26 -50c0 -42 32 -69 90 -69z" />
    <glyph glyph-name="aacute" unicode="&#xe1;" horiz-adv-x="528" 
d="M441 697l-144 -141h-76l110 141h110zM260 502c119 0 206 -63 206 -192v-310h-94l-8 75c-34 -58 -98 -84 -159 -84c-91 0 -175 55 -175 157c0 63 27 100 71 122c36 16 82 23 136 23h127v17c0 66 -40 103 -106 103c-55 0 -102 -27 -139 -77l-74 62c54 67 124 104 215 104z
M221 78c83 0 133 56 143 123v16h-114c-36 0 -71 -4 -93 -20c-16 -10 -26 -26 -26 -50c0 -42 32 -69 90 -69z" />
    <glyph glyph-name="abreve" unicode="&#x103;" horiz-adv-x="528" 
d="M259 565c-106 0 -154 47 -154 132h72c0 -49 35 -72 82 -72c49 0 81 25 81 72h73c0 -89 -53 -132 -154 -132zM260 502c119 0 206 -63 206 -192v-310h-94l-8 75c-34 -58 -98 -84 -159 -84c-91 0 -175 55 -175 157c0 63 27 100 71 122c36 16 82 23 136 23h127v17
c0 66 -40 103 -106 103c-55 0 -102 -27 -139 -77l-74 62c54 67 124 104 215 104zM221 78c83 0 133 56 143 123v16h-114c-36 0 -71 -4 -93 -20c-16 -10 -26 -26 -26 -50c0 -42 32 -69 90 -69z" />
    <glyph glyph-name="uni1EAF" unicode="&#x1eaf;" horiz-adv-x="528" 
d="M441 901l-144 -141h-76l110 141h110zM259 565c-106 0 -154 47 -154 132h72c0 -49 35 -72 82 -72c49 0 81 25 81 72h73c0 -89 -53 -132 -154 -132zM260 502c119 0 206 -63 206 -192v-310h-94l-8 75c-34 -58 -98 -84 -159 -84c-91 0 -175 55 -175 157c0 63 27 100 71 122
c36 16 82 23 136 23h127v17c0 66 -40 103 -106 103c-55 0 -102 -27 -139 -77l-74 62c54 67 124 104 215 104zM221 78c83 0 133 56 143 123v16h-114c-36 0 -71 -4 -93 -20c-16 -10 -26 -26 -26 -50c0 -42 32 -69 90 -69z" />
    <glyph glyph-name="uni1EB7" unicode="&#x1eb7;" horiz-adv-x="528" 
d="M259 565c-106 0 -154 47 -154 132h72c0 -49 35 -72 82 -72c49 0 81 25 81 72h73c0 -89 -53 -132 -154 -132zM260 502c119 0 206 -63 206 -192v-310h-94l-8 75c-34 -58 -98 -84 -159 -84c-91 0 -175 55 -175 157c0 63 27 100 71 122c36 16 82 23 136 23h127v17
c0 66 -40 103 -106 103c-55 0 -102 -27 -139 -77l-74 62c54 67 124 104 215 104zM221 78c83 0 133 56 143 123v16h-114c-36 0 -71 -4 -93 -20c-16 -10 -26 -26 -26 -50c0 -42 32 -69 90 -69zM205 -173v107h107v-107h-107z" />
    <glyph glyph-name="uni1EB1" unicode="&#x1eb1;" horiz-adv-x="528" 
d="M297 760h-77l-136 141h109zM177 697c0 -49 35 -72 82 -72c49 0 81 25 81 72h73c0 -89 -53 -132 -154 -132c-106 0 -154 47 -154 132h72zM260 502c119 0 206 -63 206 -192v-310h-94l-8 75c-34 -58 -98 -84 -159 -84c-91 0 -175 55 -175 157c0 63 27 100 71 122
c36 16 82 23 136 23h127v17c0 66 -40 103 -106 103c-55 0 -102 -27 -139 -77l-74 62c54 67 124 104 215 104zM221 78c83 0 133 56 143 123v16h-114c-36 0 -71 -4 -93 -20c-16 -10 -26 -26 -26 -50c0 -42 32 -69 90 -69z" />
    <glyph glyph-name="uni1EB3" unicode="&#x1eb3;" horiz-adv-x="528" 
d="M304 824c0 37 -41 41 -80 41h-15v57h15c85 0 146 -34 146 -97c0 -69 -70 -80 -121 -89l-12 43c32 5 67 9 67 45zM259 565c-106 0 -154 47 -154 132h72c0 -49 35 -72 82 -72c49 0 81 25 81 72h73c0 -89 -53 -132 -154 -132zM260 502c119 0 206 -63 206 -192v-310h-94
l-8 75c-34 -58 -98 -84 -159 -84c-91 0 -175 55 -175 157c0 63 27 100 71 122c36 16 82 23 136 23h127v17c0 66 -40 103 -106 103c-55 0 -102 -27 -139 -77l-74 62c54 67 124 104 215 104zM221 78c83 0 133 56 143 123v16h-114c-36 0 -71 -4 -93 -20
c-16 -10 -26 -26 -26 -50c0 -42 32 -69 90 -69z" />
    <glyph glyph-name="uni1EB5" unicode="&#x1eb5;" horiz-adv-x="528" 
d="M192 841c-24 0 -38 -26 -38 -71h-59c0 86 39 135 101 134c72 1 87 -75 129 -75c20 0 36 26 36 72h61c0 -87 -38 -136 -98 -136c-79 0 -89 76 -132 76zM259 625c49 0 81 25 81 72h73c0 -89 -53 -132 -154 -132c-106 0 -154 47 -154 132h72c0 -49 35 -72 82 -72zM260 502
c119 0 206 -63 206 -192v-310h-94l-8 75c-34 -58 -98 -84 -159 -84c-91 0 -175 55 -175 157c0 63 27 100 71 122c36 16 82 23 136 23h127v17c0 66 -40 103 -106 103c-55 0 -102 -27 -139 -77l-74 62c54 67 124 104 215 104zM221 78c83 0 133 56 143 123v16h-114
c-36 0 -71 -4 -93 -20c-16 -10 -26 -26 -26 -50c0 -42 32 -69 90 -69z" />
    <glyph glyph-name="uni01CE" unicode="&#x1ce;" horiz-adv-x="528" 
d="M412 697l-154 -160l-153 160h80l73 -77l74 77h80zM260 502c119 0 206 -63 206 -192v-310h-94l-8 75c-34 -58 -98 -84 -159 -84c-91 0 -175 55 -175 157c0 63 27 100 71 122c36 16 82 23 136 23h127v17c0 66 -40 103 -106 103c-55 0 -102 -27 -139 -77l-74 62
c54 67 124 104 215 104zM221 78c83 0 133 56 143 123v16h-114c-36 0 -71 -4 -93 -20c-16 -10 -26 -26 -26 -50c0 -42 32 -69 90 -69z" />
    <glyph glyph-name="acircumflex" unicode="&#xe2;" horiz-adv-x="528" 
d="M259 625l-73 -81h-81l154 168l153 -168h-80zM260 502c119 0 206 -63 206 -192v-310h-94l-8 75c-34 -58 -98 -84 -159 -84c-91 0 -175 55 -175 157c0 63 27 100 71 122c36 16 82 23 136 23h127v17c0 66 -40 103 -106 103c-55 0 -102 -27 -139 -77l-74 62
c54 67 124 104 215 104zM221 78c83 0 133 56 143 123v16h-114c-36 0 -71 -4 -93 -20c-16 -10 -26 -26 -26 -50c0 -42 32 -69 90 -69z" />
    <glyph glyph-name="uni1EA5" unicode="&#x1ea5;" horiz-adv-x="528" 
d="M441 885l-144 -141h-76l110 141h110zM259 625l-73 -81h-81l154 168l153 -168h-80zM260 502c119 0 206 -63 206 -192v-310h-94l-8 75c-34 -58 -98 -84 -159 -84c-91 0 -175 55 -175 157c0 63 27 100 71 122c36 16 82 23 136 23h127v17c0 66 -40 103 -106 103
c-55 0 -102 -27 -139 -77l-74 62c54 67 124 104 215 104zM221 78c83 0 133 56 143 123v16h-114c-36 0 -71 -4 -93 -20c-16 -10 -26 -26 -26 -50c0 -42 32 -69 90 -69z" />
    <glyph glyph-name="uni1EAD" unicode="&#x1ead;" horiz-adv-x="528" 
d="M259 625l-73 -81h-81l154 168l153 -168h-80zM260 502c119 0 206 -63 206 -192v-310h-94l-8 75c-34 -58 -98 -84 -159 -84c-91 0 -175 55 -175 157c0 63 27 100 71 122c36 16 82 23 136 23h127v17c0 66 -40 103 -106 103c-55 0 -102 -27 -139 -77l-74 62
c54 67 124 104 215 104zM221 78c83 0 133 56 143 123v16h-114c-36 0 -71 -4 -93 -20c-16 -10 -26 -26 -26 -50c0 -42 32 -69 90 -69zM205 -173v107h107v-107h-107z" />
    <glyph glyph-name="uni1EA7" unicode="&#x1ea7;" horiz-adv-x="528" 
d="M297 744h-77l-136 141h109zM105 544l154 168l153 -168h-80l-73 81l-73 -81h-81zM260 502c119 0 206 -63 206 -192v-310h-94l-8 75c-34 -58 -98 -84 -159 -84c-91 0 -175 55 -175 157c0 63 27 100 71 122c36 16 82 23 136 23h127v17c0 66 -40 103 -106 103
c-55 0 -102 -27 -139 -77l-74 62c54 67 124 104 215 104zM221 78c83 0 133 56 143 123v16h-114c-36 0 -71 -4 -93 -20c-16 -10 -26 -26 -26 -50c0 -42 32 -69 90 -69z" />
    <glyph glyph-name="uni1EA9" unicode="&#x1ea9;" horiz-adv-x="528" 
d="M304 808c0 37 -41 41 -80 41h-15v57h15c85 0 146 -34 146 -97c0 -69 -70 -80 -121 -89l-12 43c32 5 67 9 67 45zM259 625l-73 -81h-81l154 168l153 -168h-80zM260 502c119 0 206 -63 206 -192v-310h-94l-8 75c-34 -58 -98 -84 -159 -84c-91 0 -175 55 -175 157
c0 63 27 100 71 122c36 16 82 23 136 23h127v17c0 66 -40 103 -106 103c-55 0 -102 -27 -139 -77l-74 62c54 67 124 104 215 104zM221 78c83 0 133 56 143 123v16h-114c-36 0 -71 -4 -93 -20c-16 -10 -26 -26 -26 -50c0 -42 32 -69 90 -69z" />
    <glyph glyph-name="uni1EAB" unicode="&#x1eab;" horiz-adv-x="528" 
d="M192 825c-24 0 -38 -26 -38 -71h-59c0 86 39 135 101 134c72 1 87 -75 129 -75c20 0 36 26 36 72h61c0 -87 -38 -136 -98 -136c-79 0 -89 76 -132 76zM105 544l154 168l153 -168h-80l-73 81l-73 -81h-81zM260 502c119 0 206 -63 206 -192v-310h-94l-8 75
c-34 -58 -98 -84 -159 -84c-91 0 -175 55 -175 157c0 63 27 100 71 122c36 16 82 23 136 23h127v17c0 66 -40 103 -106 103c-55 0 -102 -27 -139 -77l-74 62c54 67 124 104 215 104zM221 78c83 0 133 56 143 123v16h-114c-36 0 -71 -4 -93 -20c-16 -10 -26 -26 -26 -50
c0 -42 32 -69 90 -69z" />
    <glyph glyph-name="adieresis" unicode="&#xe4;" horiz-adv-x="528" 
d="M206 697v-108h-86v108h86zM396 697v-108h-86v108h86zM260 502c119 0 206 -63 206 -192v-310h-94l-8 75c-34 -58 -98 -84 -159 -84c-91 0 -175 55 -175 157c0 63 27 100 71 122c36 16 82 23 136 23h127v17c0 66 -40 103 -106 103c-55 0 -102 -27 -139 -77l-74 62
c54 67 124 104 215 104zM221 78c83 0 133 56 143 123v16h-114c-36 0 -71 -4 -93 -20c-16 -10 -26 -26 -26 -50c0 -42 32 -69 90 -69z" />
    <glyph glyph-name="uni1EA1" unicode="&#x1ea1;" horiz-adv-x="528" 
d="M260 502c119 0 206 -63 206 -192v-310h-94l-8 75c-34 -58 -98 -84 -159 -84c-91 0 -175 55 -175 157c0 63 27 100 71 122c36 16 82 23 136 23h127v17c0 66 -40 103 -106 103c-55 0 -102 -27 -139 -77l-74 62c54 67 124 104 215 104zM221 78c83 0 133 56 143 123v16h-114
c-36 0 -71 -4 -93 -20c-16 -10 -26 -26 -26 -50c0 -42 32 -69 90 -69zM205 -173v107h107v-107h-107z" />
    <glyph glyph-name="agrave" unicode="&#xe0;" horiz-adv-x="528" 
d="M297 556h-77l-136 141h109zM260 502c119 0 206 -63 206 -192v-310h-94l-8 75c-34 -58 -98 -84 -159 -84c-91 0 -175 55 -175 157c0 63 27 100 71 122c36 16 82 23 136 23h127v17c0 66 -40 103 -106 103c-55 0 -102 -27 -139 -77l-74 62c54 67 124 104 215 104zM221 78
c83 0 133 56 143 123v16h-114c-36 0 -71 -4 -93 -20c-16 -10 -26 -26 -26 -50c0 -42 32 -69 90 -69z" />
    <glyph glyph-name="uni1EA3" unicode="&#x1ea3;" horiz-adv-x="528" 
d="M304 620c0 37 -41 41 -80 41h-15v57h15c85 0 146 -34 146 -97c0 -69 -70 -80 -121 -89l-12 43c32 5 67 9 67 45zM260 502c119 0 206 -63 206 -192v-310h-94l-8 75c-34 -58 -98 -84 -159 -84c-91 0 -175 55 -175 157c0 63 27 100 71 122c36 16 82 23 136 23h127v17
c0 66 -40 103 -106 103c-55 0 -102 -27 -139 -77l-74 62c54 67 124 104 215 104zM221 78c83 0 133 56 143 123v16h-114c-36 0 -71 -4 -93 -20c-16 -10 -26 -26 -26 -50c0 -42 32 -69 90 -69z" />
    <glyph glyph-name="amacron" unicode="&#x101;" horiz-adv-x="528" 
d="M395 638v-60h-273v60h273zM260 502c119 0 206 -63 206 -192v-310h-94l-8 75c-34 -58 -98 -84 -159 -84c-91 0 -175 55 -175 157c0 63 27 100 71 122c36 16 82 23 136 23h127v17c0 66 -40 103 -106 103c-55 0 -102 -27 -139 -77l-74 62c54 67 124 104 215 104zM221 78
c83 0 133 56 143 123v16h-114c-36 0 -71 -4 -93 -20c-16 -10 -26 -26 -26 -50c0 -42 32 -69 90 -69z" />
    <glyph glyph-name="aogonek" unicode="&#x105;" horiz-adv-x="528" 
d="M457 -128l51 -36c-24 -33 -57 -55 -102 -55c-60 0 -105 37 -105 95c0 60 47 103 82 124h-11l-8 75c-34 -58 -98 -84 -159 -84c-91 0 -175 55 -175 157c0 63 27 100 71 122c36 16 82 23 136 23h127v17c0 66 -40 103 -106 103c-55 0 -102 -27 -139 -77l-74 62
c54 67 124 104 215 104c119 0 206 -63 206 -192v-310h-1c-19 -10 -102 -47 -102 -114c0 -31 18 -42 40 -42c21 0 39 10 54 28zM221 78c83 0 133 56 143 123v16h-114c-36 0 -71 -4 -93 -20c-16 -10 -26 -26 -26 -50c0 -42 32 -69 90 -69z" />
    <glyph glyph-name="aring" unicode="&#xe5;" horiz-adv-x="528" 
d="M259 531c-61 0 -108 50 -108 108c0 60 48 108 108 108c58 0 108 -47 108 -108c0 -59 -49 -108 -108 -108zM259 691c-32 0 -52 -21 -52 -51s22 -53 52 -53s52 23 52 53s-20 51 -52 51zM260 502c119 0 206 -63 206 -192v-310h-94l-8 75c-34 -58 -98 -84 -159 -84
c-91 0 -175 55 -175 157c0 63 27 100 71 122c36 16 82 23 136 23h127v17c0 66 -40 103 -106 103c-55 0 -102 -27 -139 -77l-74 62c54 67 124 104 215 104zM221 78c83 0 133 56 143 123v16h-114c-36 0 -71 -4 -93 -20c-16 -10 -26 -26 -26 -50c0 -42 32 -69 90 -69z" />
    <glyph glyph-name="atilde" unicode="&#xe3;" horiz-adv-x="528" 
d="M192 637c-24 0 -38 -26 -38 -71h-59c0 86 39 135 101 134c72 1 87 -75 129 -75c20 0 36 26 36 72h61c0 -87 -38 -136 -98 -136c-79 0 -89 76 -132 76zM260 502c119 0 206 -63 206 -192v-310h-94l-8 75c-34 -58 -98 -84 -159 -84c-91 0 -175 55 -175 157
c0 63 27 100 71 122c36 16 82 23 136 23h127v17c0 66 -40 103 -106 103c-55 0 -102 -27 -139 -77l-74 62c54 67 124 104 215 104zM221 78c83 0 133 56 143 123v16h-114c-36 0 -71 -4 -93 -20c-16 -10 -26 -26 -26 -50c0 -42 32 -69 90 -69z" />
    <glyph glyph-name="ae" unicode="&#xe6;" horiz-adv-x="834" 
d="M210 -9c-118 0 -181 65 -181 156c0 136 146 144 225 144h112v19c0 66 -41 103 -106 103c-55 0 -102 -27 -139 -77l-74 62c53 67 127 104 219 104c80 0 138 -30 164 -84c36 50 83 80 158 80c151 0 211 -104 211 -231c0 -16 -1 -35 -3 -53h-336c6 -80 42 -129 126 -129
c54 0 92 17 126 55l72 -62c-59 -61 -121 -84 -198 -84c-92 0 -153 38 -184 99h-11c-48 -77 -109 -102 -181 -102zM459 289h246c0 20 -4 38 -12 53c-14 39 -51 71 -110 71c-83 0 -123 -61 -124 -124zM222 78c81 0 134 53 144 132v7h-106c-94 0 -127 -31 -127 -72
c0 -40 32 -67 89 -67z" />
    <glyph glyph-name="b" unicode="b" horiz-adv-x="577" 
d="M332 -9c-62 0 -121 26 -154 78v-69h-102v697h102v-274c30 48 90 79 154 79c122 0 208 -97 208 -255c0 -147 -75 -256 -208 -256zM308 85c87 0 130 63 130 161c0 100 -44 164 -131 164c-92 0 -138 -72 -138 -164c0 -91 46 -161 139 -161z" />
    <glyph glyph-name="c" unicode="c" horiz-adv-x="496" 
d="M267 -9c-155 0 -233 121 -233 254c0 130 75 257 232 257c95 0 170 -47 208 -141l-97 -39c-16 56 -58 91 -111 91c-91 0 -128 -82 -128 -168s36 -165 128 -165c53 0 95 34 110 89l93 -36c-32 -90 -106 -142 -202 -142z" />
    <glyph glyph-name="cacute" unicode="&#x107;" horiz-adv-x="496" 
d="M210 556l110 141h110l-144 -141h-76zM267 -9c-155 0 -233 121 -233 254c0 130 75 257 232 257c95 0 170 -47 208 -141l-97 -39c-16 56 -58 91 -111 91c-91 0 -128 -82 -128 -168s36 -165 128 -165c53 0 95 34 110 89l93 -36c-32 -90 -106 -142 -202 -142z" />
    <glyph glyph-name="ccaron" unicode="&#x10d;" horiz-adv-x="496" 
d="M248 537l-153 160h80l73 -77l74 77h80zM267 -9c-155 0 -233 121 -233 254c0 130 75 257 232 257c95 0 170 -47 208 -141l-97 -39c-16 56 -58 91 -111 91c-91 0 -128 -82 -128 -168s36 -165 128 -165c53 0 95 34 110 89l93 -36c-32 -90 -106 -142 -202 -142z" />
    <glyph glyph-name="ccedilla" unicode="&#xe7;" horiz-adv-x="496" 
d="M266 80c53 0 95 34 110 89l93 -36c-31 -89 -104 -140 -197 -142l-33 -46c21 -3 39 -9 55 -17c30 -16 47 -43 47 -78c0 -61 -45 -107 -109 -107c-27 0 -61 10 -87 37l33 49c19 -20 40 -27 56 -27c29 0 47 18 47 46c0 30 -25 46 -54 52c-20 3 -44 5 -68 5l56 91
c-121 24 -181 132 -181 249c0 130 75 257 232 257c95 0 170 -47 208 -141l-97 -39c-16 56 -58 91 -111 91c-91 0 -128 -82 -128 -168s36 -165 128 -165z" />
    <glyph glyph-name="cdotaccent" unicode="&#x10b;" horiz-adv-x="496" 
d="M194 589v108h107v-108h-107zM267 -9c-155 0 -233 121 -233 254c0 130 75 257 232 257c95 0 170 -47 208 -141l-97 -39c-16 56 -58 91 -111 91c-91 0 -128 -82 -128 -168s36 -165 128 -165c53 0 95 34 110 89l93 -36c-32 -90 -106 -142 -202 -142z" />
    <glyph glyph-name="d" unicode="d" horiz-adv-x="580" 
d="M248 -9c-133 0 -211 109 -211 256c0 158 89 255 211 255c64 0 124 -31 154 -79v274h102v-697h-102v69c-33 -52 -92 -78 -154 -78zM272 85c93 0 139 70 139 161c0 92 -46 164 -138 164c-87 0 -134 -64 -134 -164c0 -98 46 -161 133 -161z" />
    <glyph glyph-name="eth" unicode="&#xf0;" horiz-adv-x="587" 
d="M483 611c47 -60 63 -141 63 -237c0 -216 -104 -380 -291 -380c-141 0 -224 95 -224 226c0 166 126 278 265 278c62 0 110 -31 147 -72c2 67 -13 121 -48 161l-169 -48l-12 45l138 39c-39 23 -92 37 -160 39l7 68c115 -7 194 -35 248 -81l73 21l12 -45zM261 82
c113 0 177 94 182 183c3 72 -37 150 -134 150c-120 0 -183 -97 -183 -194c0 -92 62 -139 135 -139z" />
    <glyph glyph-name="dcaron" unicode="&#x10f;" horiz-adv-x="580" 
d="M248 -9c-133 0 -211 109 -211 256c0 158 89 255 211 255c64 0 124 -31 154 -79v274h102v-697h-102v69c-33 -52 -92 -78 -154 -78zM534 479l57 218h107l-104 -218h-60zM272 85c93 0 139 70 139 161c0 92 -46 164 -138 164c-87 0 -134 -64 -134 -164
c0 -98 46 -161 133 -161z" />
    <glyph glyph-name="dcroat" unicode="&#x111;" horiz-adv-x="580" 
d="M561 643v-69h-57v-574h-102v69c-33 -52 -92 -78 -154 -78c-133 0 -211 109 -211 256c0 158 89 255 211 255c64 0 124 -31 154 -79v151h-145v69h145v54h102v-54h57zM272 85c93 0 139 70 139 161c0 92 -46 164 -138 164c-87 0 -134 -64 -134 -164c0 -98 46 -161 133 -161z
" />
    <glyph glyph-name="e" unicode="e" horiz-adv-x="520" 
d="M272 -9c-163 0 -237 118 -237 253c0 133 72 258 229 258c152 0 222 -114 222 -243c0 -14 -1 -30 -3 -45h-346c4 -80 51 -131 136 -131c49 0 89 15 126 57l71 -62c-55 -60 -116 -87 -198 -87zM138 287h250c1 6 1 14 0 21c-7 63 -51 109 -125 109c-83 0 -126 -64 -125 -130
z" />
    <glyph glyph-name="eacute" unicode="&#xe9;" horiz-adv-x="520" 
d="M227 556l110 141h110l-144 -141h-76zM272 -9c-163 0 -237 118 -237 253c0 133 72 258 229 258c152 0 222 -114 222 -243c0 -14 -1 -30 -3 -45h-346c4 -80 51 -131 136 -131c49 0 89 15 126 57l71 -62c-55 -60 -116 -87 -198 -87zM138 287h250c1 6 1 14 0 21
c-7 63 -51 109 -125 109c-83 0 -126 -64 -125 -130z" />
    <glyph glyph-name="ecaron" unicode="&#x11b;" horiz-adv-x="520" 
d="M264 537l-153 160h80l73 -77l74 77h80zM272 -9c-163 0 -237 118 -237 253c0 133 72 258 229 258c152 0 222 -114 222 -243c0 -14 -1 -30 -3 -45h-346c4 -80 51 -131 136 -131c49 0 89 15 126 57l71 -62c-55 -60 -116 -87 -198 -87zM138 287h250c1 6 1 14 0 21
c-7 63 -51 109 -125 109c-83 0 -126 -64 -125 -130z" />
    <glyph glyph-name="ecircumflex" unicode="&#xea;" horiz-adv-x="520" 
d="M111 544l154 168l153 -168h-80l-73 81l-73 -81h-81zM272 -9c-163 0 -237 118 -237 253c0 133 72 258 229 258c152 0 222 -114 222 -243c0 -14 -1 -30 -3 -45h-346c4 -80 51 -131 136 -131c49 0 89 15 126 57l71 -62c-55 -60 -116 -87 -198 -87zM138 287h250
c1 6 1 14 0 21c-7 63 -51 109 -125 109c-83 0 -126 -64 -125 -130z" />
    <glyph glyph-name="uni1EBF" unicode="&#x1ebf;" horiz-adv-x="520" 
d="M227 744l110 141h110l-144 -141h-76zM111 544l154 168l153 -168h-80l-73 81l-73 -81h-81zM272 -9c-163 0 -237 118 -237 253c0 133 72 258 229 258c152 0 222 -114 222 -243c0 -14 -1 -30 -3 -45h-346c4 -80 51 -131 136 -131c49 0 89 15 126 57l71 -62
c-55 -60 -116 -87 -198 -87zM138 287h250c1 6 1 14 0 21c-7 63 -51 109 -125 109c-83 0 -126 -64 -125 -130z" />
    <glyph glyph-name="uni1EC7" unicode="&#x1ec7;" horiz-adv-x="520" 
d="M111 544l154 168l153 -168h-80l-73 81l-73 -81h-81zM272 -9c-163 0 -237 118 -237 253c0 133 72 258 229 258c152 0 222 -114 222 -243c0 -14 -1 -30 -3 -45h-346c4 -80 51 -131 136 -131c49 0 89 15 126 57l71 -62c-55 -60 -116 -87 -198 -87zM138 287h250
c1 6 1 14 0 21c-7 63 -51 109 -125 109c-83 0 -126 -64 -125 -130zM218 -173v107h107v-107h-107z" />
    <glyph glyph-name="uni1EC1" unicode="&#x1ec1;" horiz-adv-x="520" 
d="M226 744l-136 141h109l104 -141h-77zM111 544l154 168l153 -168h-80l-73 81l-73 -81h-81zM272 -9c-163 0 -237 118 -237 253c0 133 72 258 229 258c152 0 222 -114 222 -243c0 -14 -1 -30 -3 -45h-346c4 -80 51 -131 136 -131c49 0 89 15 126 57l71 -62
c-55 -60 -116 -87 -198 -87zM138 287h250c1 6 1 14 0 21c-7 63 -51 109 -125 109c-83 0 -126 -64 -125 -130z" />
    <glyph glyph-name="uni1EC3" unicode="&#x1ec3;" horiz-adv-x="520" 
d="M255 720l-12 43c32 5 67 9 67 45c0 37 -41 41 -80 41h-15v57h15c85 0 146 -34 146 -97c0 -69 -70 -80 -121 -89zM111 544l154 168l153 -168h-80l-73 81l-73 -81h-81zM272 -9c-163 0 -237 118 -237 253c0 133 72 258 229 258c152 0 222 -114 222 -243c0 -14 -1 -30 -3 -45
h-346c4 -80 51 -131 136 -131c49 0 89 15 126 57l71 -62c-55 -60 -116 -87 -198 -87zM138 287h250c1 6 1 14 0 21c-7 63 -51 109 -125 109c-83 0 -126 -64 -125 -130z" />
    <glyph glyph-name="uni1EC5" unicode="&#x1ec5;" horiz-adv-x="520" 
d="M330 749c-79 0 -89 76 -132 76c-24 0 -38 -26 -38 -71h-59c0 86 39 135 101 134c72 1 87 -75 129 -75c20 0 36 26 36 72h61c0 -87 -38 -136 -98 -136zM111 544l154 168l153 -168h-80l-73 81l-73 -81h-81zM272 -9c-163 0 -237 118 -237 253c0 133 72 258 229 258
c152 0 222 -114 222 -243c0 -14 -1 -30 -3 -45h-346c4 -80 51 -131 136 -131c49 0 89 15 126 57l71 -62c-55 -60 -116 -87 -198 -87zM138 287h250c1 6 1 14 0 21c-7 63 -51 109 -125 109c-83 0 -126 -64 -125 -130z" />
    <glyph glyph-name="edieresis" unicode="&#xeb;" horiz-adv-x="520" 
d="M126 589v108h86v-108h-86zM316 589v108h86v-108h-86zM272 -9c-163 0 -237 118 -237 253c0 133 72 258 229 258c152 0 222 -114 222 -243c0 -14 -1 -30 -3 -45h-346c4 -80 51 -131 136 -131c49 0 89 15 126 57l71 -62c-55 -60 -116 -87 -198 -87zM138 287h250
c1 6 1 14 0 21c-7 63 -51 109 -125 109c-83 0 -126 -64 -125 -130z" />
    <glyph glyph-name="edotaccent" unicode="&#x117;" horiz-adv-x="520" 
d="M211 589v108h107v-108h-107zM272 -9c-163 0 -237 118 -237 253c0 133 72 258 229 258c152 0 222 -114 222 -243c0 -14 -1 -30 -3 -45h-346c4 -80 51 -131 136 -131c49 0 89 15 126 57l71 -62c-55 -60 -116 -87 -198 -87zM138 287h250c1 6 1 14 0 21
c-7 63 -51 109 -125 109c-83 0 -126 -64 -125 -130z" />
    <glyph glyph-name="uni1EB9" unicode="&#x1eb9;" horiz-adv-x="520" 
d="M272 -9c-163 0 -237 118 -237 253c0 133 72 258 229 258c152 0 222 -114 222 -243c0 -14 -1 -30 -3 -45h-346c4 -80 51 -131 136 -131c49 0 89 15 126 57l71 -62c-55 -60 -116 -87 -198 -87zM138 287h250c1 6 1 14 0 21c-7 63 -51 109 -125 109c-83 0 -126 -64 -125 -130
zM218 -173v107h107v-107h-107z" />
    <glyph glyph-name="egrave" unicode="&#xe8;" horiz-adv-x="520" 
d="M226 556l-136 141h109l104 -141h-77zM272 -9c-163 0 -237 118 -237 253c0 133 72 258 229 258c152 0 222 -114 222 -243c0 -14 -1 -30 -3 -45h-346c4 -80 51 -131 136 -131c49 0 89 15 126 57l71 -62c-55 -60 -116 -87 -198 -87zM138 287h250c1 6 1 14 0 21
c-7 63 -51 109 -125 109c-83 0 -126 -64 -125 -130z" />
    <glyph glyph-name="uni1EBB" unicode="&#x1ebb;" horiz-adv-x="520" 
d="M255 532l-12 43c32 5 67 9 67 45c0 37 -41 41 -80 41h-15v57h15c85 0 146 -34 146 -97c0 -69 -70 -80 -121 -89zM272 -9c-163 0 -237 118 -237 253c0 133 72 258 229 258c152 0 222 -114 222 -243c0 -14 -1 -30 -3 -45h-346c4 -80 51 -131 136 -131c49 0 89 15 126 57
l71 -62c-55 -60 -116 -87 -198 -87zM138 287h250c1 6 1 14 0 21c-7 63 -51 109 -125 109c-83 0 -126 -64 -125 -130z" />
    <glyph glyph-name="emacron" unicode="&#x113;" horiz-adv-x="520" 
d="M128 578v60h273v-60h-273zM272 -9c-163 0 -237 118 -237 253c0 133 72 258 229 258c152 0 222 -114 222 -243c0 -14 -1 -30 -3 -45h-346c4 -80 51 -131 136 -131c49 0 89 15 126 57l71 -62c-55 -60 -116 -87 -198 -87zM138 287h250c1 6 1 14 0 21c-7 63 -51 109 -125 109
c-83 0 -126 -64 -125 -130z" />
    <glyph glyph-name="eogonek" unicode="&#x119;" horiz-adv-x="520" 
d="M486 259c0 -14 -1 -30 -3 -45h-346c4 -80 51 -131 136 -131c49 0 89 15 126 57l71 -62c-31 -33 -63 -57 -100 -71c-25 -12 -97 -49 -97 -111c0 -31 18 -42 40 -42c21 0 39 10 54 28l51 -36c-24 -33 -57 -55 -102 -55c-60 0 -105 37 -105 95c0 46 27 81 56 105
c-160 3 -232 120 -232 253s72 258 229 258c152 0 222 -114 222 -243zM388 287c1 6 1 14 0 21c-7 63 -51 109 -125 109c-83 0 -126 -64 -125 -130h250z" />
    <glyph glyph-name="uni1EBD" unicode="&#x1ebd;" horiz-adv-x="520" 
d="M330 561c-79 0 -89 76 -132 76c-24 0 -38 -26 -38 -71h-59c0 86 39 135 101 134c72 1 87 -75 129 -75c20 0 36 26 36 72h61c0 -87 -38 -136 -98 -136zM272 -9c-163 0 -237 118 -237 253c0 133 72 258 229 258c152 0 222 -114 222 -243c0 -14 -1 -30 -3 -45h-346
c4 -80 51 -131 136 -131c49 0 89 15 126 57l71 -62c-55 -60 -116 -87 -198 -87zM138 287h250c1 6 1 14 0 21c-7 63 -51 109 -125 109c-83 0 -126 -64 -125 -130z" />
    <glyph glyph-name="f" unicode="f" horiz-adv-x="335" 
d="M107 0v412h-98v81h98v61c0 118 66 152 145 152c35 0 62 -7 87 -19l-33 -78c-13 7 -27 12 -43 12c-49 0 -55 -38 -55 -66v-62h125v-81h-125v-412h-101z" />
    <glyph glyph-name="g" unicode="g" horiz-adv-x="511" 
d="M137 131c0 -104 339 -12 339 -201c0 -100 -91 -143 -222 -143c-143 0 -227 53 -227 154c0 11 1 17 2 22l79 53c-35 19 -59 49 -59 99c0 43 17 73 49 98c-26 30 -41 69 -41 112c0 105 88 177 197 177c45 0 86 -12 119 -34l72 62l53 -64l-69 -58c15 -25 23 -55 23 -88
c0 -107 -88 -176 -195 -176c-36 0 -69 8 -98 21c-15 -8 -22 -19 -22 -34zM256 417c-59 0 -97 -38 -97 -95c0 -53 34 -95 96 -95s95 41 95 95c0 58 -36 95 -94 95zM259 -137c61 0 115 17 115 58c0 56 -103 52 -194 71l-51 -50c-1 -4 -1 -7 -1 -10c0 -50 64 -69 131 -69z" />
    <glyph glyph-name="gbreve" unicode="&#x11f;" horiz-adv-x="511" 
d="M257 565c-106 0 -154 47 -154 132h72c0 -49 35 -72 82 -72c49 0 81 25 81 72h73c0 -89 -53 -132 -154 -132zM137 131c0 -104 339 -12 339 -201c0 -100 -91 -143 -222 -143c-143 0 -227 53 -227 154c0 11 1 17 2 22l79 53c-35 19 -59 49 -59 99c0 43 17 73 49 98
c-26 30 -41 69 -41 112c0 105 88 177 197 177c45 0 86 -12 119 -34l72 62l53 -64l-69 -58c15 -25 23 -55 23 -88c0 -107 -88 -176 -195 -176c-36 0 -69 8 -98 21c-15 -8 -22 -19 -22 -34zM256 417c-59 0 -97 -38 -97 -95c0 -53 34 -95 96 -95s95 41 95 95
c0 58 -36 95 -94 95zM259 -137c61 0 115 17 115 58c0 56 -103 52 -194 71l-51 -50c-1 -4 -1 -7 -1 -10c0 -50 64 -69 131 -69z" />
    <glyph glyph-name="uni0123" unicode="&#x123;" horiz-adv-x="511" 
d="M347 705l-75 -152h-106l120 152h61zM137 131c0 -104 339 -12 339 -201c0 -100 -91 -143 -222 -143c-143 0 -227 53 -227 154c0 11 1 17 2 22l79 53c-35 19 -59 49 -59 99c0 43 17 73 49 98c-26 30 -41 69 -41 112c0 105 88 177 197 177c45 0 86 -12 119 -34l72 62l53 -64
l-69 -58c15 -25 23 -55 23 -88c0 -107 -88 -176 -195 -176c-36 0 -69 8 -98 21c-15 -8 -22 -19 -22 -34zM256 417c-59 0 -97 -38 -97 -95c0 -53 34 -95 96 -95s95 41 95 95c0 58 -36 95 -94 95zM259 -137c61 0 115 17 115 58c0 56 -103 52 -194 71l-51 -50
c-1 -4 -1 -7 -1 -10c0 -50 64 -69 131 -69z" />
    <glyph glyph-name="gdotaccent" unicode="&#x121;" horiz-adv-x="511" 
d="M310 697v-108h-107v108h107zM137 131c0 -104 339 -12 339 -201c0 -100 -91 -143 -222 -143c-143 0 -227 53 -227 154c0 11 1 17 2 22l79 53c-35 19 -59 49 -59 99c0 43 17 73 49 98c-26 30 -41 69 -41 112c0 105 88 177 197 177c45 0 86 -12 119 -34l72 62l53 -64
l-69 -58c15 -25 23 -55 23 -88c0 -107 -88 -176 -195 -176c-36 0 -69 8 -98 21c-15 -8 -22 -19 -22 -34zM256 417c-59 0 -97 -38 -97 -95c0 -53 34 -95 96 -95s95 41 95 95c0 58 -36 95 -94 95zM259 -137c61 0 115 17 115 58c0 56 -103 52 -194 71l-51 -50
c-1 -4 -1 -7 -1 -10c0 -50 64 -69 131 -69z" />
    <glyph glyph-name="h" unicode="h" horiz-adv-x="566" 
d="M76 0v697h102v-274c33 55 88 79 152 79c109 0 172 -66 172 -188v-314h-102v289c0 51 -9 124 -101 124c-110 0 -121 -106 -121 -205v-208h-102z" />
    <glyph glyph-name="hbar" unicode="&#x127;" horiz-adv-x="566" 
d="M330 502c109 0 172 -66 172 -188v-314h-102v289c0 51 -9 124 -101 124c-110 0 -121 -106 -121 -205v-208h-102v574h-46v69h46v54h102v-54h156v-69h-156v-151c33 55 88 79 152 79z" />
    <glyph glyph-name="i" unicode="i" horiz-adv-x="253" 
d="M73 589v108h107v-108h-107zM76 0v493h101v-493h-101z" />
    <glyph glyph-name="dotlessi" unicode="&#x131;" horiz-adv-x="253" 
d="M76 0v493h101v-493h-101z" />
    <glyph glyph-name="iacute" unicode="&#xed;" horiz-adv-x="253" 
d="M88 556l110 141h110l-144 -141h-76zM76 0v493h101v-493h-101z" />
    <glyph glyph-name="uni01D0" unicode="&#x1d0;" horiz-adv-x="253" 
d="M126 537l-153 160h80l73 -77l74 77h80zM76 0v493h101v-493h-101z" />
    <glyph glyph-name="icircumflex" unicode="&#xee;" horiz-adv-x="253" 
d="M-28 544l154 168l153 -168h-80l-73 81l-73 -81h-81zM76 0v493h101v-493h-101z" />
    <glyph glyph-name="idieresis" unicode="&#xef;" horiz-adv-x="253" 
d="M-12 589v108h86v-108h-86zM178 589v108h86v-108h-86zM76 0v493h101v-493h-101z" />
    <glyph glyph-name="i.loclTRK" horiz-adv-x="253" 
d="M73 589v108h107v-108h-107zM76 0v493h101v-493h-101z" />
    <glyph glyph-name="uni1ECB" unicode="&#x1ecb;" horiz-adv-x="253" 
d="M73 589v108h107v-108h-107zM76 0v493h101v-493h-101zM73 -173v107h107v-107h-107z" />
    <glyph glyph-name="igrave" unicode="&#xec;" horiz-adv-x="253" 
d="M88 556l-136 141h109l104 -141h-77zM76 0v493h101v-493h-101z" />
    <glyph glyph-name="uni1EC9" unicode="&#x1ec9;" horiz-adv-x="253" 
d="M117 532l-12 43c32 5 67 9 67 45c0 37 -41 41 -80 41h-15v57h15c85 0 146 -34 146 -97c0 -69 -70 -80 -121 -89zM76 0v493h101v-493h-101z" />
    <glyph glyph-name="imacron" unicode="&#x12b;" horiz-adv-x="253" 
d="M-11 578v60h273v-60h-273zM76 0v493h101v-493h-101z" />
    <glyph glyph-name="iogonek" unicode="&#x12f;" horiz-adv-x="253" 
d="M180 697v-108h-107v108h107zM169 -128l51 -36c-24 -33 -57 -55 -102 -55c-60 0 -105 37 -105 95c0 60 47 103 82 124h-19v493h101v-493c-19 -10 -102 -47 -102 -114c0 -31 18 -42 40 -42c21 0 39 10 54 28z" />
    <glyph glyph-name="itilde" unicode="&#x129;" horiz-adv-x="253" 
d="M191 561c-79 0 -89 76 -132 76c-24 0 -38 -26 -38 -71h-59c0 86 39 135 101 134c72 1 87 -75 129 -75c20 0 36 26 36 72h61c0 -87 -38 -136 -98 -136zM76 0v493h101v-493h-101z" />
    <glyph glyph-name="j" unicode="j" horiz-adv-x="254" 
d="M74 589v108h107v-108h-107zM70 -213c-22 0 -48 5 -74 14v82c16 -5 30 -7 41 -7c25 0 39 12 39 40v577h102v-584c0 -84 -45 -122 -108 -122z" />
    <glyph glyph-name="uni0237" unicode="&#x237;" horiz-adv-x="254" 
d="M70 -213c-22 0 -48 5 -74 14v82c16 -5 30 -7 41 -7c25 0 39 12 39 40v577h102v-584c0 -84 -45 -122 -108 -122z" />
    <glyph glyph-name="k" unicode="k" horiz-adv-x="543" 
d="M76 0v697h102v-426l204 222h137l-182 -189l206 -304h-121l-155 241l-89 -96v-145h-102z" />
    <glyph glyph-name="uni0137" unicode="&#x137;" horiz-adv-x="543" 
d="M76 0v697h102v-426l204 222h137l-182 -189l206 -304h-121l-155 241l-89 -96v-145h-102zM172 -224l74 170h107l-121 -170h-60z" />
    <glyph glyph-name="kgreenlandic" unicode="&#x138;" horiz-adv-x="543" 
d="M76 0v493h101v-226l209 226h132l-182 -189l206 -304h-121l-154 241l-90 -96v-145h-101z" />
    <glyph glyph-name="l" unicode="l" horiz-adv-x="274" 
d="M179 -9c-63 0 -108 38 -108 122v584h102v-577c0 -28 14 -40 39 -40c12 0 26 2 41 7v-82c-26 -9 -52 -14 -74 -14z" />
    <glyph glyph-name="lacute" unicode="&#x13a;" horiz-adv-x="274" 
d="M84 760l110 141h110l-144 -141h-76zM179 -9c-63 0 -108 38 -108 122v584h102v-577c0 -28 14 -40 39 -40c12 0 26 2 41 7v-82c-26 -9 -52 -14 -74 -14z" />
    <glyph glyph-name="lcaron" unicode="&#x13e;" horiz-adv-x="274" 
d="M179 -9c-63 0 -108 38 -108 122v584h102v-577c0 -28 14 -40 39 -40c12 0 26 2 41 7v-82c-26 -9 -52 -14 -74 -14zM210 479l57 218h107l-104 -218h-60z" />
    <glyph glyph-name="uni013C" unicode="&#x13c;" horiz-adv-x="274" 
d="M179 -9c-63 0 -108 38 -108 122v584h102v-577c0 -28 14 -40 39 -40c12 0 26 2 41 7v-82c-26 -9 -52 -14 -74 -14zM8 -224l74 170h107l-121 -170h-60z" />
    <glyph glyph-name="lslash" unicode="&#x142;" horiz-adv-x="274" 
d="M212 80c12 0 26 2 41 7v-82c-26 -9 -52 -14 -74 -14c-63 0 -108 38 -108 122v153l-58 -46v105l58 46v326h102v-246l67 53v-103l-67 -53v-228c0 -28 14 -40 39 -40z" />
    <glyph glyph-name="m" unicode="m" horiz-adv-x="846" 
d="M76 0v493h98v-72c30 60 82 81 136 81c58 0 117 -25 144 -105c36 78 93 105 159 105c118 0 169 -89 169 -194v-308h-102v278c0 53 -9 135 -94 135c-99 0 -106 -104 -106 -207v-206h-102v281c0 54 -12 132 -93 132c-99 0 -107 -104 -107 -207v-206h-102z" />
    <glyph glyph-name="n" unicode="n" horiz-adv-x="564" 
d="M76 0v493h101v-70c33 55 88 79 152 79c109 0 172 -66 172 -188v-314h-102v289c0 51 -9 124 -101 124c-110 0 -121 -106 -121 -205v-208h-101z" />
    <glyph glyph-name="nacute" unicode="&#x144;" horiz-adv-x="564" 
d="M244 556l110 141h110l-144 -141h-76zM76 0v493h101v-70c33 55 88 79 152 79c109 0 172 -66 172 -188v-314h-102v289c0 51 -9 124 -101 124c-110 0 -121 -106 -121 -205v-208h-101z" />
    <glyph glyph-name="napostrophe" unicode="&#x149;" horiz-adv-x="671" 
d="M-1 416l78 281h118l-128 -281h-68zM181 0v493h102v-70c33 55 88 79 151 79c110 0 172 -66 172 -188v-314h-101v289c0 51 -9 124 -101 124c-110 0 -121 -106 -121 -205v-208h-102z" />
    <glyph glyph-name="ncaron" unicode="&#x148;" horiz-adv-x="564" 
d="M282 537l-153 160h80l73 -77l74 77h80zM76 0v493h101v-70c33 55 88 79 152 79c109 0 172 -66 172 -188v-314h-102v289c0 51 -9 124 -101 124c-110 0 -121 -106 -121 -205v-208h-101z" />
    <glyph glyph-name="uni0146" unicode="&#x146;" horiz-adv-x="564" 
d="M76 0v493h101v-70c33 55 88 79 152 79c109 0 172 -66 172 -188v-314h-102v289c0 51 -9 124 -101 124c-110 0 -121 -106 -121 -205v-208h-101zM155 -224l74 170h107l-121 -170h-60z" />
    <glyph glyph-name="eng" unicode="&#x14b;" horiz-adv-x="565" 
d="M394 -213c-22 0 -48 5 -75 14v82c15 -5 29 -7 41 -7c25 0 39 12 39 40v376c0 48 -9 121 -101 121c-110 0 -121 -106 -121 -197v-216h-101v493h101v-66c33 51 88 75 152 75c109 0 172 -66 172 -182v-411c0 -84 -43 -122 -107 -122z" />
    <glyph glyph-name="ntilde" unicode="&#xf1;" horiz-adv-x="564" 
d="M347 561c-79 0 -89 76 -132 76c-24 0 -38 -26 -38 -71h-59c0 86 39 135 101 134c72 1 87 -75 129 -75c20 0 36 26 36 72h61c0 -87 -38 -136 -98 -136zM76 0v493h101v-70c33 55 88 79 152 79c109 0 172 -66 172 -188v-314h-102v289c0 51 -9 124 -101 124
c-110 0 -121 -106 -121 -205v-208h-101z" />
    <glyph glyph-name="o" unicode="o" horiz-adv-x="551" 
d="M275 -9c-149 0 -243 115 -243 256c0 142 94 255 243 255c148 0 244 -113 244 -255c0 -141 -96 -256 -244 -256zM275 80c97 0 142 76 142 167c0 92 -45 166 -142 166c-96 0 -141 -74 -141 -166c0 -91 45 -167 141 -167z" />
    <glyph glyph-name="oacute" unicode="&#xf3;" horiz-adv-x="551" 
d="M237 556l110 141h110l-144 -141h-76zM275 -9c-149 0 -243 115 -243 256c0 142 94 255 243 255c148 0 244 -113 244 -255c0 -141 -96 -256 -244 -256zM275 80c97 0 142 76 142 167c0 92 -45 166 -142 166c-96 0 -141 -74 -141 -166c0 -91 45 -167 141 -167z" />
    <glyph glyph-name="uni01D2" unicode="&#x1d2;" horiz-adv-x="551" 
d="M275 537l-153 160h80l73 -77l74 77h80zM275 -9c-149 0 -243 115 -243 256c0 142 94 255 243 255c148 0 244 -113 244 -255c0 -141 -96 -256 -244 -256zM275 80c97 0 142 76 142 167c0 92 -45 166 -142 166c-96 0 -141 -74 -141 -166c0 -91 45 -167 141 -167z" />
    <glyph glyph-name="ocircumflex" unicode="&#xf4;" horiz-adv-x="551" 
d="M121 544l154 168l153 -168h-80l-73 81l-73 -81h-81zM275 -9c-149 0 -243 115 -243 256c0 142 94 255 243 255c148 0 244 -113 244 -255c0 -141 -96 -256 -244 -256zM275 80c97 0 142 76 142 167c0 92 -45 166 -142 166c-96 0 -141 -74 -141 -166c0 -91 45 -167 141 -167z
" />
    <glyph glyph-name="uni1ED1" unicode="&#x1ed1;" horiz-adv-x="551" 
d="M237 744l110 141h110l-144 -141h-76zM121 544l154 168l153 -168h-80l-73 81l-73 -81h-81zM275 -9c-149 0 -243 115 -243 256c0 142 94 255 243 255c148 0 244 -113 244 -255c0 -141 -96 -256 -244 -256zM275 80c97 0 142 76 142 167c0 92 -45 166 -142 166
c-96 0 -141 -74 -141 -166c0 -91 45 -167 141 -167z" />
    <glyph glyph-name="uni1ED9" unicode="&#x1ed9;" horiz-adv-x="551" 
d="M121 544l154 168l153 -168h-80l-73 81l-73 -81h-81zM275 -9c-149 0 -243 115 -243 256c0 142 94 255 243 255c148 0 244 -113 244 -255c0 -141 -96 -256 -244 -256zM275 80c97 0 142 76 142 167c0 92 -45 166 -142 166c-96 0 -141 -74 -141 -166c0 -91 45 -167 141 -167z
M222 -173v107h107v-107h-107z" />
    <glyph glyph-name="uni1ED3" unicode="&#x1ed3;" horiz-adv-x="551" 
d="M237 744l-136 141h109l104 -141h-77zM121 544l154 168l153 -168h-80l-73 81l-73 -81h-81zM275 -9c-149 0 -243 115 -243 256c0 142 94 255 243 255c148 0 244 -113 244 -255c0 -141 -96 -256 -244 -256zM275 80c97 0 142 76 142 167c0 92 -45 166 -142 166
c-96 0 -141 -74 -141 -166c0 -91 45 -167 141 -167z" />
    <glyph glyph-name="uni1ED5" unicode="&#x1ed5;" horiz-adv-x="551" 
d="M266 720l-12 43c32 5 67 9 67 45c0 37 -41 41 -80 41h-15v57h15c85 0 146 -34 146 -97c0 -69 -70 -80 -121 -89zM121 544l154 168l153 -168h-80l-73 81l-73 -81h-81zM275 -9c-149 0 -243 115 -243 256c0 142 94 255 243 255c148 0 244 -113 244 -255
c0 -141 -96 -256 -244 -256zM275 80c97 0 142 76 142 167c0 92 -45 166 -142 166c-96 0 -141 -74 -141 -166c0 -91 45 -167 141 -167z" />
    <glyph glyph-name="uni1ED7" unicode="&#x1ed7;" horiz-adv-x="551" 
d="M340 749c-79 0 -89 76 -132 76c-24 0 -38 -26 -38 -71h-59c0 86 39 135 101 134c72 1 87 -75 129 -75c20 0 36 26 36 72h61c0 -87 -38 -136 -98 -136zM121 544l154 168l153 -168h-80l-73 81l-73 -81h-81zM275 -9c-149 0 -243 115 -243 256c0 142 94 255 243 255
c148 0 244 -113 244 -255c0 -141 -96 -256 -244 -256zM275 80c97 0 142 76 142 167c0 92 -45 166 -142 166c-96 0 -141 -74 -141 -166c0 -91 45 -167 141 -167z" />
    <glyph glyph-name="odieresis" unicode="&#xf6;" horiz-adv-x="551" 
d="M137 589v108h86v-108h-86zM327 589v108h86v-108h-86zM275 -9c-149 0 -243 115 -243 256c0 142 94 255 243 255c148 0 244 -113 244 -255c0 -141 -96 -256 -244 -256zM275 80c97 0 142 76 142 167c0 92 -45 166 -142 166c-96 0 -141 -74 -141 -166c0 -91 45 -167 141 -167
z" />
    <glyph glyph-name="uni1ECD" unicode="&#x1ecd;" horiz-adv-x="551" 
d="M275 -9c-149 0 -243 115 -243 256c0 142 94 255 243 255c148 0 244 -113 244 -255c0 -141 -96 -256 -244 -256zM275 80c97 0 142 76 142 167c0 92 -45 166 -142 166c-96 0 -141 -74 -141 -166c0 -91 45 -167 141 -167zM222 -173v107h107v-107h-107z" />
    <glyph glyph-name="ograve" unicode="&#xf2;" horiz-adv-x="551" 
d="M237 556l-136 141h109l104 -141h-77zM275 -9c-149 0 -243 115 -243 256c0 142 94 255 243 255c148 0 244 -113 244 -255c0 -141 -96 -256 -244 -256zM275 80c97 0 142 76 142 167c0 92 -45 166 -142 166c-96 0 -141 -74 -141 -166c0 -91 45 -167 141 -167z" />
    <glyph glyph-name="uni1ECF" unicode="&#x1ecf;" horiz-adv-x="551" 
d="M266 532l-12 43c32 5 67 9 67 45c0 37 -41 41 -80 41h-15v57h15c85 0 146 -34 146 -97c0 -69 -70 -80 -121 -89zM275 -9c-149 0 -243 115 -243 256c0 142 94 255 243 255c148 0 244 -113 244 -255c0 -141 -96 -256 -244 -256zM275 80c97 0 142 76 142 167
c0 92 -45 166 -142 166c-96 0 -141 -74 -141 -166c0 -91 45 -167 141 -167z" />
    <glyph glyph-name="ohorn" unicode="&#x1a1;" horiz-adv-x="551" 
d="M525 552h77v-42c0 -77 -30 -138 -103 -156c13 -32 20 -69 20 -107c0 -141 -96 -256 -244 -256c-149 0 -243 115 -243 256c0 142 94 255 243 255c79 0 144 -33 187 -85c50 5 63 46 63 85v50zM275 80c97 0 142 76 142 167c0 92 -45 166 -142 166c-96 0 -141 -74 -141 -166
c0 -91 45 -167 141 -167z" />
    <glyph glyph-name="uni1EDB" unicode="&#x1edb;" horiz-adv-x="551" 
d="M457 697l-144 -141h-76l110 141h110zM525 552h77v-42c0 -77 -30 -138 -103 -156c13 -32 20 -69 20 -107c0 -141 -96 -256 -244 -256c-149 0 -243 115 -243 256c0 142 94 255 243 255c79 0 144 -33 187 -85c50 5 63 46 63 85v50zM275 80c97 0 142 76 142 167
c0 92 -45 166 -142 166c-96 0 -141 -74 -141 -166c0 -91 45 -167 141 -167z" />
    <glyph glyph-name="uni1EE3" unicode="&#x1ee3;" horiz-adv-x="551" 
d="M525 552h77v-42c0 -77 -30 -138 -103 -156c13 -32 20 -69 20 -107c0 -141 -96 -256 -244 -256c-149 0 -243 115 -243 256c0 142 94 255 243 255c79 0 144 -33 187 -85c50 5 63 46 63 85v50zM275 80c97 0 142 76 142 167c0 92 -45 166 -142 166c-96 0 -141 -74 -141 -166
c0 -91 45 -167 141 -167zM222 -173v107h107v-107h-107z" />
    <glyph glyph-name="uni1EDD" unicode="&#x1edd;" horiz-adv-x="551" 
d="M314 556h-77l-136 141h109zM525 552h77v-42c0 -77 -30 -138 -103 -156c13 -32 20 -69 20 -107c0 -141 -96 -256 -244 -256c-149 0 -243 115 -243 256c0 142 94 255 243 255c79 0 144 -33 187 -85c50 5 63 46 63 85v50zM275 80c97 0 142 76 142 167c0 92 -45 166 -142 166
c-96 0 -141 -74 -141 -166c0 -91 45 -167 141 -167z" />
    <glyph glyph-name="uni1EDF" unicode="&#x1edf;" horiz-adv-x="551" 
d="M321 620c0 37 -41 41 -80 41h-15v57h15c85 0 146 -34 146 -97c0 -69 -70 -80 -121 -89l-12 43c32 5 67 9 67 45zM525 552h77v-42c0 -77 -30 -138 -103 -156c13 -32 20 -69 20 -107c0 -141 -96 -256 -244 -256c-149 0 -243 115 -243 256c0 142 94 255 243 255
c79 0 144 -33 187 -85c50 5 63 46 63 85v50zM275 80c97 0 142 76 142 167c0 92 -45 166 -142 166c-96 0 -141 -74 -141 -166c0 -91 45 -167 141 -167z" />
    <glyph glyph-name="uni1EE1" unicode="&#x1ee1;" horiz-adv-x="551" 
d="M208 637c-24 0 -38 -26 -38 -71h-59c0 86 39 135 101 134c72 1 87 -75 129 -75c20 0 36 26 36 72h61c0 -87 -38 -136 -98 -136c-79 0 -89 76 -132 76zM525 552h77v-42c0 -77 -30 -138 -103 -156c13 -32 20 -69 20 -107c0 -141 -96 -256 -244 -256
c-149 0 -243 115 -243 256c0 142 94 255 243 255c79 0 144 -33 187 -85c50 5 63 46 63 85v50zM275 80c97 0 142 76 142 167c0 92 -45 166 -142 166c-96 0 -141 -74 -141 -166c0 -91 45 -167 141 -167z" />
    <glyph glyph-name="ohungarumlaut" unicode="&#x151;" horiz-adv-x="551" 
d="M145 538l110 159h92l-126 -159h-76zM330 538l109 159h109l-143 -159h-75zM275 -9c-149 0 -243 115 -243 256c0 142 94 255 243 255c148 0 244 -113 244 -255c0 -141 -96 -256 -244 -256zM275 80c97 0 142 76 142 167c0 92 -45 166 -142 166c-96 0 -141 -74 -141 -166
c0 -91 45 -167 141 -167z" />
    <glyph glyph-name="omacron" unicode="&#x14d;" horiz-adv-x="551" 
d="M138 578v60h273v-60h-273zM275 -9c-149 0 -243 115 -243 256c0 142 94 255 243 255c148 0 244 -113 244 -255c0 -141 -96 -256 -244 -256zM275 80c97 0 142 76 142 167c0 92 -45 166 -142 166c-96 0 -141 -74 -141 -166c0 -91 45 -167 141 -167z" />
    <glyph glyph-name="oslash" unicode="&#xf8;" horiz-adv-x="551" 
d="M435 445c53 -47 84 -118 84 -198c0 -141 -96 -256 -244 -256c-39 0 -74 8 -105 22l-35 -58h-76l57 93c-54 47 -84 119 -84 199c0 142 94 255 243 255c39 0 74 -8 105 -22l35 58h77zM134 247c0 -44 11 -85 33 -115l165 271c-16 6 -35 10 -57 10c-96 0 -141 -74 -141 -166z
M275 80c97 0 142 76 142 167c0 45 -11 85 -33 115l-166 -271c17 -7 36 -11 57 -11z" />
    <glyph glyph-name="otilde" unicode="&#xf5;" horiz-adv-x="551" 
d="M340 561c-79 0 -89 76 -132 76c-24 0 -38 -26 -38 -71h-59c0 86 39 135 101 134c72 1 87 -75 129 -75c20 0 36 26 36 72h61c0 -87 -38 -136 -98 -136zM275 -9c-149 0 -243 115 -243 256c0 142 94 255 243 255c148 0 244 -113 244 -255c0 -141 -96 -256 -244 -256zM275 80
c97 0 142 76 142 167c0 92 -45 166 -142 166c-96 0 -141 -74 -141 -166c0 -91 45 -167 141 -167z" />
    <glyph glyph-name="oe" unicode="&#x153;" horiz-adv-x="913" 
d="M880 261c0 -20 -2 -39 -4 -47h-346c8 -80 51 -131 136 -131c49 0 89 15 126 57l71 -62c-55 -60 -116 -87 -198 -87c-90 0 -154 36 -194 90c-44 -55 -111 -90 -192 -90c-148 0 -248 116 -248 256c0 141 100 255 248 255c82 0 149 -35 193 -90c38 54 100 90 185 90
c168 0 223 -135 223 -241zM530 289h250c0 10 -1 21 -3 30c-10 57 -54 97 -121 97c-77 0 -116 -53 -126 -127zM279 79c97 0 142 79 142 168c0 90 -45 167 -142 167c-96 0 -141 -76 -141 -167c0 -90 45 -168 141 -168z" />
    <glyph glyph-name="p" unicode="p" horiz-adv-x="577" 
d="M76 -204v697h102v-69c33 52 92 78 154 78c133 0 208 -109 208 -256c0 -158 -86 -255 -208 -255c-64 0 -124 31 -154 79v-274h-102zM307 80c87 0 131 64 131 167c0 104 -43 166 -130 166c-93 0 -139 -70 -139 -166c0 -95 46 -167 138 -167z" />
    <glyph glyph-name="thorn" unicode="&#xfe;" horiz-adv-x="577" 
d="M77 -204v901h101v-273c33 52 93 78 154 78c133 0 208 -109 208 -256c0 -158 -86 -255 -208 -255c-64 0 -123 31 -154 79v-274h-101zM307 80c87 0 131 64 131 167c0 104 -43 166 -130 166c-93 0 -139 -70 -139 -166c0 -95 46 -167 138 -167z" />
    <glyph glyph-name="q" unicode="q" horiz-adv-x="576" 
d="M398 -204v274c-30 -48 -89 -79 -153 -79c-123 0 -208 97 -208 255c0 147 74 256 208 256c61 0 121 -26 153 -78v69h102v-697h-102zM270 80c92 0 138 72 138 167c0 96 -46 166 -139 166c-88 0 -130 -62 -130 -166c0 -103 43 -167 131 -167z" />
    <glyph glyph-name="r" unicode="r" horiz-adv-x="400" 
d="M76 0v493h102v-90c22 66 82 99 139 99c31 0 59 -7 89 -25l-50 -90c-17 10 -36 16 -59 16c-74 0 -120 -46 -120 -147v-256h-101z" />
    <glyph glyph-name="racute" unicode="&#x155;" horiz-adv-x="400" 
d="M163 556l110 141h110l-144 -141h-76zM76 0v493h102v-90c22 66 82 99 139 99c31 0 59 -7 89 -25l-50 -90c-17 10 -36 16 -59 16c-74 0 -120 -46 -120 -147v-256h-101z" />
    <glyph glyph-name="rcaron" unicode="&#x159;" horiz-adv-x="400" 
d="M200 537l-153 160h80l73 -77l74 77h80zM76 0v493h102v-90c22 66 82 99 139 99c31 0 59 -7 89 -25l-50 -90c-17 10 -36 16 -59 16c-74 0 -120 -46 -120 -147v-256h-101z" />
    <glyph glyph-name="uni0157" unicode="&#x157;" horiz-adv-x="400" 
d="M76 0v493h102v-90c22 66 82 99 139 99c31 0 59 -7 89 -25l-50 -90c-17 10 -36 16 -59 16c-74 0 -120 -46 -120 -147v-256h-101zM73 -224l74 170h107l-121 -170h-60z" />
    <glyph glyph-name="s" unicode="s" horiz-adv-x="453" 
d="M227 -9c-102 0 -180 60 -205 135l82 37c15 -42 49 -87 118 -87c62 0 91 34 91 69c0 100 -260 35 -260 209c0 100 83 148 178 148c82 0 146 -39 182 -105l-79 -44c-19 36 -50 68 -107 68c-47 0 -76 -23 -76 -52c0 -91 262 -36 262 -219c0 -109 -92 -159 -186 -159z" />
    <glyph glyph-name="sacute" unicode="&#x15b;" horiz-adv-x="453" 
d="M189 556l110 141h110l-144 -141h-76zM227 -9c-102 0 -180 60 -205 135l82 37c15 -42 49 -87 118 -87c62 0 91 34 91 69c0 100 -260 35 -260 209c0 100 83 148 178 148c82 0 146 -39 182 -105l-79 -44c-19 36 -50 68 -107 68c-47 0 -76 -23 -76 -52
c0 -91 262 -36 262 -219c0 -109 -92 -159 -186 -159z" />
    <glyph glyph-name="scaron" unicode="&#x161;" horiz-adv-x="453" 
d="M227 537l-153 160h80l73 -77l74 77h80zM227 -9c-102 0 -180 60 -205 135l82 37c15 -42 49 -87 118 -87c62 0 91 34 91 69c0 100 -260 35 -260 209c0 100 83 148 178 148c82 0 146 -39 182 -105l-79 -44c-19 36 -50 68 -107 68c-47 0 -76 -23 -76 -52
c0 -91 262 -36 262 -219c0 -109 -92 -159 -186 -159z" />
    <glyph glyph-name="scedilla" unicode="&#x15f;" horiz-adv-x="453" 
d="M151 369c0 -91 262 -36 262 -219c0 -100 -77 -150 -162 -158l-33 -47c21 -3 39 -9 55 -17c30 -16 47 -43 47 -78c0 -61 -45 -107 -109 -107c-27 0 -61 10 -87 37l33 49c19 -20 40 -27 56 -27c29 0 47 18 47 46c0 30 -25 46 -54 52c-20 3 -44 5 -68 5l54 88
c-85 12 -148 67 -170 133l82 37c15 -42 49 -87 118 -87c62 0 91 34 91 69c0 100 -260 35 -260 209c0 100 83 148 178 148c82 0 146 -39 182 -105l-79 -44c-19 36 -50 68 -107 68c-47 0 -76 -23 -76 -52z" />
    <glyph glyph-name="uni0219" unicode="&#x219;" horiz-adv-x="453" 
d="M227 -9c-102 0 -180 60 -205 135l82 37c15 -42 49 -87 118 -87c62 0 91 34 91 69c0 100 -260 35 -260 209c0 100 83 148 178 148c82 0 146 -39 182 -105l-79 -44c-19 36 -50 68 -107 68c-47 0 -76 -23 -76 -52c0 -91 262 -36 262 -219c0 -109 -92 -159 -186 -159z
M99 -224l74 170h107l-121 -170h-60z" />
    <glyph glyph-name="germandbls" unicode="&#xdf;" horiz-adv-x="635" 
d="M429 -9c-102 0 -180 60 -205 135l82 37c15 -42 48 -87 118 -87c62 0 91 34 91 69c0 100 -261 38 -261 213c0 156 201 117 201 193c0 39 -57 61 -121 61c-149 0 -152 -105 -152 -172v-440h-106v440c0 118 33 267 253 267c135 0 226 -57 226 -149
c0 -154 -201 -128 -201 -198c0 -83 261 -26 261 -210c0 -109 -92 -159 -186 -159z" />
    <glyph glyph-name="t" unicode="t" horiz-adv-x="351" 
d="M318 412h-122v-274c0 -43 23 -62 62 -62c17 0 38 4 60 11v-82c-29 -9 -57 -14 -85 -14c-77 0 -139 41 -139 139v282h-80v81h80v123l102 76v-199h122v-81z" />
    <glyph glyph-name="tbar" unicode="&#x167;" horiz-adv-x="351" 
d="M318 412h-122v-131h121v-69h-121v-74c0 -43 23 -62 62 -62c17 0 38 4 60 11v-82c-29 -9 -57 -14 -85 -14c-77 0 -139 41 -139 139v82h-81v69h81v131h-80v81h80v123l102 76v-199h122v-81z" />
    <glyph glyph-name="tcaron" unicode="&#x165;" horiz-adv-x="351" 
d="M415 785l-104 -218h-60l57 218h107zM196 692v-199h122v-81h-122v-274c0 -43 23 -62 62 -62c17 0 38 4 60 11v-82c-29 -9 -57 -14 -85 -14c-77 0 -139 41 -139 139v282h-80v81h80v123z" />
    <glyph glyph-name="uni0163" unicode="&#x163;" horiz-adv-x="351" 
d="M318 412h-122v-274c0 -43 23 -62 62 -62c17 0 38 4 60 11v-82c-29 -9 -57 -14 -85 -14h-2l-33 -46c21 -3 39 -9 55 -17c30 -16 47 -43 47 -78c0 -61 -45 -107 -109 -107c-27 0 -61 10 -87 37l33 49c19 -20 40 -27 56 -27c29 0 47 18 47 46c0 30 -25 46 -54 52
c-20 3 -44 5 -68 5l58 95c-48 17 -82 58 -82 130v282h-80v81h80v123l102 76v-199h122v-81z" />
    <glyph glyph-name="uni021B" unicode="&#x21b;" horiz-adv-x="351" 
d="M318 412h-122v-274c0 -43 23 -62 62 -62c17 0 38 4 60 11v-82c-29 -9 -57 -14 -85 -14c-77 0 -139 41 -139 139v282h-80v81h80v123l102 76v-199h122v-81zM79 -224l74 170h107l-121 -170h-60z" />
    <glyph glyph-name="u" unicode="u" horiz-adv-x="564" 
d="M237 -9c-120 0 -173 85 -173 196v306h101v-280c0 -51 9 -133 101 -133c110 0 121 114 121 213v200h102v-493h-102v70c-33 -55 -88 -79 -150 -79z" />
    <glyph glyph-name="uacute" unicode="&#xfa;" horiz-adv-x="564" 
d="M238 556l110 141h110l-144 -141h-76zM237 -9c-120 0 -173 85 -173 196v306h101v-280c0 -51 9 -133 101 -133c110 0 121 114 121 213v200h102v-493h-102v70c-33 -55 -88 -79 -150 -79z" />
    <glyph glyph-name="uni01D4" unicode="&#x1d4;" horiz-adv-x="564" 
d="M275 537l-153 160h80l73 -77l74 77h80zM237 -9c-120 0 -173 85 -173 196v306h101v-280c0 -51 9 -133 101 -133c110 0 121 114 121 213v200h102v-493h-102v70c-33 -55 -88 -79 -150 -79z" />
    <glyph glyph-name="ucircumflex" unicode="&#xfb;" horiz-adv-x="564" 
d="M122 544l154 168l153 -168h-80l-73 81l-73 -81h-81zM237 -9c-120 0 -173 85 -173 196v306h101v-280c0 -51 9 -133 101 -133c110 0 121 114 121 213v200h102v-493h-102v70c-33 -55 -88 -79 -150 -79z" />
    <glyph glyph-name="udieresis" unicode="&#xfc;" horiz-adv-x="564" 
d="M137 589v108h86v-108h-86zM327 589v108h86v-108h-86zM237 -9c-120 0 -173 85 -173 196v306h101v-280c0 -51 9 -133 101 -133c110 0 121 114 121 213v200h102v-493h-102v70c-33 -55 -88 -79 -150 -79z" />
    <glyph glyph-name="uni01D8" unicode="&#x1d8;" horiz-adv-x="564" 
d="M238 760l110 141h110l-144 -141h-76zM137 589v108h86v-108h-86zM327 589v108h86v-108h-86zM237 -9c-120 0 -173 85 -173 196v306h101v-280c0 -51 9 -133 101 -133c110 0 121 114 121 213v200h102v-493h-102v70c-33 -55 -88 -79 -150 -79z" />
    <glyph glyph-name="uni01DA" unicode="&#x1da;" horiz-adv-x="564" 
d="M275 741l-153 160h80l73 -77l74 77h80zM137 589v108h86v-108h-86zM327 589v108h86v-108h-86zM237 -9c-120 0 -173 85 -173 196v306h101v-280c0 -51 9 -133 101 -133c110 0 121 114 121 213v200h102v-493h-102v70c-33 -55 -88 -79 -150 -79z" />
    <glyph glyph-name="uni01DC" unicode="&#x1dc;" horiz-adv-x="564" 
d="M237 760l-136 141h109l104 -141h-77zM137 589v108h86v-108h-86zM327 589v108h86v-108h-86zM237 -9c-120 0 -173 85 -173 196v306h101v-280c0 -51 9 -133 101 -133c110 0 121 114 121 213v200h102v-493h-102v70c-33 -55 -88 -79 -150 -79z" />
    <glyph glyph-name="uni01D6" unicode="&#x1d6;" horiz-adv-x="564" 
d="M139 782v60h273v-60h-273zM137 589v108h86v-108h-86zM327 589v108h86v-108h-86zM237 -9c-120 0 -173 85 -173 196v306h101v-280c0 -51 9 -133 101 -133c110 0 121 114 121 213v200h102v-493h-102v70c-33 -55 -88 -79 -150 -79z" />
    <glyph glyph-name="uni1EE5" unicode="&#x1ee5;" horiz-adv-x="564" 
d="M237 -9c-120 0 -173 85 -173 196v306h101v-280c0 -51 9 -133 101 -133c110 0 121 114 121 213v200h102v-493h-102v70c-33 -55 -88 -79 -150 -79zM228 -173v107h107v-107h-107z" />
    <glyph glyph-name="ugrave" unicode="&#xf9;" horiz-adv-x="564" 
d="M237 556l-136 141h109l104 -141h-77zM237 -9c-120 0 -173 85 -173 196v306h101v-280c0 -51 9 -133 101 -133c110 0 121 114 121 213v200h102v-493h-102v70c-33 -55 -88 -79 -150 -79z" />
    <glyph glyph-name="uni1EE7" unicode="&#x1ee7;" horiz-adv-x="564" 
d="M266 532l-12 43c32 5 67 9 67 45c0 37 -41 41 -80 41h-15v57h15c85 0 146 -34 146 -97c0 -69 -70 -80 -121 -89zM237 -9c-120 0 -173 85 -173 196v306h101v-280c0 -51 9 -133 101 -133c110 0 121 114 121 213v200h102v-493h-102v70c-33 -55 -88 -79 -150 -79z" />
    <glyph glyph-name="uhorn" unicode="&#x1b0;" horiz-adv-x="564" 
d="M493 627h77v-42c0 -68 -24 -125 -81 -149v-436h-102v70c-33 -55 -88 -79 -150 -79c-120 0 -173 85 -173 196v306h101v-280c0 -51 9 -133 101 -133c110 0 121 114 121 213v200h48c46 7 58 47 58 84v50z" />
    <glyph glyph-name="uni1EE9" unicode="&#x1ee9;" horiz-adv-x="564" 
d="M458 697l-144 -141h-76l110 141h110zM493 627h77v-42c0 -68 -24 -125 -81 -149v-436h-102v70c-33 -55 -88 -79 -150 -79c-120 0 -173 85 -173 196v306h101v-280c0 -51 9 -133 101 -133c110 0 121 114 121 213v200h48c46 7 58 47 58 84v50z" />
    <glyph glyph-name="uni1EF1" unicode="&#x1ef1;" horiz-adv-x="564" 
d="M493 627h77v-42c0 -68 -24 -125 -81 -149v-436h-102v70c-33 -55 -88 -79 -150 -79c-120 0 -173 85 -173 196v306h101v-280c0 -51 9 -133 101 -133c110 0 121 114 121 213v200h48c46 7 58 47 58 84v50zM228 -173v107h107v-107h-107z" />
    <glyph glyph-name="uni1EEB" unicode="&#x1eeb;" horiz-adv-x="564" 
d="M314 556h-77l-136 141h109zM493 627h77v-42c0 -68 -24 -125 -81 -149v-436h-102v70c-33 -55 -88 -79 -150 -79c-120 0 -173 85 -173 196v306h101v-280c0 -51 9 -133 101 -133c110 0 121 114 121 213v200h48c46 7 58 47 58 84v50z" />
    <glyph glyph-name="uni1EED" unicode="&#x1eed;" horiz-adv-x="564" 
d="M321 620c0 37 -41 41 -80 41h-15v57h15c85 0 146 -34 146 -97c0 -69 -70 -80 -121 -89l-12 43c32 5 67 9 67 45zM493 627h77v-42c0 -68 -24 -125 -81 -149v-436h-102v70c-33 -55 -88 -79 -150 -79c-120 0 -173 85 -173 196v306h101v-280c0 -51 9 -133 101 -133
c110 0 121 114 121 213v200h48c46 7 58 47 58 84v50z" />
    <glyph glyph-name="uni1EEF" unicode="&#x1eef;" horiz-adv-x="564" 
d="M209 637c-24 0 -38 -26 -38 -71h-59c0 86 39 135 101 134c72 1 87 -75 129 -75c20 0 36 26 36 72h61c0 -87 -38 -136 -98 -136c-79 0 -89 76 -132 76zM493 627h77v-42c0 -68 -24 -125 -81 -149v-436h-102v70c-33 -55 -88 -79 -150 -79c-120 0 -173 85 -173 196v306h101
v-280c0 -51 9 -133 101 -133c110 0 121 114 121 213v200h48c46 7 58 47 58 84v50z" />
    <glyph glyph-name="uhungarumlaut" unicode="&#x171;" horiz-adv-x="564" 
d="M145 538l110 159h92l-126 -159h-76zM330 538l109 159h109l-143 -159h-75zM237 -9c-120 0 -173 85 -173 196v306h101v-280c0 -51 9 -133 101 -133c110 0 121 114 121 213v200h102v-493h-102v70c-33 -55 -88 -79 -150 -79z" />
    <glyph glyph-name="umacron" unicode="&#x16b;" horiz-adv-x="564" 
d="M139 578v60h273v-60h-273zM237 -9c-120 0 -173 85 -173 196v306h101v-280c0 -51 9 -133 101 -133c110 0 121 114 121 213v200h102v-493h-102v70c-33 -55 -88 -79 -150 -79z" />
    <glyph glyph-name="uogonek" unicode="&#x173;" horiz-adv-x="564" 
d="M480 -128l51 -36c-24 -33 -57 -55 -102 -55c-60 0 -105 37 -105 95c0 60 47 103 82 124h-19v70c-33 -55 -88 -79 -150 -79c-120 0 -173 85 -173 196v306h101v-280c0 -51 9 -133 101 -133c110 0 121 114 121 213v200h102v-493h-1c-19 -10 -102 -47 -102 -114
c0 -31 18 -42 40 -42c21 0 39 10 54 28z" />
    <glyph glyph-name="uring" unicode="&#x16f;" horiz-adv-x="564" 
d="M276 531c-61 0 -108 50 -108 108c0 60 48 108 108 108c58 0 108 -47 108 -108c0 -59 -49 -108 -108 -108zM276 587c30 0 52 23 52 53s-20 51 -52 51s-52 -21 -52 -51s22 -53 52 -53zM237 -9c-120 0 -173 85 -173 196v306h101v-280c0 -51 9 -133 101 -133
c110 0 121 114 121 213v200h102v-493h-102v70c-33 -55 -88 -79 -150 -79z" />
    <glyph glyph-name="utilde" unicode="&#x169;" horiz-adv-x="564" 
d="M341 561c-79 0 -89 76 -132 76c-24 0 -38 -26 -38 -71h-59c0 86 39 135 101 134c72 1 87 -75 129 -75c20 0 36 26 36 72h61c0 -87 -38 -136 -98 -136zM237 -9c-120 0 -173 85 -173 196v306h101v-280c0 -51 9 -133 101 -133c110 0 121 114 121 213v200h102v-493h-102v70
c-33 -55 -88 -79 -150 -79z" />
    <glyph glyph-name="v" unicode="v" horiz-adv-x="491" 
d="M203 0l-201 493h111l132 -361l134 361h110l-201 -493h-85z" />
    <glyph glyph-name="w" unicode="w" horiz-adv-x="725" 
d="M160 0l-149 493h109l92 -338l106 338h88l106 -337l93 337h109l-149 -493h-93l-109 350l-110 -350h-93z" />
    <glyph glyph-name="wacute" unicode="&#x1e83;" horiz-adv-x="725" 
d="M324 556l110 141h110l-144 -141h-76zM160 0l-149 493h109l92 -338l106 338h88l106 -337l93 337h109l-149 -493h-93l-109 350l-110 -350h-93z" />
    <glyph glyph-name="wcircumflex" unicode="&#x175;" horiz-adv-x="725" 
d="M209 544l154 168l153 -168h-80l-73 81l-73 -81h-81zM160 0l-149 493h109l92 -338l106 338h88l106 -337l93 337h109l-149 -493h-93l-109 350l-110 -350h-93z" />
    <glyph glyph-name="wdieresis" unicode="&#x1e85;" horiz-adv-x="725" 
d="M224 589v108h86v-108h-86zM414 589v108h86v-108h-86zM160 0l-149 493h109l92 -338l106 338h88l106 -337l93 337h109l-149 -493h-93l-109 350l-110 -350h-93z" />
    <glyph glyph-name="wgrave" unicode="&#x1e81;" horiz-adv-x="725" 
d="M324 556l-136 141h109l104 -141h-77zM160 0l-149 493h109l92 -338l106 338h88l106 -337l93 337h109l-149 -493h-93l-109 350l-110 -350h-93z" />
    <glyph glyph-name="x" unicode="x" horiz-adv-x="500" 
d="M9 0l173 248l-173 245h125l116 -175l116 175h125l-174 -245l174 -248h-125l-116 178l-116 -178h-125z" />
    <glyph glyph-name="y" unicode="y" horiz-adv-x="503" 
d="M115 -204l85 215l-198 482h112l141 -365l134 365h112l-276 -697h-110z" />
    <glyph glyph-name="yacute" unicode="&#xfd;" horiz-adv-x="503" 
d="M214 556l110 141h110l-144 -141h-76zM115 -204l85 215l-198 482h112l141 -365l134 365h112l-276 -697h-110z" />
    <glyph glyph-name="ycircumflex" unicode="&#x177;" horiz-adv-x="503" 
d="M98 544l154 168l153 -168h-80l-73 81l-73 -81h-81zM115 -204l85 215l-198 482h112l141 -365l134 365h112l-276 -697h-110z" />
    <glyph glyph-name="ydieresis" unicode="&#xff;" horiz-adv-x="503" 
d="M114 589v108h86v-108h-86zM304 589v108h86v-108h-86zM115 -204l85 215l-198 482h112l141 -365l134 365h112l-276 -697h-110z" />
    <glyph glyph-name="uni1EF5" unicode="&#x1ef5;" horiz-adv-x="503" 
d="M115 -204l85 215l-198 482h112l141 -365l134 365h112l-276 -697h-110zM354 -204v107h107v-107h-107z" />
    <glyph glyph-name="ygrave" unicode="&#x1ef3;" horiz-adv-x="503" 
d="M214 556l-136 141h109l104 -141h-77zM115 -204l85 215l-198 482h112l141 -365l134 365h112l-276 -697h-110z" />
    <glyph glyph-name="uni1EF7" unicode="&#x1ef7;" horiz-adv-x="503" 
d="M243 532l-12 43c32 5 67 9 67 45c0 37 -41 41 -80 41h-15v57h15c85 0 146 -34 146 -97c0 -69 -70 -80 -121 -89zM115 -204l85 215l-198 482h112l141 -365l134 365h112l-276 -697h-110z" />
    <glyph glyph-name="uni1EF9" unicode="&#x1ef9;" horiz-adv-x="503" 
d="M317 561c-79 0 -89 76 -132 76c-24 0 -38 -26 -38 -71h-59c0 86 39 135 101 134c72 1 87 -75 129 -75c20 0 36 26 36 72h61c0 -87 -38 -136 -98 -136zM115 -204l85 215l-198 482h112l141 -365l134 365h112l-276 -697h-110z" />
    <glyph glyph-name="z" unicode="z" horiz-adv-x="487" 
d="M453 493v-75l-289 -332h288v-86h-426v69l299 338h-284v86h412z" />
    <glyph glyph-name="zacute" unicode="&#x17a;" horiz-adv-x="487" 
d="M425 697l-144 -141h-76l110 141h110zM453 493v-75l-289 -332h288v-86h-426v69l299 338h-284v86h412z" />
    <glyph glyph-name="zcaron" unicode="&#x17e;" horiz-adv-x="487" 
d="M397 697l-154 -160l-153 160h80l73 -77l74 77h80zM453 493v-75l-289 -332h288v-86h-426v69l299 338h-284v86h412z" />
    <glyph glyph-name="zdotaccent" unicode="&#x17c;" horiz-adv-x="487" 
d="M296 697v-108h-107v108h107zM453 493v-75l-289 -332h288v-86h-426v69l299 338h-284v86h412z" />
    <glyph glyph-name="g.ss01" horiz-adv-x="580" 
d="M265 -215c-115 0 -183 46 -226 112l78 64c22 -42 70 -87 150 -87c85 0 134 46 134 149v74c-34 -53 -90 -79 -151 -79c-137 0 -216 117 -216 242c0 124 79 242 214 242c61 0 119 -26 153 -79v70h102v-470c0 -153 -87 -238 -238 -238zM275 112c89 0 134 69 134 148
c0 78 -45 150 -134 150c-90 0 -137 -73 -137 -150c0 -78 47 -148 137 -148z" />
    <glyph glyph-name="gbreve.ss01" horiz-adv-x="580" 
d="M291 565c-106 0 -154 47 -154 132h72c0 -49 35 -72 82 -72c49 0 81 25 81 72h73c0 -89 -53 -132 -154 -132zM265 -215c-115 0 -183 46 -226 112l78 64c22 -42 70 -87 150 -87c85 0 134 46 134 149v74c-34 -53 -90 -79 -151 -79c-137 0 -216 117 -216 242
c0 124 79 242 214 242c61 0 119 -26 153 -79v70h102v-470c0 -153 -87 -238 -238 -238zM275 112c89 0 134 69 134 148c0 78 -45 150 -134 150c-90 0 -137 -73 -137 -150c0 -78 47 -148 137 -148z" />
    <glyph glyph-name="uni0123.ss01" horiz-adv-x="580" 
d="M200 553l120 152h61l-75 -152h-106zM265 -215c-115 0 -183 46 -226 112l78 64c22 -42 70 -87 150 -87c85 0 134 46 134 149v74c-34 -53 -90 -79 -151 -79c-137 0 -216 117 -216 242c0 124 79 242 214 242c61 0 119 -26 153 -79v70h102v-470c0 -153 -87 -238 -238 -238z
M275 112c89 0 134 69 134 148c0 78 -45 150 -134 150c-90 0 -137 -73 -137 -150c0 -78 47 -148 137 -148z" />
    <glyph glyph-name="gdotaccent.ss01" horiz-adv-x="580" 
d="M237 589v108h107v-108h-107zM265 -215c-115 0 -183 46 -226 112l78 64c22 -42 70 -87 150 -87c85 0 134 46 134 149v74c-34 -53 -90 -79 -151 -79c-137 0 -216 117 -216 242c0 124 79 242 214 242c61 0 119 -26 153 -79v70h102v-470c0 -153 -87 -238 -238 -238zM275 112
c89 0 134 69 134 148c0 78 -45 150 -134 150c-90 0 -137 -73 -137 -150c0 -78 47 -148 137 -148z" />
    <glyph glyph-name="g.ss02" horiz-adv-x="525" 
d="M331 80c82 0 162 -42 162 -138c0 -93 -72 -155 -219 -155c-134 0 -246 40 -246 150c0 16 3 30 7 42l71 34c-33 19 -65 52 -66 105c0 40 17 78 59 105c-20 28 -32 63 -32 102c0 105 85 177 196 177c46 0 86 -13 118 -34l75 64l52 -64l-73 -60c14 -26 22 -56 22 -87
c0 -106 -87 -174 -195 -174c-39 0 -74 9 -103 24c-18 -11 -24 -27 -24 -43c1 -43 49 -48 98 -48h98zM264 421c-60 0 -95 -42 -95 -98c0 -54 35 -95 95 -95c59 0 93 41 93 95c0 56 -34 98 -93 98zM267 -135c79 0 129 19 129 70c0 50 -48 59 -88 59h-136l-49 -44v-12
c0 -29 24 -73 144 -73z" />
    <glyph glyph-name="gbreve.ss02" horiz-adv-x="525" 
d="M263 565c-106 0 -154 47 -154 132h72c0 -49 35 -72 82 -72c49 0 81 25 81 72h73c0 -89 -53 -132 -154 -132zM331 80c82 0 162 -42 162 -138c0 -93 -72 -155 -219 -155c-134 0 -246 40 -246 150c0 16 3 30 7 42l71 34c-33 19 -65 52 -66 105c0 40 17 78 59 105
c-20 28 -32 63 -32 102c0 105 85 177 196 177c46 0 86 -13 118 -34l75 64l52 -64l-73 -60c14 -26 22 -56 22 -87c0 -106 -87 -174 -195 -174c-39 0 -74 9 -103 24c-18 -11 -24 -27 -24 -43c1 -43 49 -48 98 -48h98zM264 421c-60 0 -95 -42 -95 -98c0 -54 35 -95 95 -95
c59 0 93 41 93 95c0 56 -34 98 -93 98zM267 -135c79 0 129 19 129 70c0 50 -48 59 -88 59h-136l-49 -44v-12c0 -29 24 -73 144 -73z" />
    <glyph glyph-name="uni0123.ss02" horiz-adv-x="525" 
d="M354 705l-75 -152h-106l120 152h61zM331 80c82 0 162 -42 162 -138c0 -93 -72 -155 -219 -155c-134 0 -246 40 -246 150c0 16 3 30 7 42l71 34c-33 19 -65 52 -66 105c0 40 17 78 59 105c-20 28 -32 63 -32 102c0 105 85 177 196 177c46 0 86 -13 118 -34l75 64l52 -64
l-73 -60c14 -26 22 -56 22 -87c0 -106 -87 -174 -195 -174c-39 0 -74 9 -103 24c-18 -11 -24 -27 -24 -43c1 -43 49 -48 98 -48h98zM264 421c-60 0 -95 -42 -95 -98c0 -54 35 -95 95 -95c59 0 93 41 93 95c0 56 -34 98 -93 98zM267 -135c79 0 129 19 129 70
c0 50 -48 59 -88 59h-136l-49 -44v-12c0 -29 24 -73 144 -73z" />
    <glyph glyph-name="gdotaccent.ss02" horiz-adv-x="525" 
d="M316 697v-108h-107v108h107zM331 80c82 0 162 -42 162 -138c0 -93 -72 -155 -219 -155c-134 0 -246 40 -246 150c0 16 3 30 7 42l71 34c-33 19 -65 52 -66 105c0 40 17 78 59 105c-20 28 -32 63 -32 102c0 105 85 177 196 177c46 0 86 -13 118 -34l75 64l52 -64l-73 -60
c14 -26 22 -56 22 -87c0 -106 -87 -174 -195 -174c-39 0 -74 9 -103 24c-18 -11 -24 -27 -24 -43c1 -43 49 -48 98 -48h98zM264 421c-60 0 -95 -42 -95 -98c0 -54 35 -95 95 -95c59 0 93 41 93 95c0 56 -34 98 -93 98zM267 -135c79 0 129 19 129 70c0 50 -48 59 -88 59h-136
l-49 -44v-12c0 -29 24 -73 144 -73z" />
    <glyph glyph-name="T_h" horiz-adv-x="1044" 
d="M241 0v600h-226v97h640v-271c36 53 92 76 146 76c124 0 178 -96 178 -201v-301h-103v286c0 70 -22 124 -99 124c-81 0 -122 -64 -122 -150v-260h-104v600h-203v-600h-107z" />
    <glyph glyph-name="ordfeminine" unicode="&#xaa;" horiz-adv-x="485" 
d="M203 348c-66 0 -121 42 -121 108c0 74 59 106 140 106h97c0 9 0 18 -2 25c-7 41 -32 62 -82 62c-44 0 -72 -24 -93 -54l-50 33c40 56 82 78 145 78c91 0 143 -54 143 -139v-211h-56l-2 49c-31 -38 -70 -57 -119 -57zM213 407c43 0 80 24 98 61c4 12 8 26 8 38h-93
c-49 0 -77 -18 -77 -50c0 -29 31 -49 64 -49z" />
    <glyph glyph-name="ordmasculine" unicode="&#xba;" horiz-adv-x="493" 
d="M246 352c-103 0 -173 79 -173 177c0 97 70 177 173 177c102 0 174 -80 174 -177c0 -98 -72 -177 -174 -177zM246 413c70 0 103 51 103 116c0 66 -33 116 -103 116s-103 -50 -103 -116c0 -65 33 -116 103 -116z" />
    <glyph glyph-name="uni0394" unicode="&#x394;" horiz-adv-x="609" 
d="M14 0l278 697h26l279 -697h-583zM139 86h333l-167 435z" />
    <glyph glyph-name="uni03A9" unicode="&#x3a9;" horiz-adv-x="780" 
d="M576 82h154v-82h-280v89c109 44 178 124 178 266c0 145 -92 245 -237 245s-236 -101 -236 -245c0 -139 69 -219 178 -266v-89h-280v82h154c-86 60 -143 167 -143 274c0 186 137 330 328 330s326 -144 326 -331c0 -108 -57 -215 -142 -273z" />
    <glyph glyph-name="uni03BC" unicode="&#x3bc;" horiz-adv-x="578" 
d="M76 -165v658h101v-286c0 -74 36 -122 104 -122c73 0 120 42 120 131v277h101v-493h-101v67c-36 -53 -95 -76 -148 -76c-40 0 -72 11 -94 32v-188h-83z" />
    <glyph glyph-name="pi" unicode="&#x3c0;" horiz-adv-x="506" 
d="M419 -9c-98 0 -112 66 -112 116v300h-135v-407h-86v407h-45v86h408v-86h-56v-287c0 -43 15 -53 35 -53c6 0 15 1 25 7l28 -67c-18 -11 -38 -16 -62 -16z" />
    <glyph glyph-name="zero" unicode="0" horiz-adv-x="579" 
d="M295 -9c-206 0 -236 204 -236 357c0 155 28 359 229 359c182 0 234 -180 234 -360c0 -178 -50 -356 -227 -356zM292 88c109 0 120 133 120 261c0 133 -12 261 -124 261c-114 0 -124 -133 -124 -262c0 -125 10 -260 128 -260z" />
    <glyph glyph-name="one" unicode="1" horiz-adv-x="579" 
d="M290 697h98v-697h-102v506h-167v81h101c45 0 70 18 70 62v48z" />
    <glyph glyph-name="two" unicode="2" horiz-adv-x="579" 
d="M218 96h315v-96h-486v87c137 84 354 232 354 403c0 69 -36 117 -113 117c-96 0 -131 -75 -134 -157l-100 7c0 130 83 248 234 248c126 0 214 -81 214 -208c0 -168 -152 -321 -284 -401z" />
    <glyph glyph-name="three" unicode="3" horiz-adv-x="579" 
d="M285 -9c-140 0 -254 76 -254 225l100 6c0 -86 65 -134 155 -134c82 0 150 41 150 123c0 106 -101 114 -183 113v82c111 0 146 33 146 101c0 66 -50 102 -115 102c-71 0 -119 -42 -120 -111l-100 6c0 127 99 202 219 202c115 0 218 -71 218 -187c0 -65 -36 -119 -107 -146
c94 -23 143 -85 143 -170c0 -137 -117 -212 -252 -212z" />
    <glyph glyph-name="four" unicode="4" horiz-adv-x="579" 
d="M451 262h112v-97h-112v-165h-102v165h-334v62l345 470h91v-435zM151 262h198v278z" />
    <glyph glyph-name="five" unicode="5" horiz-adv-x="579" 
d="M304 475c137 0 232 -107 232 -234c0 -133 -104 -250 -250 -250c-130 0 -228 90 -246 207l100 17c9 -66 59 -127 145 -127c94 0 144 75 144 153c0 74 -46 138 -139 138c-61 0 -104 -30 -131 -71l-98 25l66 364h378v-97h-294l-31 -166c42 31 85 41 124 41z" />
    <glyph glyph-name="six" unicode="6" horiz-adv-x="579" 
d="M367 455c98 -29 172 -118 172 -225c0 -132 -112 -239 -248 -239s-248 107 -248 238c0 48 15 90 38 128l208 340h117l-149 -235c37 7 74 4 110 -7zM291 88c80 0 144 64 144 142c0 77 -64 141 -144 141s-144 -64 -144 -141c0 -78 64 -142 144 -142z" />
    <glyph glyph-name="seven" unicode="7" horiz-adv-x="579" 
d="M40 697h501v-56l-320 -641h-117l310 600h-374v97z" />
    <glyph glyph-name="eight" unicode="8" horiz-adv-x="579" 
d="M290 -9c-129 0 -250 69 -250 211c0 80 40 145 111 177c-46 32 -76 82 -76 143c0 116 105 184 215 184c113 0 214 -70 214 -185c0 -60 -29 -111 -76 -142c71 -32 111 -97 111 -177c0 -142 -120 -211 -249 -211zM290 408c67 0 113 39 113 105c0 57 -47 96 -113 96
c-64 0 -113 -37 -113 -95c0 -67 46 -106 113 -106zM290 88c82 0 148 41 148 121c0 82 -62 129 -148 129c-88 0 -149 -47 -149 -129c0 -80 67 -121 149 -121z" />
    <glyph glyph-name="nine" unicode="9" horiz-adv-x="579" 
d="M289 706c136 0 249 -107 249 -238c0 -48 -16 -90 -39 -128l-208 -340h-117l150 235c-37 -7 -75 -5 -111 7c-97 29 -171 118 -171 225c0 132 111 239 247 239zM289 326c80 0 144 64 144 141c0 78 -63 142 -144 142c-80 0 -144 -64 -144 -142c0 -77 64 -141 144 -141z" />
    <glyph glyph-name="zero.lf" horiz-adv-x="572" 
d="M291 -9c-205 0 -235 204 -235 357c0 155 28 359 228 359c183 0 235 -180 235 -360c0 -178 -51 -356 -228 -356zM289 88c108 0 120 133 120 261c0 133 -13 261 -125 261c-113 0 -123 -133 -123 -262c0 -125 10 -260 128 -260z" />
    <glyph glyph-name="one.lf" horiz-adv-x="374" 
d="M186 697h97v-697h-101v506h-167v81h101c45 0 70 18 70 62v48z" />
    <glyph glyph-name="two.lf" horiz-adv-x="559" 
d="M208 96h315v-96h-486v87c137 84 353 232 353 403c0 69 -35 117 -112 117c-96 0 -131 -75 -134 -157l-100 7c0 130 82 248 234 248c126 0 214 -81 214 -208c0 -168 -152 -321 -284 -401z" />
    <glyph glyph-name="three.lf" horiz-adv-x="576" 
d="M282 -9c-139 0 -254 76 -254 225l101 6c0 -86 65 -134 155 -134c82 0 149 41 149 123c0 106 -100 114 -183 113v82c112 0 146 33 146 101c0 66 -50 102 -114 102c-72 0 -119 -42 -120 -111l-100 6c0 127 99 202 218 202c115 0 218 -71 218 -187c0 -65 -35 -119 -106 -146
c94 -23 143 -85 143 -170c0 -137 -117 -212 -253 -212z" />
    <glyph glyph-name="four.lf" horiz-adv-x="577" 
d="M450 262h112v-97h-112v-165h-102v165h-334v62l346 470h90v-435zM151 262h197v276z" />
    <glyph glyph-name="five.lf" horiz-adv-x="578" 
d="M303 475c137 0 233 -107 233 -234c0 -133 -105 -250 -251 -250c-129 0 -228 90 -246 207l100 17c10 -66 59 -127 146 -127c93 0 143 75 143 153c0 74 -46 138 -139 138c-61 0 -104 -30 -131 -71l-98 25l66 364h378v-97h-294l-31 -166c42 31 85 41 124 41z" />
    <glyph glyph-name="six.lf" horiz-adv-x="551" 
d="M353 455c97 -29 171 -118 171 -225c0 -132 -111 -239 -247 -239c-137 0 -249 107 -249 238c0 48 16 90 38 128l209 340h116l-149 -235c37 7 75 5 111 -7zM277 88c80 0 143 64 143 142c0 77 -63 141 -143 141c-81 0 -145 -64 -145 -141c0 -78 64 -142 145 -142z" />
    <glyph glyph-name="seven.lf" horiz-adv-x="531" 
d="M16 697h501v-56l-319 -641h-117l309 600h-374v97z" />
    <glyph glyph-name="eight.lf" horiz-adv-x="584" 
d="M291 -9c-128 0 -250 69 -250 211c0 80 40 145 112 177c-46 32 -76 82 -76 143c0 116 105 184 215 184c113 0 214 -70 214 -185c0 -60 -30 -111 -76 -142c71 -32 111 -97 111 -177c0 -142 -121 -211 -250 -211zM292 408c67 0 112 39 112 105c0 57 -46 96 -112 96
c-64 0 -113 -37 -113 -95c0 -67 46 -106 113 -106zM291 88c82 0 148 41 148 121c0 82 -61 129 -148 129s-148 -47 -148 -129c0 -80 67 -121 148 -121z" />
    <glyph glyph-name="nine.lf" horiz-adv-x="550" 
d="M273 706c137 0 249 -107 249 -238c0 -48 -16 -90 -38 -128l-209 -340h-116l149 235c-37 -7 -75 -5 -111 7c-97 29 -171 118 -171 225c0 132 111 239 247 239zM273 326c80 0 145 64 145 141c0 78 -64 142 -145 142c-80 0 -144 -64 -144 -142c0 -77 64 -141 144 -141z" />
    <glyph glyph-name="fraction" unicode="&#x2044;" horiz-adv-x="155" 
d="M-164 0l410 697h73l-411 -697h-72z" />
    <glyph glyph-name="period" unicode="." horiz-adv-x="311" 
d="M104 0v123h103v-123h-103z" />
    <glyph glyph-name="comma" unicode="," horiz-adv-x="312" 
d="M69 -151l78 281h118l-129 -281h-67z" />
    <glyph glyph-name="colon" unicode=":" horiz-adv-x="324" 
d="M107 347v124h111v-124h-111zM107 0v123h111v-123h-111z" />
    <glyph glyph-name="semicolon" unicode=";" horiz-adv-x="325" 
d="M130 347v124h112v-124h-112zM52 -151l79 281h118l-128 -281h-69z" />
    <glyph glyph-name="ellipsis" unicode="&#x2026;" horiz-adv-x="719" 
d="M104 0v123h103v-123h-103zM308 0v123h103v-123h-103zM513 0v123h102v-123h-102z" />
    <glyph glyph-name="exclam" unicode="!" horiz-adv-x="308" 
d="M115 206l-12 491h101l-11 -491h-78zM98 0v123h111v-123h-111z" />
    <glyph glyph-name="exclamdown" unicode="&#xa1;" horiz-adv-x="308" 
d="M209 493v-123h-111v123h111zM193 287l11 -491h-101l12 491h78z" />
    <glyph glyph-name="question" unicode="?" horiz-adv-x="497" 
d="M201 204v76c0 157 169 112 169 235c0 72 -50 106 -127 106c-84 0 -124 -45 -124 -125h-90c0 132 85 210 211 210c121 0 219 -67 219 -192c0 -179 -171 -158 -171 -235v-75h-87zM191 0v123h110v-123h-110z" />
    <glyph glyph-name="questiondown" unicode="&#xbf;" horiz-adv-x="497" 
d="M307 493v-123h-111v123h111zM296 289v-75c0 -158 -169 -112 -169 -236c0 -72 51 -106 127 -106c84 0 124 45 124 125h90c0 -132 -84 -210 -211 -210c-120 0 -219 67 -219 192c0 179 171 158 171 235v75h87z" />
    <glyph glyph-name="periodcentered" unicode="&#xb7;" horiz-adv-x="310" 
d="M155 293c-40 0 -71 31 -71 71c0 39 31 70 71 70c39 0 70 -30 70 -70s-31 -71 -70 -71z" />
    <glyph glyph-name="bullet" unicode="&#x2022;" horiz-adv-x="386" 
d="M193 120c-65 0 -117 53 -117 117c0 65 52 118 117 118s117 -53 117 -118c0 -64 -52 -117 -117 -117z" />
    <glyph glyph-name="asterisk" unicode="*" horiz-adv-x="426" 
d="M159 413l-67 47l76 83l-109 16l25 77l101 -43l-14 104h82l-14 -104l101 43l25 -77l-110 -16l77 -83l-67 -47l-54 107z" />
    <glyph glyph-name="numbersign" unicode="#" horiz-adv-x="684" 
d="M116 0l44 207h-117v72h133l31 150h-123v76h138l45 192h81l-44 -196h140l42 196h81l-44 -196h118v-72h-134l-32 -150h126v-72h-141l-44 -207h-80l44 207h-141l-43 -207h-80zM257 279h140l30 150h-140z" />
    <glyph glyph-name="slash" unicode="/" horiz-adv-x="435" 
d="M-11 -212l361 909h97l-363 -909h-95z" />
    <glyph glyph-name="backslash" unicode="\" horiz-adv-x="454" 
d="M371 -212l-382 959h95l382 -959h-95z" />
    <glyph glyph-name="uni2023" unicode="&#x2023;" horiz-adv-x="443" 
d="M106 81v355l305 -177z" />
    <glyph glyph-name="twodotenleader" unicode="&#x2025;" horiz-adv-x="515" 
d="M104 0v123h103v-123h-103zM308 0v123h103v-123h-103z" />
    <glyph glyph-name="parenleft" unicode="(" horiz-adv-x="279" 
d="M174 -52c-75 81 -120 258 -120 400c0 178 46 316 118 399h93c-91 -112 -130 -247 -130 -401c0 -169 42 -286 129 -398h-90z" />
    <glyph glyph-name="parenright" unicode=")" horiz-adv-x="279" 
d="M15 -52c86 112 129 229 129 398c0 154 -40 289 -130 401h92c73 -83 119 -221 119 -399c0 -142 -45 -319 -120 -400h-90z" />
    <glyph glyph-name="braceleft" unicode="{" horiz-adv-x="302" 
d="M202 -74c-71 0 -107 53 -107 135v156c0 55 -32 68 -63 79v69c31 10 63 23 63 81v161c0 85 38 133 109 133h69v-65h-35c-42 0 -56 -29 -56 -70v-161c0 -64 -26 -94 -68 -111v-6c41 -18 68 -47 68 -108v-157c0 -40 14 -69 54 -69h37v-67h-71z" />
    <glyph glyph-name="braceright" unicode="}" horiz-adv-x="302" 
d="M29 -74v67h37c40 0 54 29 54 69v157c0 61 27 90 68 108v6c-42 17 -68 47 -68 111v161c0 41 -14 70 -56 70h-35v65h69c71 0 109 -48 109 -133v-161c0 -58 32 -71 63 -81v-69c-31 -11 -63 -24 -63 -79v-156c0 -82 -36 -135 -107 -135h-71z" />
    <glyph glyph-name="bracketleft" unicode="[" horiz-adv-x="315" 
d="M92 -75v845h203v-69h-121v-706h121v-70h-203z" />
    <glyph glyph-name="bracketright" unicode="]" horiz-adv-x="315" 
d="M20 -75v70h121v706h-121v69h204v-845h-204z" />
    <glyph glyph-name="hyphen" unicode="-" horiz-adv-x="426" 
d="M73 261v77h280v-77h-280z" />
    <glyph glyph-name="uni00AD" unicode="&#xad;" horiz-adv-x="496" 
d="M73 261v77h351v-77h-351z" />
    <glyph glyph-name="endash" unicode="&#x2013;" horiz-adv-x="516" 
d="M73 261v77h371v-77h-371z" />
    <glyph glyph-name="emdash" unicode="&#x2014;" horiz-adv-x="1010" 
d="M0 261v77h1010v-77h-1010z" />
    <glyph glyph-name="uni2015" unicode="&#x2015;" horiz-adv-x="759" 
d="M73 261v77h614v-77h-614z" />
    <glyph glyph-name="underscore" unicode="_" horiz-adv-x="556" 
d="M72 -78v78h412v-78h-412z" />
    <glyph glyph-name="quotesinglbase" unicode="&#x201a;" horiz-adv-x="282" 
d="M54 -151l78 281h117l-128 -281h-67z" />
    <glyph glyph-name="quotedblbase" unicode="&#x201e;" horiz-adv-x="474" 
d="M54 -151l78 281h117l-128 -281h-67zM245 -151l79 281h117l-128 -281h-68z" />
    <glyph glyph-name="quotedblleft" unicode="&#x201c;" horiz-adv-x="466" 
d="M32 415l128 282h68l-78 -282h-118zM215 415l128 282h68l-78 -282h-118z" />
    <glyph glyph-name="quotedblright" unicode="&#x201d;" horiz-adv-x="466" 
d="M54 416l78 281h117l-128 -281h-67zM237 416l78 281h118l-128 -281h-68z" />
    <glyph glyph-name="quoteleft" unicode="&#x2018;" horiz-adv-x="282" 
d="M32 415l128 282h68l-78 -282h-118z" />
    <glyph glyph-name="quoteright" unicode="&#x2019;" horiz-adv-x="282" 
d="M54 416l78 281h117l-128 -281h-67z" />
    <glyph glyph-name="guillemotleft" unicode="&#xab;" horiz-adv-x="496" 
d="M220 79l-206 173l206 173v-89l-102 -84l102 -84v-89zM424 79l-206 173l206 173v-89l-102 -84l102 -84v-89z" />
    <glyph glyph-name="guillemotright" unicode="&#xbb;" horiz-adv-x="497" 
d="M70 79v89l102 84l-102 84v89l206 -173zM275 79v89l101 84l-101 84v89l205 -173z" />
    <glyph glyph-name="guilsinglleft" unicode="&#x2039;" horiz-adv-x="292" 
d="M220 79l-206 173l206 173v-89l-102 -84l102 -84v-89z" />
    <glyph glyph-name="guilsinglright" unicode="&#x203a;" horiz-adv-x="293" 
d="M70 79v89l102 84l-102 84v89l206 -173z" />
    <glyph glyph-name="quotedbl" unicode="&#x22;" horiz-adv-x="434" 
d="M90 439v258h86v-258h-86zM258 439v258h85v-258h-85z" />
    <glyph glyph-name="quotesingle" unicode="'" horiz-adv-x="267" 
d="M90 453v244h86v-244h-86z" />
    <glyph glyph-name="uni00A0" unicode="&#xa0;" horiz-adv-x="278" 
 />
    <glyph glyph-name="uni20B3" unicode="&#x20b3;" horiz-adv-x="801" 
d="M88 0l51 132h-63v91h99l30 77h-129v91h165l120 306h81l119 -306h165v-91h-129l29 -77h100v-91h-64l51 -132h-114l-48 132h-299l-48 -132h-116zM347 391h109l-54 152zM286 223h232l-28 77h-177z" />
    <glyph glyph-name="cent" unicode="&#xa2;" horiz-adv-x="556" 
d="M294 80c53 0 95 34 110 89l93 -36c-27 -76 -85 -125 -160 -138v-107l-93 -1v109c-121 23 -183 131 -183 249c0 115 60 228 183 252v104h93v-102c75 -13 133 -59 165 -138l-97 -39c-16 56 -58 91 -111 91c-91 0 -128 -82 -128 -168s36 -165 128 -165z" />
    <glyph glyph-name="currency" unicode="&#xa4;" horiz-adv-x="671" 
d="M150 72l-54 56l51 51c-58 78 -57 188 0 265l-50 51l54 57l51 -53c79 58 188 59 267 1l51 51l55 -55l-52 -51c59 -78 59 -188 0 -267l52 -50l-54 -56l-52 52c-79 -58 -188 -58 -268 0zM225 203c61 -61 159 -61 219 0s61 158 0 217c-60 61 -158 61 -219 0
c-58 -60 -59 -158 0 -217z" />
    <glyph glyph-name="dollar" unicode="$" horiz-adv-x="593" 
d="M542 199c0 -112 -83 -188 -192 -204v-111l-93 -1v113c-103 16 -192 83 -210 197l105 26c11 -90 75 -132 155 -132c82 0 129 45 129 103c0 157 -344 105 -344 329c0 101 71 167 163 183v106h94v-106c66 -11 123 -47 160 -114l-88 -55c-27 52 -70 79 -122 79
c-58 0 -101 -36 -101 -88c0 -143 344 -94 344 -325z" />
    <glyph glyph-name="Euro" unicode="&#x20ac;" horiz-adv-x="700" 
d="M592 143l55 -88c-52 -42 -121 -64 -206 -64c-172 0 -284 101 -319 253h-63l1 68h51c-1 13 -1 26 -1 39c0 15 1 30 2 45h-51v68h63c37 146 150 242 318 242c84 0 152 -20 204 -61l-56 -88c-35 30 -83 49 -148 49c-106 0 -177 -56 -208 -142h289l-1 -68h-304
c-2 -15 -3 -30 -3 -45c0 -13 1 -26 2 -39h305l-1 -68h-290c29 -92 100 -152 210 -152c66 0 115 20 151 51z" />
    <glyph glyph-name="florin" unicode="&#x192;" horiz-adv-x="472" 
d="M43 -218v77c98 0 133 33 133 142v415h-87v77h87v63c0 91 62 156 142 156c45 0 80 -17 118 -49l-56 -65c-24 20 -38 28 -62 28c-30 0 -56 -21 -56 -70v-63h120v-77h-120v-423c0 -147 -78 -211 -219 -211z" />
    <glyph glyph-name="uni20B4" unicode="&#x20b4;" horiz-adv-x="716" 
d="M543 473h105v-74h-580v74h374c13 14 20 31 20 51c0 52 -44 88 -102 88c-52 0 -95 -27 -122 -79l-88 55c46 82 130 118 215 118c113 0 195 -72 195 -164c0 -24 -6 -47 -17 -69zM68 263v73h580v-73h-382c-27 -25 -41 -53 -41 -80c0 -54 46 -96 127 -96c74 0 133 35 151 111
l103 -32c-32 -115 -139 -174 -252 -174c-139 0 -231 81 -231 181c0 30 9 61 25 90h-80z" />
    <glyph glyph-name="uni20B1" unicode="&#x20b1;" horiz-adv-x="670" 
d="M629 519v-44h-47c-9 -108 -92 -181 -234 -181h-112v-294h-105v475h-61v44h61v178h217c156 0 226 -71 234 -178h47zM236 598v-79h239c-8 51 -46 79 -128 79h-111zM347 394c84 0 121 28 129 81h-240v-81h111z" />
    <glyph glyph-name="uni20BD" unicode="&#x20bd;" horiz-adv-x="666" 
d="M161 0v138h-89v82h89v83h-89v91h89v303h209c142 0 242 -74 242 -203c0 -128 -100 -191 -242 -191h-104v-83h163v-82h-163v-138h-105zM266 394h104c95 0 137 34 137 100c0 65 -44 104 -137 104h-104v-204z" />
    <glyph glyph-name="sterling" unicode="&#xa3;" horiz-adv-x="607" 
d="M281 228c0 -69 -32 -114 -72 -142h335v-86h-473v90c67 24 126 79 126 139c0 24 -10 56 -18 81h-105v86h84c-10 24 -19 71 -19 110c0 114 77 204 205 204c103 0 179 -58 202 -150l-79 -30c-16 69 -65 95 -122 95c-72 0 -120 -42 -120 -121c0 -36 10 -81 22 -108h201v-86
h-181c6 -23 14 -52 14 -82z" />
    <glyph glyph-name="uni20B8" unicode="&#x20b8;" horiz-adv-x="688" 
d="M65 610v87h558v-87h-558zM291 0v442h-226v87h558v-87h-226v-442h-106z" />
    <glyph glyph-name="yen" unicode="&#xa5;" horiz-adv-x="704" 
d="M298 0v106h-164v83h164v77h-164v82h115l-215 349h129l189 -325l188 325h130l-214 -349h114v-82h-162v-77h162v-83h-162v-106h-110z" />
    <glyph glyph-name="plus" unicode="+" horiz-adv-x="598" 
d="M257 54v213h-212v85h212v211h85v-211h212v-85h-212v-213h-85z" />
    <glyph glyph-name="minus" unicode="&#x2212;" horiz-adv-x="613" 
d="M111 268v85h391v-85h-391z" />
    <glyph glyph-name="multiply" unicode="&#xd7;" horiz-adv-x="533" 
d="M116 92l-59 58l150 151l-150 151l59 60l150 -151l151 150l60 -59l-151 -151l151 -151l-60 -58l-151 149z" />
    <glyph glyph-name="divide" unicode="&#xf7;" horiz-adv-x="500" 
d="M194 427v122h111v-122h-111zM49 268v85h400v-85h-400zM194 71v123h111v-123h-111z" />
    <glyph glyph-name="equal" unicode="=" horiz-adv-x="628" 
d="M113 396v85h402v-85h-402zM113 184v85h402v-85h-402z" />
    <glyph glyph-name="notequal" unicode="&#x2260;" horiz-adv-x="583" 
d="M49 0l108 184h-67v85h118l74 127h-192v85h244l127 216h71l-126 -216h86v-85h-137l-75 -127h212v-85h-262l-108 -184h-73z" />
    <glyph glyph-name="greater" unicode="&#x3e;" horiz-adv-x="636" 
d="M87 -1l-38 67l403 229l-403 230l38 67l521 -297z" />
    <glyph glyph-name="less" unicode="&#x3c;" horiz-adv-x="636" 
d="M549 -1l-521 296l521 297l38 -67l-402 -230l402 -229z" />
    <glyph glyph-name="greaterequal" unicode="&#x2265;" horiz-adv-x="664" 
d="M104 90l-38 67l402 229l-402 230l38 67l521 -297zM60 -78v78h540v-78h-540z" />
    <glyph glyph-name="lessequal" unicode="&#x2264;" horiz-adv-x="664" 
d="M560 90l-520 296l520 297l39 -67l-403 -230l403 -229zM64 -78v78h541v-78h-541z" />
    <glyph glyph-name="plusminus" unicode="&#xb1;" horiz-adv-x="651" 
d="M287 93v217h-228v78h228v216h77v-216h228v-78h-228v-217h-77zM59 -78v78h532v-78h-532z" />
    <glyph glyph-name="approxequal" unicode="&#x2248;" horiz-adv-x="605" 
d="M390 348c-115 0 -106 117 -176 117c-33 0 -51 -36 -51 -90h-78c0 96 51 158 129 158c117 0 110 -116 176 -116c31 0 52 42 52 101h78c0 -100 -51 -170 -130 -170zM390 113c-115 0 -106 117 -176 117c-33 0 -51 -35 -51 -90h-78c0 95 51 159 129 159
c117 0 110 -117 176 -117c31 0 52 42 52 101h78c0 -100 -51 -170 -130 -170z" />
    <glyph glyph-name="asciitilde" unicode="~" horiz-adv-x="605" 
d="M390 171c-114 0 -106 116 -176 116c-32 0 -51 -35 -51 -90h-78c0 95 51 159 129 159c117 0 110 -117 176 -117c31 0 53 43 53 101h77c0 -100 -51 -169 -130 -169z" />
    <glyph glyph-name="logicalnot" unicode="&#xac;" horiz-adv-x="642" 
d="M432 143v159h-363v91h460v-250h-97z" />
    <glyph glyph-name="asciicircum" unicode="^" horiz-adv-x="591" 
d="M34 213l261 520l263 -520h-108l-155 327l-153 -327h-108z" />
    <glyph glyph-name="infinity" unicode="&#x221e;" horiz-adv-x="949" 
d="M268 175c-120 0 -194 79 -194 187s74 187 194 187c73 0 149 -44 206 -118c58 75 135 118 207 118c120 0 194 -79 194 -187s-74 -187 -194 -187c-73 0 -150 43 -207 117c-58 -75 -134 -117 -206 -117zM280 258c46 0 105 34 148 104c-44 71 -103 104 -148 104
c-69 0 -115 -40 -115 -104c0 -65 46 -104 115 -104zM668 258c69 0 116 39 116 104c0 64 -47 104 -116 104c-47 0 -106 -37 -149 -104c44 -68 102 -104 149 -104z" />
    <glyph glyph-name="integral" unicode="&#x222b;" horiz-adv-x="457" 
d="M27 -228v86c113 0 155 37 155 138v564c0 87 65 152 145 152c38 0 77 -14 109 -41l-55 -66c-20 16 -38 21 -54 21c-30 0 -59 -21 -59 -69v-564c0 -145 -92 -221 -241 -221z" />
    <glyph glyph-name="uni2126" unicode="&#x2126;" horiz-adv-x="822" 
d="M595 82h154v-82h-279v89c108 44 178 124 178 266c0 145 -92 245 -237 245s-237 -101 -237 -245c0 -139 69 -219 178 -266v-89h-279v82h153c-85 60 -142 167 -142 274c0 186 136 330 327 330s327 -144 327 -331c0 -108 -57 -215 -143 -273z" />
    <glyph glyph-name="uni2206" unicode="&#x2206;" horiz-adv-x="646" 
d="M32 0l278 697h26l279 -697h-583zM158 86h332l-167 435z" />
    <glyph glyph-name="product" unicode="&#x220f;" horiz-adv-x="659" 
d="M122 0v611h-44v86h504v-86h-45v-611h-86v611h-243v-611h-86z" />
    <glyph glyph-name="summation" unicode="&#x2211;" horiz-adv-x="638" 
d="M580 697v-97h-363l248 -252l-248 -251h363v-97h-533v52l280 296l-280 297v52h533z" />
    <glyph glyph-name="radical" unicode="&#x221a;" horiz-adv-x="600" 
d="M246 -101l-136 371h-77v86h139l79 -237l228 578h92z" />
    <glyph glyph-name="uni00B5" unicode="&#xb5;" horiz-adv-x="634" 
d="M114 -165v658h101v-286c0 -74 36 -122 104 -122c73 0 120 42 120 131v277h101v-493h-101v67c-37 -53 -95 -76 -149 -76c-39 0 -71 11 -93 32v-188h-83z" />
    <glyph glyph-name="partialdiff" unicode="&#x2202;" horiz-adv-x="641" 
d="M280 -6c-141 0 -224 95 -224 226c0 166 126 278 265 278c62 0 110 -31 146 -72c1 26 -1 50 -7 71c-16 90 -69 133 -141 133c-45 0 -101 -17 -128 -85l-75 24c34 86 111 136 212 136c170 0 243 -140 243 -331c0 -216 -104 -380 -291 -380zM286 82c113 0 177 94 182 183
c3 72 -37 150 -134 150c-120 0 -183 -97 -183 -194c0 -92 62 -139 135 -139z" />
    <glyph glyph-name="percent" unicode="%" horiz-adv-x="717" 
d="M188 387c-87 0 -140 72 -140 159c0 89 53 160 137 160c81 0 139 -69 139 -160c0 -90 -57 -159 -136 -159zM117 0l411 697h72l-410 -697h-73zM188 456c39 0 67 37 67 90c0 52 -26 91 -70 91c-45 0 -68 -39 -68 -91c0 -50 24 -90 71 -90zM532 -9c-87 0 -140 72 -140 160
s53 159 137 159c81 0 140 -69 140 -160c0 -90 -58 -159 -137 -159zM532 60c40 0 68 37 68 90c0 52 -27 91 -71 91s-67 -39 -67 -90s24 -91 70 -91z" />
    <glyph glyph-name="uni2031" unicode="&#x2031;" horiz-adv-x="1347" 
d="M188 387c-87 0 -140 72 -140 159c0 89 53 160 137 160c81 0 139 -69 139 -160c0 -90 -57 -159 -136 -159zM117 0l411 697h72l-410 -697h-73zM188 456c39 0 67 37 67 90c0 52 -26 91 -70 91c-45 0 -68 -39 -68 -91c0 -50 24 -90 71 -90zM532 -9c-87 0 -140 72 -140 160
s53 159 137 159c81 0 140 -69 140 -160c0 -90 -58 -159 -137 -159zM849 -9c-86 0 -140 72 -140 160s53 159 137 159c81 0 140 -69 140 -160c0 -90 -58 -159 -137 -159zM1166 -9c-86 0 -140 72 -140 160s53 159 137 159c80 0 139 -69 139 -160c0 -90 -58 -159 -136 -159z
M532 60c40 0 68 37 68 90c0 52 -27 91 -71 91s-67 -39 -67 -90s24 -91 70 -91zM849 60c39 0 68 37 68 90c0 52 -27 91 -71 91s-68 -39 -68 -90s25 -91 71 -91zM1166 60c39 0 67 37 67 90c0 52 -26 91 -70 91c-45 0 -68 -39 -68 -90s24 -91 71 -91z" />
    <glyph glyph-name="perthousand" unicode="&#x2030;" horiz-adv-x="1030" 
d="M188 387c-87 0 -140 72 -140 159c0 89 53 160 137 160c81 0 139 -69 139 -160c0 -90 -57 -159 -136 -159zM117 0l411 697h72l-411 -697h-72zM188 456c39 0 67 37 67 90c0 52 -26 91 -70 91c-45 0 -68 -39 -68 -91c0 -50 24 -90 71 -90zM532 -9c-87 0 -140 72 -140 160
s53 159 137 159c81 0 140 -69 140 -160c0 -90 -58 -159 -137 -159zM849 -9c-86 0 -140 72 -140 160s53 159 137 159c81 0 140 -69 140 -160c0 -90 -58 -159 -137 -159zM532 60c40 0 68 37 68 90c0 52 -27 91 -71 91s-67 -39 -67 -90s24 -91 70 -91zM849 60c39 0 68 37 68 90
c0 52 -27 91 -71 91s-68 -39 -68 -90s25 -91 71 -91z" />
    <glyph glyph-name="notequal.001" horiz-adv-x="583" 
d="M49 0l108 184h-67v85h118l74 127h-192v85h244l127 216h71l-126 -216h86v-85h-137l-75 -127h212v-85h-262l-108 -184h-73z" />
    <glyph glyph-name="arrowright" unicode="&#x2192;" horiz-adv-x="1091" 
d="M543 10l-34 68l328 184l-837 -1v77l837 -1l-328 184l34 68l520 -289z" />
    <glyph glyph-name="arrowleft" unicode="&#x2190;" horiz-adv-x="1132" 
d="M548 25l-520 290l520 288l34 -68l-325 -181l834 -1v-77l-835 1l326 -184z" />
    <glyph glyph-name="lozenge" unicode="&#x25ca;" horiz-adv-x="590" 
d="M226 0l-187 348l187 349h138l187 -349l-187 -348h-138zM289 54h13l148 294l-148 295h-13l-150 -295z" />
    <glyph glyph-name="uniF8FF" unicode="&#xf8ff;" horiz-adv-x="879" 
d="M439 -30c-211 0 -382 170 -382 382c0 211 171 381 382 381s382 -170 382 -381c0 -212 -171 -382 -382 -382zM439 5c192 0 347 155 347 347c0 191 -155 346 -347 346s-346 -155 -346 -346c0 -192 154 -347 346 -347zM240 202c-9 0 -17 7 -17 17v265c0 10 8 18 17 18
c10 0 18 -8 18 -18v-265c0 -10 -8 -17 -18 -17zM439 202c-10 0 -17 7 -17 17v265c0 10 7 18 17 18s17 -8 17 -18v-265c0 -10 -7 -17 -17 -17zM637 202c-4 0 -8 1 -11 5l-133 132c-3 4 -4 8 -4 13s1 9 4 12l134 132c2 4 6 6 10 6c9 0 18 -9 18 -18c0 -4 -1 -8 -5 -12
l-120 -120l120 -121c4 -4 5 -8 5 -12c0 -9 -9 -17 -18 -17zM307 334c-10 0 -17 7 -17 18c0 10 7 17 17 17h66c10 0 18 -7 18 -17c0 -11 -8 -18 -18 -18h-66z" />
    <glyph glyph-name="at" unicode="@" horiz-adv-x="1005" 
d="M499 -173c-243 0 -442 164 -442 430c0 252 181 450 450 450c272 0 443 -201 443 -436c0 -153 -72 -307 -228 -307c-64 0 -106 30 -120 82c-4 15 -7 33 -8 53c-41 -47 -96 -76 -157 -76c-108 0 -161 88 -161 192c0 133 87 306 241 306c67 0 111 -32 130 -80l12 56h83
c-21 -110 -72 -284 -74 -380c-2 -47 9 -69 52 -69c109 0 151 119 151 224c0 192 -138 357 -363 357c-224 0 -371 -163 -371 -371c0 -221 166 -348 363 -348c46 0 84 7 123 20l29 -76c-48 -18 -96 -27 -153 -27zM444 105c114 0 175 130 175 230c0 66 -27 105 -90 105
c-115 0 -175 -129 -175 -228c0 -68 28 -107 90 -107z" />
    <glyph glyph-name="ampersand" unicode="&#x26;" horiz-adv-x="683" 
d="M646 28l-72 -63l-92 106c-56 -51 -129 -81 -212 -81c-127 0 -224 62 -224 172c0 107 81 165 165 213c-29 31 -86 93 -86 167c0 100 93 163 189 163c99 0 180 -71 180 -162c0 -88 -64 -142 -137 -187l119 -135c16 37 25 78 26 121l99 -10c-4 -70 -24 -134 -58 -187z
M224 541c0 -42 45 -96 67 -122c61 34 109 69 109 122c0 46 -31 84 -85 84c-50 0 -91 -31 -91 -84zM267 77c63 0 116 24 155 63l-146 168c-71 -41 -131 -83 -131 -148c0 -54 49 -83 122 -83z" />
    <glyph glyph-name="paragraph" unicode="&#xb6;" horiz-adv-x="630" 
d="M264 -121v428c-116 0 -224 72 -224 195s108 195 224 195h71v-818h-71zM444 -121v818h72v-818h-72z" />
    <glyph glyph-name="section" unicode="&#xa7;" horiz-adv-x="598" 
d="M294 -207c-86 0 -161 36 -207 119l88 54c26 -51 70 -78 122 -78c58 0 101 36 101 88c0 64 -69 89 -145 118c-94 36 -199 79 -199 207c0 57 22 105 57 140c-11 21 -17 47 -17 78c0 118 96 187 210 187c86 0 161 -36 207 -118l-88 -55c-27 52 -70 79 -122 79
c-58 0 -101 -36 -101 -88c0 -64 68 -89 145 -118c93 -37 199 -79 199 -207c0 -58 -22 -105 -57 -140c10 -21 17 -47 17 -78c0 -118 -96 -188 -210 -188zM416 128c14 17 22 38 22 62c0 72 -72 100 -149 130c-38 15 -77 30 -107 52c-14 -17 -22 -38 -22 -62
c0 -73 72 -100 149 -131c37 -14 76 -29 107 -51z" />
    <glyph glyph-name="copyright" unicode="&#xa9;" horiz-adv-x="856" 
d="M429 -13c-206 0 -371 161 -371 361s165 362 371 362c204 0 370 -162 370 -362s-166 -361 -370 -361zM429 53c169 0 306 132 306 295c0 164 -137 297 -306 297c-171 0 -307 -133 -307 -297c0 -163 136 -295 307 -295zM439 130c-131 0 -198 103 -198 217
c0 111 64 219 197 219c81 0 145 -40 177 -121l-80 -31c-15 45 -50 76 -97 76c-78 0 -112 -71 -112 -143s34 -140 112 -140c47 0 83 30 96 74l76 -29c-26 -77 -90 -122 -171 -122z" />
    <glyph glyph-name="registered" unicode="&#xae;" horiz-adv-x="856" 
d="M429 -13c-206 0 -371 161 -371 361s165 362 371 362c204 0 370 -162 370 -362s-166 -361 -370 -361zM429 53c169 0 306 132 306 295c0 164 -137 297 -306 297c-171 0 -307 -133 -307 -297c0 -163 136 -295 307 -295zM308 139v419h129c86 0 144 -49 144 -122
c0 -51 -31 -92 -81 -109l114 -188h-77l-104 181h-23h-35v-181h-67zM375 376h67c47 2 72 24 72 59c0 39 -28 62 -77 62h-62v-121z" />
    <glyph glyph-name="trademark" unicode="&#x2122;" horiz-adv-x="745" 
d="M142 432v206h-74v59h211v-59h-73v-206h-64zM334 432v265h104l46 -166l46 166h102v-265h-64v198l-63 -192h-41l-66 193v-199h-64z" />
    <glyph glyph-name="degree" unicode="&#xb0;" horiz-adv-x="444" 
d="M222 419c-79 0 -144 65 -144 144s65 143 144 143s144 -64 144 -143s-65 -144 -144 -144zM222 488c42 0 75 33 75 75c0 41 -33 74 -75 74c-41 0 -74 -33 -74 -74c0 -42 33 -75 74 -75z" />
    <glyph glyph-name="bar" unicode="|" horiz-adv-x="306" 
d="M115 -253v1010h76v-1010h-76z" />
    <glyph glyph-name="brokenbar" unicode="&#xa6;" horiz-adv-x="313" 
d="M114 361v366h84v-366h-84zM114 -152v359h84v-359h-84z" />
    <glyph glyph-name="dagger" unicode="&#x2020;" horiz-adv-x="390" 
d="M148 -101v513h-113v92h113v193h93v-193h114v-92h-114v-513h-93z" />
    <glyph glyph-name="daggerdbl" unicode="&#x2021;" horiz-adv-x="439" 
d="M173 -101v193h-113v92h113v228h-113v92h113v193h93v-193h113v-92h-113v-228h113v-92h-113v-193h-93z" />
    <glyph glyph-name="uni2116" unicode="&#x2116;" horiz-adv-x="1207" 
d="M532 176v521h101v-697h-107l-310 524v-524h-102v697h107zM934 161c-123 0 -205 97 -205 213s82 211 205 211c122 0 206 -95 206 -211s-84 -213 -206 -213zM934 512c-80 0 -118 -64 -118 -138c0 -76 38 -140 118 -140s118 65 118 140c0 74 -38 138 -118 138zM732 0v78h395
v-78h-395z" />
    <glyph glyph-name="uni02F6" unicode="&#x2f6;" horiz-adv-x="544" 
d="M60 335l111 158h109l-145 -158h-75zM271 335l111 158h109l-144 -158h-76z" />
    <glyph glyph-name="uni02F5" unicode="&#x2f5;" horiz-adv-x="544" 
d="M197 335l-144 158h109l111 -158h-76zM409 335l-145 158h109l111 -158h-75z" />
    <glyph glyph-name="uni0308" unicode="&#x308;" 
d="M-349 589v108h86v-108h-86zM-159 589v108h86v-108h-86z" />
    <glyph glyph-name="uni0307" unicode="&#x307;" 
d="M-180 589v108h107v-108h-107z" />
    <glyph glyph-name="gravecomb" unicode="&#x300;" 
d="M-101 556l-136 141h109l104 -141h-77z" />
    <glyph glyph-name="acutecomb" unicode="&#x301;" 
d="M-236 556l110 141h110l-144 -141h-76z" />
    <glyph glyph-name="uni030B" unicode="&#x30b;" 
d="M-418 538l110 159h92l-126 -159h-76zM-233 538l109 159h109l-143 -159h-75z" />
    <glyph glyph-name="caroncomb.alt" 
d="M-190 479l57 218h107l-104 -218h-60z" />
    <glyph glyph-name="uni0302" unicode="&#x302;" 
d="M-319 544l154 168l153 -168h-80l-73 81l-73 -81h-81z" />
    <glyph glyph-name="uni030C" unicode="&#x30c;" 
d="M-167 537l-153 160h80l73 -77l74 77h80z" />
    <glyph glyph-name="uni0306" unicode="&#x306;" 
d="M-202 565c-106 0 -154 47 -154 132h72c0 -49 35 -72 82 -72c49 0 81 25 81 72h73c0 -89 -53 -132 -154 -132z" />
    <glyph glyph-name="uni030A" unicode="&#x30a;" 
d="M-154 531c-61 0 -108 50 -108 108c0 60 48 108 108 108c58 0 108 -47 108 -108c0 -59 -49 -108 -108 -108zM-154 587c30 0 52 23 52 53s-20 51 -52 51s-52 -21 -52 -51s22 -53 52 -53z" />
    <glyph glyph-name="tildecomb" unicode="&#x303;" 
d="M-152 561c-79 0 -89 76 -132 76c-24 0 -38 -26 -38 -71h-59c0 86 39 135 101 134c72 1 87 -75 129 -75c20 0 36 26 36 72h61c0 -87 -38 -136 -98 -136z" />
    <glyph glyph-name="uni0304" unicode="&#x304;" 
d="M-345 578v60h273v-60h-273z" />
    <glyph glyph-name="hookabovecomb" unicode="&#x309;" 
d="M-167 532l-12 43c32 5 67 9 67 45c0 37 -41 41 -80 41h-15v57h15c85 0 146 -34 146 -97c0 -69 -70 -80 -121 -89z" />
    <glyph glyph-name="uni030F" unicode="&#x30f;" 
d="M-282 538l-143 159h109l110 -159h-76zM-97 538l-127 159h92l110 -159h-75z" />
    <glyph glyph-name="uni0312" unicode="&#x312;" 
d="M-220 553l120 152h61l-75 -152h-106z" />
    <glyph glyph-name="uni031B" unicode="&#x31b;" 
d="M-201 494v68c57 0 72 44 72 85v50h77v-42c0 -91 -43 -161 -149 -161z" />
    <glyph glyph-name="dotbelowcomb" unicode="&#x323;" 
d="M-180 -173v107h107v-107h-107z" />
    <glyph glyph-name="uni0326" unicode="&#x326;" 
d="M-201 -224l74 170h107l-121 -170h-60z" />
    <glyph glyph-name="uni0327" unicode="&#x327;" 
d="M-149 -257c-27 0 -61 10 -87 37l33 49c19 -20 40 -27 56 -27c29 0 47 18 47 46c0 30 -25 46 -54 52c-20 3 -44 5 -68 5l58 95h61l-39 -55c21 -3 39 -9 55 -17c30 -16 47 -43 47 -78c0 -61 -45 -107 -109 -107z" />
    <glyph glyph-name="uni0328" unicode="&#x328;" 
d="M-127 -219c-60 0 -105 37 -105 95c0 61 48 104 84 125l80 -1c-19 -10 -102 -47 -102 -114c0 -31 18 -42 40 -42c21 0 39 10 54 28l51 -36c-24 -33 -57 -55 -102 -55z" />
    <glyph glyph-name="uni0335" unicode="&#x335;" 
d="M-376 256v69h304v-69h-304z" />
    <glyph glyph-name="uni0336" unicode="&#x336;" 
d="M-720 250v61h649v-61h-649z" />
    <glyph glyph-name="uni0337" unicode="&#x337;" 
d="M-255 219v105l227 179v-103z" />
    <glyph glyph-name="uni0338" unicode="&#x338;" 
d="M-425 0l357 583h77l-357 -583h-77z" />
    <glyph glyph-name="acute" unicode="&#xb4;" horiz-adv-x="258" 
d="M22 556l110 141h110l-144 -141h-76z" />
    <glyph glyph-name="breve" unicode="&#x2d8;" horiz-adv-x="405" 
d="M203 565c-106 0 -154 47 -154 132h72c0 -49 35 -72 82 -72c49 0 81 25 81 72h73c0 -89 -53 -132 -154 -132z" />
    <glyph glyph-name="caron" unicode="&#x2c7;" horiz-adv-x="333" 
d="M166 537l-153 160h80l73 -77l74 77h80z" />
    <glyph glyph-name="cedilla" unicode="&#xb8;" horiz-adv-x="279" 
d="M129 -257c-41 0 -80 27 -96 64l57 24c7 -17 23 -29 42 -29c28 0 47 18 47 44c0 34 -34 57 -86 58c-10 0 -22 1 -36 1l58 94h61l-39 -54c11 -1 21 -3 29 -6c47 -13 73 -44 73 -89c0 -61 -46 -107 -110 -107z" />
    <glyph glyph-name="circumflex" unicode="&#x2c6;" horiz-adv-x="330" 
d="M11 544l154 168l153 -168h-80l-73 81l-73 -81h-81z" />
    <glyph glyph-name="dieresis" unicode="&#xa8;" horiz-adv-x="422" 
d="M73 589v108h86v-108h-86zM263 589v108h86v-108h-86z" />
    <glyph glyph-name="dotaccent" unicode="&#x2d9;" horiz-adv-x="253" 
d="M73 589v108h107v-108h-107z" />
    <glyph glyph-name="grave" unicode="`" horiz-adv-x="253" 
d="M152 556l-136 141h109l104 -141h-77z" />
    <glyph glyph-name="hungarumlaut" unicode="&#x2dd;" horiz-adv-x="440" 
d="M22 538l110 159h92l-126 -159h-76zM207 538l109 159h109l-143 -159h-75z" />
    <glyph glyph-name="macron" unicode="&#xaf;" horiz-adv-x="417" 
d="M72 578v60h273v-60h-273z" />
    <glyph glyph-name="ogonek" unicode="&#x2db;" horiz-adv-x="285" 
d="M154 -223c-63 0 -109 39 -109 99c0 77 78 121 92 125l80 -1c-24 -7 -110 -48 -110 -111c0 -37 19 -49 44 -49s43 11 58 32l52 -36c-24 -35 -58 -59 -107 -59z" />
    <glyph glyph-name="ring" unicode="&#x2da;" horiz-adv-x="309" 
d="M155 531c-61 0 -108 50 -108 108c0 60 48 108 108 108c58 0 108 -47 108 -108c0 -59 -49 -108 -108 -108zM155 587c30 0 52 23 52 53s-20 51 -52 51s-52 -21 -52 -51s22 -53 52 -53z" />
    <glyph glyph-name="tilde" unicode="&#x2dc;" horiz-adv-x="434" 
d="M282 561c-79 0 -89 76 -132 76c-24 0 -38 -26 -38 -71h-59c0 86 39 135 101 134c72 1 87 -75 129 -75c20 0 36 26 36 72h61c0 -87 -38 -136 -98 -136z" />
    <glyph glyph-name="uni030A.case" 
d="M-154 531c-61 0 -108 50 -108 108c0 60 48 108 108 108c58 0 108 -47 108 -108c0 -59 -49 -108 -108 -108zM-154 587c30 0 52 23 52 53s-20 51 -52 51s-52 -21 -52 -51s22 -53 52 -53z" />
    <glyph glyph-name="uni0337.case" 
d="M-314 146v105l294 232v-104z" />
    <glyph glyph-name="uni0338.case" 
d="M-490 0l426 697h77l-426 -697h-77z" />
    <glyph glyph-name="uni03060301" 
d="M-241 760l110 141h109l-144 -141h-75zM-203 565c-106 0 -154 47 -154 132h72c0 -49 35 -72 82 -72c49 0 81 25 81 72h73c0 -89 -53 -132 -154 -132z" />
    <glyph glyph-name="uni03060300" 
d="M-207 760l-136 141h109l104 -141h-77zM-169 565c-105 0 -154 47 -154 132h73c0 -49 34 -72 81 -72c49 0 82 25 82 72h72c0 -89 -52 -132 -154 -132z" />
    <glyph glyph-name="uni03060309" 
d="M-193 736l-12 43c32 5 67 9 67 45c0 37 -41 41 -81 41h-15v57h15c86 0 146 -34 146 -97c0 -69 -70 -80 -120 -89zM-184 565c-106 0 -154 47 -154 132h72c0 -49 35 -72 82 -72c49 0 81 25 81 72h73c0 -89 -53 -132 -154 -132z" />
    <glyph glyph-name="uni03060303" 
d="M-146 765c-80 0 -89 76 -132 76c-24 0 -38 -26 -38 -71h-60c0 86 40 135 102 134c71 1 86 -75 128 -75c21 0 36 26 36 72h62c0 -87 -39 -136 -98 -136zM-211 565c-106 0 -155 47 -155 132h73c0 -49 34 -72 82 -72s81 25 81 72h73c0 -89 -53 -132 -154 -132z" />
    <glyph glyph-name="uni03020301" 
d="M-228 744l109 141h110l-144 -141h-75zM-345 544l154 168l154 -168h-80l-74 81l-73 -81h-81z" />
    <glyph glyph-name="uni03020300" 
d="M-185 744l-136 141h109l104 -141h-77zM-300 544l153 168l154 -168h-80l-74 81l-73 -81h-80z" />
    <glyph glyph-name="uni03020309" 
d="M-175 721l-12 42c32 5 67 9 67 45c0 38 -41 42 -81 42h-15v56h15c86 0 146 -33 146 -96c0 -70 -69 -81 -120 -89zM-320 544l154 168l154 -168h-81l-73 81l-73 -81h-81z" />
    <glyph glyph-name="uni03020303" 
d="M-127 750c-79 0 -89 76 -132 75c-23 1 -38 -25 -38 -71h-59c0 86 39 135 101 135c72 0 87 -76 129 -76c20 0 36 27 36 72h61c0 -86 -38 -135 -98 -135zM-345 544l153 168l154 -168h-80l-74 81l-73 -81h-80z" />
    </font>
</defs>
</svg>
