<svg xmlns="http://www.w3.org/2000/svg" xmlns:xlink="http://www.w3.org/1999/xlink" fill="none" version="1.1" width="10" height="2" viewBox="0 0 10 2"><g style="mix-blend-mode:passthrough"><path d="M2,1Q2,1.09849,1.98079,1.19509Q1.96157,1.29169,1.92388,1.38268Q1.88619,1.47368,1.83147,1.55557Q1.77675,1.63746,1.70711,1.70711Q1.63746,1.77675,1.55557,1.83147Q1.47368,1.88619,1.38268,1.92388Q1.29169,1.96157,1.19509,1.98079Q1.09849,2,1,2Q0.901509,2,0.80491,1.98079Q0.708311,1.96157,0.617316,1.92388Q0.526322,1.88619,0.44443,1.83147Q0.362537,1.77675,0.292893,1.70711Q0.223249,1.63746,0.16853,1.55557Q0.113811,1.47368,0.0761205,1.38268Q0.0384294,1.29169,0.0192147,1.19509Q0,1.09849,0,1Q0,0.901509,0.0192147,0.80491Q0.0384294,0.708311,0.0761205,0.617316Q0.113811,0.526322,0.16853,0.44443Q0.223249,0.362537,0.292893,0.292893Q0.362537,0.223249,0.44443,0.16853Q0.526322,0.113811,0.617316,0.0761205Q0.708311,0.0384294,0.80491,0.0192147Q0.901509,0,1,0Q1.09849,0,1.19509,0.0192147Q1.29169,0.0384294,1.38268,0.0761205Q1.47368,0.113811,1.55557,0.16853Q1.63746,0.223249,1.70711,0.292893Q1.77675,0.362537,1.83147,0.44443Q1.88619,0.526322,1.92388,0.617316Q1.96157,0.708311,1.98079,0.80491Q2,0.901509,2,1ZM6,1Q6,1.09849,5.98078,1.19509Q5.96157,1.29169,5.92388,1.38268Q5.88619,1.47368,5.83147,1.55557Q5.77675,1.63746,5.70711,1.70711Q5.63746,1.77675,5.55557,1.83147Q5.47368,1.88619,5.38268,1.92388Q5.29169,1.96157,5.19509,1.98079Q5.09849,2,5,2Q4.90151,2,4.80491,1.98079Q4.70831,1.96157,4.61732,1.92388Q4.52632,1.88619,4.44443,1.83147Q4.36254,1.77675,4.29289,1.70711Q4.22325,1.63746,4.16853,1.55557Q4.11381,1.47368,4.07612,1.38268Q4.03843,1.29169,4.01921,1.19509Q4,1.09849,4,1Q4,0.901509,4.01921,0.80491Q4.03843,0.708311,4.07612,0.617316Q4.11381,0.526322,4.16853,0.44443Q4.22325,0.362537,4.29289,0.292893Q4.36254,0.223249,4.44443,0.16853Q4.52632,0.113811,4.61732,0.0761205Q4.70831,0.0384294,4.80491,0.0192147Q4.90151,0,5,0Q5.09849,0,5.19509,0.0192147Q5.29169,0.0384294,5.38268,0.0761205Q5.47368,0.113811,5.55557,0.16853Q5.63746,0.223249,5.70711,0.292893Q5.77675,0.362537,5.83147,0.44443Q5.88619,0.526322,5.92388,0.617316Q5.96157,0.708311,5.98078,0.80491Q6,0.901509,6,1ZM9,2Q9.09849,2,9.19509,1.98079Q9.29169,1.96157,9.38268,1.92388Q9.47368,1.88619,9.55557,1.83147Q9.63746,1.77675,9.70711,1.70711Q9.77675,1.63746,9.83147,1.55557Q9.88619,1.47368,9.92388,1.38268Q9.96157,1.29169,9.98078,1.19509Q10,1.09849,10,1Q10,0.901509,9.98078,0.80491Q9.96157,0.708311,9.92388,0.617316Q9.88619,0.526322,9.83147,0.44443Q9.77675,0.362537,9.70711,0.292893Q9.63746,0.223249,9.55557,0.16853Q9.47368,0.113811,9.38268,0.0761205Q9.29169,0.0384294,9.19509,0.0192147Q9.09849,0,9,0Q8.90151,0,8.80491,0.0192147Q8.70831,0.0384294,8.61732,0.0761205Q8.52632,0.113811,8.44443,0.16853Q8.36254,0.223249,8.29289,0.292893Q8.22325,0.362537,8.16853,0.44443Q8.11381,0.526322,8.07612,0.617316Q8.03843,0.708311,8.01921,0.80491Q8,0.901509,8,1Q8,1.09849,8.01921,1.19509Q8.03843,1.29169,8.07612,1.38268Q8.11381,1.47368,8.16853,1.55557Q8.22325,1.63746,8.29289,1.70711Q8.36254,1.77675,8.44443,1.83147Q8.52632,1.88619,8.61732,1.92388Q8.70831,1.96157,8.80491,1.98079Q8.90151,2,9,2Z" fill-rule="evenodd" fill="#646A73" fill-opacity="1"/></g></svg>