<?xml version="1.0" encoding="utf-8"?>
<!-- Generator: Adobe Illustrator 24.0.1, SVG Export Plug-In . SVG Version: 6.00 Build 0)  -->
<svg version="1.1" id="图层_1" xmlns="http://www.w3.org/2000/svg" xmlns:xlink="http://www.w3.org/1999/xlink" x="0px" y="0px"
	 viewBox="0 0 191 155" style="enable-background:new 0 0 191 155;" xml:space="preserve">
<style type="text/css">
	.st0{fill-rule:evenodd;clip-rule:evenodd;fill:#C5DDE4;}
	.st1{fill-rule:evenodd;clip-rule:evenodd;fill:#FAFEFF;}
	.st2{fill-rule:evenodd;clip-rule:evenodd;fill:#84D3DB;}
	.st3{fill:#FFFFFF;}
	.st4{font-family:'PingFangSC-Regular-GBpc-EUC-H';}
	.st5{font-size:18px;}
	.st6{fill:#949494;}
	.st7{font-family:'GillSans';}
	.st8{font-size:10px;}
	.st9{fill:#58B0B7;}
	.st10{font-size:15.5px;}
</style>
<title>实验室logo</title>
<g id="Symbols">
	<g id="实验室logo" transform="translate(4.000000, 0.000000)">
		<path id="Path-3" class="st0" d="M45,23.3c2.1,9.4,2.5,15.8,1,19.1C43.9,47.6,37.7,50,32.3,53c-10.6,5.8-3.8,9.9,20.4,12.3h2
			c-2.1-9.1-2.2-15.3-0.4-18.6c2.1-3.9,6.9-6.7,11.8-9.3C77.2,31.6,70.2,27,45,23.3z"/>
		<path id="Path-3-Copy" class="st0" d="M79.5,23.3c-0.6,9.5,0,15.9,1.9,19.2c2.5,4.6,8.6,7.4,13.7,10.2c10.6,5.8,3.5,10-21.2,12.5
			l-0.7-0.9c2.3-9,2.5-15.1,0.7-18.4c-2.2-4.1-8.3-6-13.4-8.6C49.4,31.6,55.7,27,79.5,23.3z"/>
		<path id="Path-3-Copy-2" class="st0" d="M127,39.4c2.5-1.3,4.7-0.2,6.5,3.1c2.5,4.6,8.6,7.4,13.7,10.2c10.6,5.8,3.5,10-21.2,12.5
			l-0.7-0.9c2.3-9,2.5-15.1,0.7-18.4C124.5,43.2,124.8,41.1,127,39.4z"/>
		<circle id="Oval" class="st1" cx="62.4" cy="20.2" r="17.8"/>
		<circle id="Oval-Copy" class="st1" cx="37.7" cy="69.6" r="17.8"/>
		<circle id="Oval-Copy-2" class="st1" cx="89.8" cy="69.6" r="17.8"/>
		<circle id="Oval-Copy-3" class="st2" cx="114.5" cy="20.2" r="17.8"/>
		<circle id="Oval-Copy-4" class="st1" cx="141.9" cy="69.6" r="17.8"/>
		<g id="清华大学多媒体实验室-Tsinghua-Copy">
			<g>
				<text transform="matrix(1 0 0 1 -8.862305e-02 123.4121)" class="st3 st4 st5">清华大学多媒体实验室</text>
				<text transform="matrix(1 0 0 1 179.9114 123.4121)" class="st3 st4 st5"> </text>
				<text transform="matrix(1 0 0 1 -2.9052 148.4121)" class="st6 st7 st8">Tsinghua University</text>
				<text transform="matrix(1 0 0 1 76.6437 148.4121)" class="st3 st4 st5"> </text>
				<text transform="matrix(1 0 0 1 82.1974 148.4121)" class="st9 st7 st10">M</text>
				<text transform="matrix(1 0 0 1 94.3027 148.4121)" class="st3 st4 st5"> </text>
				<text transform="matrix(1 0 0 1 94.2992 148.4121)" class="st3 st7 st10">ulti-Media Lab</text>
			</g>
			<g>
				<text transform="matrix(1 0 0 1 -8.862305e-02 123.4121)" class="st3 st4 st5">清华大学多媒体实验室</text>
				<text transform="matrix(1 0 0 1 179.9114 123.4121)" class="st3 st4 st5"> </text>
				<text transform="matrix(1 0 0 1 -2.9052 148.4121)" class="st6 st7 st8">Tsinghua University</text>
				<text transform="matrix(1 0 0 1 76.6437 148.4121)" class="st3 st4 st5"> </text>
				<text transform="matrix(1 0 0 1 82.1974 148.4121)" class="st9 st7 st10">M</text>
				<text transform="matrix(1 0 0 1 94.3027 148.4121)" class="st3 st4 st5"> </text>
				<text transform="matrix(1 0 0 1 94.2992 148.4121)" class="st3 st7 st10">ulti-Media Lab</text>
			</g>
		</g>
	</g>
</g>
</svg>
